SplineFontDB: 3.0
FontName: discfont
FullName: discfont
FamilyName: discfont
Weight: Book
Copyright: Copyright (c) 2018, worksap
Version: 001.000
ItalicAngle: 0
UnderlinePosition: -150
UnderlineWidth: 50
Ascent: 800
Descent: 200
InvalidEm: 0
sfntRevision: 0x00010000
LayerCount: 2
Layer: 0 1 "Back" 1
Layer: 1 1 "Fore" 0
XUID: [1021 448 499641969 18147]
StyleMap: 0x0000
FSType: 0
OS2Version: 4
OS2_WeightWidthSlopeOnly: 0
OS2_UseTypoMetrics: 1
CreationTime: 1531819300
ModificationTime: 1532079957
PfmFamily: 17
TTFWeight: 400
TTFWidth: 5
LineGap: 90
VLineGap: 0
Panose: 2 0 5 9 0 0 0 0 0 0
OS2TypoAscent: 800
OS2TypoAOffset: 0
OS2TypoDescent: -200
OS2TypoDOffset: 0
OS2TypoLinegap: 90
OS2WinAscent: 350
OS2WinAOffset: 0
OS2WinDescent: -50
OS2WinDOffset: 0
HheadAscent: 350
HheadAOffset: 0
HheadDescent: 50
HheadDOffset: 0
OS2SubXSize: 650
OS2SubYSize: 699
OS2SubXOff: 0
OS2SubYOff: 140
OS2SupXSize: 650
OS2SupYSize: 699
OS2SupXOff: 0
OS2SupYOff: 479
OS2StrikeYSize: 49
OS2StrikeYPos: 258
OS2CapHeight: 350
OS2XHeight: 350
OS2Vendor: 'PfEd'
OS2CodePages: 00000001.00000000
OS2UnicodeRanges: 00000003.00000000.00000000.00000000
MarkAttachClasses: 1
DEI: 91125
ShortTable: maxp 16
  1
  0
  1297
  8
  2
  0
  0
  2
  0
  1
  1
  0
  64
  0
  0
  0
EndShort
LangName: 1033 "" "" "Regular"
GaspTable: 1 65535 2 0
Encoding: UnicodeBmp
UnicodeInterp: none
NameList: AGL For New Fonts
DisplaySize: -48
AntiAlias: 1
FitToEm: 0
WinInfo: 63840 20 9
BeginPrivate: 0
EndPrivate
BeginChars: 65537 1297

StartChar: .notdef
Encoding: 65536 -1 0
Width: 1000
Flags: W
LayerCount: 2
Fore
SplineSet
50 0 m 1,0,-1
 50 533 l 1,1,-1
 950 533 l 1,2,-1
 950 0 l 1,3,-1
 50 0 l 1,0,-1
100 50 m 1,4,-1
 900 50 l 1,5,-1
 900 483 l 1,6,-1
 100 483 l 1,7,-1
 100 50 l 1,4,-1
EndSplineSet
EndChar

StartChar: uni0000
Encoding: 0 -1 1
AltUni2: 000000.ffffffff.0
Width: 400
Flags: W
LayerCount: 2
Fore
SplineSet
50 200 m 128,-1,1
 50 138 50 138 94 94 c 128,-1,2
 138 50 138 50 200 50 c 128,-1,3
 262 50 262 50 306 94 c 128,-1,4
 350 138 350 138 350 200 c 128,-1,5
 350 262 350 262 306 306 c 128,-1,6
 262 350 262 350 200 350 c 128,-1,7
 138 350 138 350 94 306 c 128,-1,0
 50 262 50 262 50 200 c 128,-1,1
EndSplineSet
EndChar

StartChar: uni000D
Encoding: 13 13 2
Width: 400
Flags: W
LayerCount: 2
Fore
SplineSet
50 200 m 128,-1,1
 50 138 50 138 94 94 c 128,-1,2
 138 50 138 50 200 50 c 128,-1,3
 262 50 262 50 306 94 c 128,-1,4
 350 138 350 138 350 200 c 128,-1,5
 350 262 350 262 306 306 c 128,-1,6
 262 350 262 350 200 350 c 128,-1,7
 138 350 138 350 94 306 c 128,-1,0
 50 262 50 262 50 200 c 128,-1,1
EndSplineSet
EndChar

StartChar: uni0001
Encoding: 1 1 3
Width: 400
Flags: W
LayerCount: 2
Fore
SplineSet
50 200 m 128,-1,1
 50 138 50 138 94 94 c 128,-1,2
 138 50 138 50 200 50 c 128,-1,3
 262 50 262 50 306 94 c 128,-1,4
 350 138 350 138 350 200 c 128,-1,5
 350 262 350 262 306 306 c 128,-1,6
 262 350 262 350 200 350 c 128,-1,7
 138 350 138 350 94 306 c 128,-1,0
 50 262 50 262 50 200 c 128,-1,1
EndSplineSet
EndChar

StartChar: uni0002
Encoding: 2 2 4
Width: 400
Flags: W
LayerCount: 2
Fore
SplineSet
50 200 m 128,-1,1
 50 138 50 138 94 94 c 128,-1,2
 138 50 138 50 200 50 c 128,-1,3
 262 50 262 50 306 94 c 128,-1,4
 350 138 350 138 350 200 c 128,-1,5
 350 262 350 262 306 306 c 128,-1,6
 262 350 262 350 200 350 c 128,-1,7
 138 350 138 350 94 306 c 128,-1,0
 50 262 50 262 50 200 c 128,-1,1
EndSplineSet
EndChar

StartChar: uni0003
Encoding: 3 3 5
Width: 400
Flags: W
LayerCount: 2
Fore
SplineSet
50 200 m 128,-1,1
 50 138 50 138 94 94 c 128,-1,2
 138 50 138 50 200 50 c 128,-1,3
 262 50 262 50 306 94 c 128,-1,4
 350 138 350 138 350 200 c 128,-1,5
 350 262 350 262 306 306 c 128,-1,6
 262 350 262 350 200 350 c 128,-1,7
 138 350 138 350 94 306 c 128,-1,0
 50 262 50 262 50 200 c 128,-1,1
EndSplineSet
EndChar

StartChar: uni0004
Encoding: 4 4 6
Width: 400
Flags: W
LayerCount: 2
Fore
SplineSet
50 200 m 128,-1,1
 50 138 50 138 94 94 c 128,-1,2
 138 50 138 50 200 50 c 128,-1,3
 262 50 262 50 306 94 c 128,-1,4
 350 138 350 138 350 200 c 128,-1,5
 350 262 350 262 306 306 c 128,-1,6
 262 350 262 350 200 350 c 128,-1,7
 138 350 138 350 94 306 c 128,-1,0
 50 262 50 262 50 200 c 128,-1,1
EndSplineSet
EndChar

StartChar: uni0005
Encoding: 5 5 7
Width: 400
Flags: W
LayerCount: 2
Fore
SplineSet
50 200 m 128,-1,1
 50 138 50 138 94 94 c 128,-1,2
 138 50 138 50 200 50 c 128,-1,3
 262 50 262 50 306 94 c 128,-1,4
 350 138 350 138 350 200 c 128,-1,5
 350 262 350 262 306 306 c 128,-1,6
 262 350 262 350 200 350 c 128,-1,7
 138 350 138 350 94 306 c 128,-1,0
 50 262 50 262 50 200 c 128,-1,1
EndSplineSet
EndChar

StartChar: uni0006
Encoding: 6 6 8
Width: 400
Flags: W
LayerCount: 2
Fore
SplineSet
50 200 m 128,-1,1
 50 138 50 138 94 94 c 128,-1,2
 138 50 138 50 200 50 c 128,-1,3
 262 50 262 50 306 94 c 128,-1,4
 350 138 350 138 350 200 c 128,-1,5
 350 262 350 262 306 306 c 128,-1,6
 262 350 262 350 200 350 c 128,-1,7
 138 350 138 350 94 306 c 128,-1,0
 50 262 50 262 50 200 c 128,-1,1
EndSplineSet
EndChar

StartChar: uni0007
Encoding: 7 7 9
Width: 400
Flags: W
LayerCount: 2
Fore
SplineSet
50 200 m 128,-1,1
 50 138 50 138 94 94 c 128,-1,2
 138 50 138 50 200 50 c 128,-1,3
 262 50 262 50 306 94 c 128,-1,4
 350 138 350 138 350 200 c 128,-1,5
 350 262 350 262 306 306 c 128,-1,6
 262 350 262 350 200 350 c 128,-1,7
 138 350 138 350 94 306 c 128,-1,0
 50 262 50 262 50 200 c 128,-1,1
EndSplineSet
EndChar

StartChar: uni0008
Encoding: 8 8 10
Width: 400
Flags: W
LayerCount: 2
Fore
SplineSet
50 200 m 128,-1,1
 50 138 50 138 94 94 c 128,-1,2
 138 50 138 50 200 50 c 128,-1,3
 262 50 262 50 306 94 c 128,-1,4
 350 138 350 138 350 200 c 128,-1,5
 350 262 350 262 306 306 c 128,-1,6
 262 350 262 350 200 350 c 128,-1,7
 138 350 138 350 94 306 c 128,-1,0
 50 262 50 262 50 200 c 128,-1,1
EndSplineSet
EndChar

StartChar: uni0009
Encoding: 9 9 11
Width: 400
Flags: W
LayerCount: 2
Fore
SplineSet
50 200 m 128,-1,1
 50 138 50 138 94 94 c 128,-1,2
 138 50 138 50 200 50 c 128,-1,3
 262 50 262 50 306 94 c 128,-1,4
 350 138 350 138 350 200 c 128,-1,5
 350 262 350 262 306 306 c 128,-1,6
 262 350 262 350 200 350 c 128,-1,7
 138 350 138 350 94 306 c 128,-1,0
 50 262 50 262 50 200 c 128,-1,1
EndSplineSet
EndChar

StartChar: uni000A
Encoding: 10 10 12
Width: 400
Flags: W
LayerCount: 2
Fore
SplineSet
50 200 m 128,-1,1
 50 138 50 138 94 94 c 128,-1,2
 138 50 138 50 200 50 c 128,-1,3
 262 50 262 50 306 94 c 128,-1,4
 350 138 350 138 350 200 c 128,-1,5
 350 262 350 262 306 306 c 128,-1,6
 262 350 262 350 200 350 c 128,-1,7
 138 350 138 350 94 306 c 128,-1,0
 50 262 50 262 50 200 c 128,-1,1
EndSplineSet
EndChar

StartChar: uni000B
Encoding: 11 11 13
Width: 400
Flags: W
LayerCount: 2
Fore
SplineSet
50 200 m 128,-1,1
 50 138 50 138 94 94 c 128,-1,2
 138 50 138 50 200 50 c 128,-1,3
 262 50 262 50 306 94 c 128,-1,4
 350 138 350 138 350 200 c 128,-1,5
 350 262 350 262 306 306 c 128,-1,6
 262 350 262 350 200 350 c 128,-1,7
 138 350 138 350 94 306 c 128,-1,0
 50 262 50 262 50 200 c 128,-1,1
EndSplineSet
EndChar

StartChar: uni000C
Encoding: 12 12 14
Width: 400
Flags: W
LayerCount: 2
Fore
SplineSet
50 200 m 128,-1,1
 50 138 50 138 94 94 c 128,-1,2
 138 50 138 50 200 50 c 128,-1,3
 262 50 262 50 306 94 c 128,-1,4
 350 138 350 138 350 200 c 128,-1,5
 350 262 350 262 306 306 c 128,-1,6
 262 350 262 350 200 350 c 128,-1,7
 138 350 138 350 94 306 c 128,-1,0
 50 262 50 262 50 200 c 128,-1,1
EndSplineSet
EndChar

StartChar: uni000E
Encoding: 14 14 15
Width: 400
Flags: W
LayerCount: 2
Fore
SplineSet
50 200 m 128,-1,1
 50 138 50 138 94 94 c 128,-1,2
 138 50 138 50 200 50 c 128,-1,3
 262 50 262 50 306 94 c 128,-1,4
 350 138 350 138 350 200 c 128,-1,5
 350 262 350 262 306 306 c 128,-1,6
 262 350 262 350 200 350 c 128,-1,7
 138 350 138 350 94 306 c 128,-1,0
 50 262 50 262 50 200 c 128,-1,1
EndSplineSet
EndChar

StartChar: uni000F
Encoding: 15 15 16
Width: 400
Flags: W
LayerCount: 2
Fore
SplineSet
50 200 m 128,-1,1
 50 138 50 138 94 94 c 128,-1,2
 138 50 138 50 200 50 c 128,-1,3
 262 50 262 50 306 94 c 128,-1,4
 350 138 350 138 350 200 c 128,-1,5
 350 262 350 262 306 306 c 128,-1,6
 262 350 262 350 200 350 c 128,-1,7
 138 350 138 350 94 306 c 128,-1,0
 50 262 50 262 50 200 c 128,-1,1
EndSplineSet
EndChar

StartChar: uni0010
Encoding: 16 16 17
Width: 400
Flags: W
LayerCount: 2
Fore
SplineSet
50 200 m 128,-1,1
 50 138 50 138 94 94 c 128,-1,2
 138 50 138 50 200 50 c 128,-1,3
 262 50 262 50 306 94 c 128,-1,4
 350 138 350 138 350 200 c 128,-1,5
 350 262 350 262 306 306 c 128,-1,6
 262 350 262 350 200 350 c 128,-1,7
 138 350 138 350 94 306 c 128,-1,0
 50 262 50 262 50 200 c 128,-1,1
EndSplineSet
EndChar

StartChar: uni0011
Encoding: 17 17 18
Width: 400
Flags: W
LayerCount: 2
Fore
SplineSet
50 200 m 128,-1,1
 50 138 50 138 94 94 c 128,-1,2
 138 50 138 50 200 50 c 128,-1,3
 262 50 262 50 306 94 c 128,-1,4
 350 138 350 138 350 200 c 128,-1,5
 350 262 350 262 306 306 c 128,-1,6
 262 350 262 350 200 350 c 128,-1,7
 138 350 138 350 94 306 c 128,-1,0
 50 262 50 262 50 200 c 128,-1,1
EndSplineSet
EndChar

StartChar: uni0012
Encoding: 18 18 19
Width: 400
Flags: W
LayerCount: 2
Fore
SplineSet
50 200 m 128,-1,1
 50 138 50 138 94 94 c 128,-1,2
 138 50 138 50 200 50 c 128,-1,3
 262 50 262 50 306 94 c 128,-1,4
 350 138 350 138 350 200 c 128,-1,5
 350 262 350 262 306 306 c 128,-1,6
 262 350 262 350 200 350 c 128,-1,7
 138 350 138 350 94 306 c 128,-1,0
 50 262 50 262 50 200 c 128,-1,1
EndSplineSet
EndChar

StartChar: uni0013
Encoding: 19 19 20
Width: 400
Flags: W
LayerCount: 2
Fore
SplineSet
50 200 m 128,-1,1
 50 138 50 138 94 94 c 128,-1,2
 138 50 138 50 200 50 c 128,-1,3
 262 50 262 50 306 94 c 128,-1,4
 350 138 350 138 350 200 c 128,-1,5
 350 262 350 262 306 306 c 128,-1,6
 262 350 262 350 200 350 c 128,-1,7
 138 350 138 350 94 306 c 128,-1,0
 50 262 50 262 50 200 c 128,-1,1
EndSplineSet
EndChar

StartChar: uni0014
Encoding: 20 20 21
Width: 400
Flags: W
LayerCount: 2
Fore
SplineSet
50 200 m 128,-1,1
 50 138 50 138 94 94 c 128,-1,2
 138 50 138 50 200 50 c 128,-1,3
 262 50 262 50 306 94 c 128,-1,4
 350 138 350 138 350 200 c 128,-1,5
 350 262 350 262 306 306 c 128,-1,6
 262 350 262 350 200 350 c 128,-1,7
 138 350 138 350 94 306 c 128,-1,0
 50 262 50 262 50 200 c 128,-1,1
EndSplineSet
EndChar

StartChar: uni0015
Encoding: 21 21 22
Width: 400
Flags: W
LayerCount: 2
Fore
SplineSet
50 200 m 128,-1,1
 50 138 50 138 94 94 c 128,-1,2
 138 50 138 50 200 50 c 128,-1,3
 262 50 262 50 306 94 c 128,-1,4
 350 138 350 138 350 200 c 128,-1,5
 350 262 350 262 306 306 c 128,-1,6
 262 350 262 350 200 350 c 128,-1,7
 138 350 138 350 94 306 c 128,-1,0
 50 262 50 262 50 200 c 128,-1,1
EndSplineSet
EndChar

StartChar: uni0016
Encoding: 22 22 23
Width: 400
Flags: W
LayerCount: 2
Fore
SplineSet
50 200 m 128,-1,1
 50 138 50 138 94 94 c 128,-1,2
 138 50 138 50 200 50 c 128,-1,3
 262 50 262 50 306 94 c 128,-1,4
 350 138 350 138 350 200 c 128,-1,5
 350 262 350 262 306 306 c 128,-1,6
 262 350 262 350 200 350 c 128,-1,7
 138 350 138 350 94 306 c 128,-1,0
 50 262 50 262 50 200 c 128,-1,1
EndSplineSet
EndChar

StartChar: uni0017
Encoding: 23 23 24
Width: 400
Flags: W
LayerCount: 2
Fore
SplineSet
50 200 m 128,-1,1
 50 138 50 138 94 94 c 128,-1,2
 138 50 138 50 200 50 c 128,-1,3
 262 50 262 50 306 94 c 128,-1,4
 350 138 350 138 350 200 c 128,-1,5
 350 262 350 262 306 306 c 128,-1,6
 262 350 262 350 200 350 c 128,-1,7
 138 350 138 350 94 306 c 128,-1,0
 50 262 50 262 50 200 c 128,-1,1
EndSplineSet
EndChar

StartChar: uni0018
Encoding: 24 24 25
Width: 400
Flags: W
LayerCount: 2
Fore
SplineSet
50 200 m 128,-1,1
 50 138 50 138 94 94 c 128,-1,2
 138 50 138 50 200 50 c 128,-1,3
 262 50 262 50 306 94 c 128,-1,4
 350 138 350 138 350 200 c 128,-1,5
 350 262 350 262 306 306 c 128,-1,6
 262 350 262 350 200 350 c 128,-1,7
 138 350 138 350 94 306 c 128,-1,0
 50 262 50 262 50 200 c 128,-1,1
EndSplineSet
EndChar

StartChar: uni0019
Encoding: 25 25 26
Width: 400
Flags: W
LayerCount: 2
Fore
SplineSet
50 200 m 128,-1,1
 50 138 50 138 94 94 c 128,-1,2
 138 50 138 50 200 50 c 128,-1,3
 262 50 262 50 306 94 c 128,-1,4
 350 138 350 138 350 200 c 128,-1,5
 350 262 350 262 306 306 c 128,-1,6
 262 350 262 350 200 350 c 128,-1,7
 138 350 138 350 94 306 c 128,-1,0
 50 262 50 262 50 200 c 128,-1,1
EndSplineSet
EndChar

StartChar: uni001A
Encoding: 26 26 27
Width: 400
Flags: W
LayerCount: 2
Fore
SplineSet
50 200 m 128,-1,1
 50 138 50 138 94 94 c 128,-1,2
 138 50 138 50 200 50 c 128,-1,3
 262 50 262 50 306 94 c 128,-1,4
 350 138 350 138 350 200 c 128,-1,5
 350 262 350 262 306 306 c 128,-1,6
 262 350 262 350 200 350 c 128,-1,7
 138 350 138 350 94 306 c 128,-1,0
 50 262 50 262 50 200 c 128,-1,1
EndSplineSet
EndChar

StartChar: uni001B
Encoding: 27 27 28
Width: 400
Flags: W
LayerCount: 2
Fore
SplineSet
50 200 m 128,-1,1
 50 138 50 138 94 94 c 128,-1,2
 138 50 138 50 200 50 c 128,-1,3
 262 50 262 50 306 94 c 128,-1,4
 350 138 350 138 350 200 c 128,-1,5
 350 262 350 262 306 306 c 128,-1,6
 262 350 262 350 200 350 c 128,-1,7
 138 350 138 350 94 306 c 128,-1,0
 50 262 50 262 50 200 c 128,-1,1
EndSplineSet
EndChar

StartChar: uni001C
Encoding: 28 28 29
Width: 400
Flags: W
LayerCount: 2
Fore
SplineSet
50 200 m 128,-1,1
 50 138 50 138 94 94 c 128,-1,2
 138 50 138 50 200 50 c 128,-1,3
 262 50 262 50 306 94 c 128,-1,4
 350 138 350 138 350 200 c 128,-1,5
 350 262 350 262 306 306 c 128,-1,6
 262 350 262 350 200 350 c 128,-1,7
 138 350 138 350 94 306 c 128,-1,0
 50 262 50 262 50 200 c 128,-1,1
EndSplineSet
EndChar

StartChar: uni001D
Encoding: 29 29 30
Width: 400
Flags: W
LayerCount: 2
Fore
SplineSet
50 200 m 128,-1,1
 50 138 50 138 94 94 c 128,-1,2
 138 50 138 50 200 50 c 128,-1,3
 262 50 262 50 306 94 c 128,-1,4
 350 138 350 138 350 200 c 128,-1,5
 350 262 350 262 306 306 c 128,-1,6
 262 350 262 350 200 350 c 128,-1,7
 138 350 138 350 94 306 c 128,-1,0
 50 262 50 262 50 200 c 128,-1,1
EndSplineSet
EndChar

StartChar: uni001E
Encoding: 30 30 31
Width: 400
Flags: W
LayerCount: 2
Fore
SplineSet
50 200 m 128,-1,1
 50 138 50 138 94 94 c 128,-1,2
 138 50 138 50 200 50 c 128,-1,3
 262 50 262 50 306 94 c 128,-1,4
 350 138 350 138 350 200 c 128,-1,5
 350 262 350 262 306 306 c 128,-1,6
 262 350 262 350 200 350 c 128,-1,7
 138 350 138 350 94 306 c 128,-1,0
 50 262 50 262 50 200 c 128,-1,1
EndSplineSet
EndChar

StartChar: uni001F
Encoding: 31 31 32
Width: 400
Flags: W
LayerCount: 2
Fore
SplineSet
50 200 m 128,-1,1
 50 138 50 138 94 94 c 128,-1,2
 138 50 138 50 200 50 c 128,-1,3
 262 50 262 50 306 94 c 128,-1,4
 350 138 350 138 350 200 c 128,-1,5
 350 262 350 262 306 306 c 128,-1,6
 262 350 262 350 200 350 c 128,-1,7
 138 350 138 350 94 306 c 128,-1,0
 50 262 50 262 50 200 c 128,-1,1
EndSplineSet
EndChar

StartChar: space
Encoding: 32 32 33
Width: 400
Flags: W
LayerCount: 2
Fore
SplineSet
50 200 m 128,-1,1
 50 138 50 138 94 94 c 128,-1,2
 138 50 138 50 200 50 c 128,-1,3
 262 50 262 50 306 94 c 128,-1,4
 350 138 350 138 350 200 c 128,-1,5
 350 262 350 262 306 306 c 128,-1,6
 262 350 262 350 200 350 c 128,-1,7
 138 350 138 350 94 306 c 128,-1,0
 50 262 50 262 50 200 c 128,-1,1
EndSplineSet
EndChar

StartChar: exclam
Encoding: 33 33 34
Width: 400
Flags: W
LayerCount: 2
Fore
SplineSet
50 200 m 128,-1,1
 50 138 50 138 94 94 c 128,-1,2
 138 50 138 50 200 50 c 128,-1,3
 262 50 262 50 306 94 c 128,-1,4
 350 138 350 138 350 200 c 128,-1,5
 350 262 350 262 306 306 c 128,-1,6
 262 350 262 350 200 350 c 128,-1,7
 138 350 138 350 94 306 c 128,-1,0
 50 262 50 262 50 200 c 128,-1,1
EndSplineSet
EndChar

StartChar: quotedbl
Encoding: 34 34 35
Width: 400
Flags: W
LayerCount: 2
Fore
SplineSet
50 200 m 128,-1,1
 50 138 50 138 94 94 c 128,-1,2
 138 50 138 50 200 50 c 128,-1,3
 262 50 262 50 306 94 c 128,-1,4
 350 138 350 138 350 200 c 128,-1,5
 350 262 350 262 306 306 c 128,-1,6
 262 350 262 350 200 350 c 128,-1,7
 138 350 138 350 94 306 c 128,-1,0
 50 262 50 262 50 200 c 128,-1,1
EndSplineSet
EndChar

StartChar: numbersign
Encoding: 35 35 36
Width: 400
Flags: W
LayerCount: 2
Fore
SplineSet
50 200 m 128,-1,1
 50 138 50 138 94 94 c 128,-1,2
 138 50 138 50 200 50 c 128,-1,3
 262 50 262 50 306 94 c 128,-1,4
 350 138 350 138 350 200 c 128,-1,5
 350 262 350 262 306 306 c 128,-1,6
 262 350 262 350 200 350 c 128,-1,7
 138 350 138 350 94 306 c 128,-1,0
 50 262 50 262 50 200 c 128,-1,1
EndSplineSet
EndChar

StartChar: dollar
Encoding: 36 36 37
Width: 400
Flags: W
LayerCount: 2
Fore
SplineSet
50 200 m 128,-1,1
 50 138 50 138 94 94 c 128,-1,2
 138 50 138 50 200 50 c 128,-1,3
 262 50 262 50 306 94 c 128,-1,4
 350 138 350 138 350 200 c 128,-1,5
 350 262 350 262 306 306 c 128,-1,6
 262 350 262 350 200 350 c 128,-1,7
 138 350 138 350 94 306 c 128,-1,0
 50 262 50 262 50 200 c 128,-1,1
EndSplineSet
EndChar

StartChar: percent
Encoding: 37 37 38
Width: 400
Flags: W
LayerCount: 2
Fore
SplineSet
50 200 m 128,-1,1
 50 138 50 138 94 94 c 128,-1,2
 138 50 138 50 200 50 c 128,-1,3
 262 50 262 50 306 94 c 128,-1,4
 350 138 350 138 350 200 c 128,-1,5
 350 262 350 262 306 306 c 128,-1,6
 262 350 262 350 200 350 c 128,-1,7
 138 350 138 350 94 306 c 128,-1,0
 50 262 50 262 50 200 c 128,-1,1
EndSplineSet
EndChar

StartChar: ampersand
Encoding: 38 38 39
Width: 400
Flags: W
LayerCount: 2
Fore
SplineSet
50 200 m 128,-1,1
 50 138 50 138 94 94 c 128,-1,2
 138 50 138 50 200 50 c 128,-1,3
 262 50 262 50 306 94 c 128,-1,4
 350 138 350 138 350 200 c 128,-1,5
 350 262 350 262 306 306 c 128,-1,6
 262 350 262 350 200 350 c 128,-1,7
 138 350 138 350 94 306 c 128,-1,0
 50 262 50 262 50 200 c 128,-1,1
EndSplineSet
EndChar

StartChar: quotesingle
Encoding: 39 39 40
Width: 400
Flags: W
LayerCount: 2
Fore
SplineSet
50 200 m 128,-1,1
 50 138 50 138 94 94 c 128,-1,2
 138 50 138 50 200 50 c 128,-1,3
 262 50 262 50 306 94 c 128,-1,4
 350 138 350 138 350 200 c 128,-1,5
 350 262 350 262 306 306 c 128,-1,6
 262 350 262 350 200 350 c 128,-1,7
 138 350 138 350 94 306 c 128,-1,0
 50 262 50 262 50 200 c 128,-1,1
EndSplineSet
EndChar

StartChar: parenleft
Encoding: 40 40 41
Width: 400
Flags: W
LayerCount: 2
Fore
SplineSet
50 200 m 128,-1,1
 50 138 50 138 94 94 c 128,-1,2
 138 50 138 50 200 50 c 128,-1,3
 262 50 262 50 306 94 c 128,-1,4
 350 138 350 138 350 200 c 128,-1,5
 350 262 350 262 306 306 c 128,-1,6
 262 350 262 350 200 350 c 128,-1,7
 138 350 138 350 94 306 c 128,-1,0
 50 262 50 262 50 200 c 128,-1,1
EndSplineSet
EndChar

StartChar: parenright
Encoding: 41 41 42
Width: 400
Flags: W
LayerCount: 2
Fore
SplineSet
50 200 m 128,-1,1
 50 138 50 138 94 94 c 128,-1,2
 138 50 138 50 200 50 c 128,-1,3
 262 50 262 50 306 94 c 128,-1,4
 350 138 350 138 350 200 c 128,-1,5
 350 262 350 262 306 306 c 128,-1,6
 262 350 262 350 200 350 c 128,-1,7
 138 350 138 350 94 306 c 128,-1,0
 50 262 50 262 50 200 c 128,-1,1
EndSplineSet
EndChar

StartChar: asterisk
Encoding: 42 42 43
Width: 400
Flags: W
LayerCount: 2
Fore
SplineSet
50 200 m 128,-1,1
 50 138 50 138 94 94 c 128,-1,2
 138 50 138 50 200 50 c 128,-1,3
 262 50 262 50 306 94 c 128,-1,4
 350 138 350 138 350 200 c 128,-1,5
 350 262 350 262 306 306 c 128,-1,6
 262 350 262 350 200 350 c 128,-1,7
 138 350 138 350 94 306 c 128,-1,0
 50 262 50 262 50 200 c 128,-1,1
EndSplineSet
EndChar

StartChar: plus
Encoding: 43 43 44
Width: 400
Flags: W
LayerCount: 2
Fore
SplineSet
50 200 m 128,-1,1
 50 138 50 138 94 94 c 128,-1,2
 138 50 138 50 200 50 c 128,-1,3
 262 50 262 50 306 94 c 128,-1,4
 350 138 350 138 350 200 c 128,-1,5
 350 262 350 262 306 306 c 128,-1,6
 262 350 262 350 200 350 c 128,-1,7
 138 350 138 350 94 306 c 128,-1,0
 50 262 50 262 50 200 c 128,-1,1
EndSplineSet
EndChar

StartChar: comma
Encoding: 44 44 45
Width: 400
Flags: W
LayerCount: 2
Fore
SplineSet
50 200 m 128,-1,1
 50 138 50 138 94 94 c 128,-1,2
 138 50 138 50 200 50 c 128,-1,3
 262 50 262 50 306 94 c 128,-1,4
 350 138 350 138 350 200 c 128,-1,5
 350 262 350 262 306 306 c 128,-1,6
 262 350 262 350 200 350 c 128,-1,7
 138 350 138 350 94 306 c 128,-1,0
 50 262 50 262 50 200 c 128,-1,1
EndSplineSet
EndChar

StartChar: hyphen
Encoding: 45 45 46
Width: 400
Flags: W
LayerCount: 2
Fore
SplineSet
50 200 m 128,-1,1
 50 138 50 138 94 94 c 128,-1,2
 138 50 138 50 200 50 c 128,-1,3
 262 50 262 50 306 94 c 128,-1,4
 350 138 350 138 350 200 c 128,-1,5
 350 262 350 262 306 306 c 128,-1,6
 262 350 262 350 200 350 c 128,-1,7
 138 350 138 350 94 306 c 128,-1,0
 50 262 50 262 50 200 c 128,-1,1
EndSplineSet
EndChar

StartChar: period
Encoding: 46 46 47
Width: 400
Flags: W
LayerCount: 2
Fore
SplineSet
50 200 m 128,-1,1
 50 138 50 138 94 94 c 128,-1,2
 138 50 138 50 200 50 c 128,-1,3
 262 50 262 50 306 94 c 128,-1,4
 350 138 350 138 350 200 c 128,-1,5
 350 262 350 262 306 306 c 128,-1,6
 262 350 262 350 200 350 c 128,-1,7
 138 350 138 350 94 306 c 128,-1,0
 50 262 50 262 50 200 c 128,-1,1
EndSplineSet
EndChar

StartChar: slash
Encoding: 47 47 48
Width: 400
Flags: W
LayerCount: 2
Fore
SplineSet
50 200 m 128,-1,1
 50 138 50 138 94 94 c 128,-1,2
 138 50 138 50 200 50 c 128,-1,3
 262 50 262 50 306 94 c 128,-1,4
 350 138 350 138 350 200 c 128,-1,5
 350 262 350 262 306 306 c 128,-1,6
 262 350 262 350 200 350 c 128,-1,7
 138 350 138 350 94 306 c 128,-1,0
 50 262 50 262 50 200 c 128,-1,1
EndSplineSet
EndChar

StartChar: zero
Encoding: 48 48 49
Width: 400
Flags: W
LayerCount: 2
Fore
SplineSet
50 200 m 128,-1,1
 50 138 50 138 94 94 c 128,-1,2
 138 50 138 50 200 50 c 128,-1,3
 262 50 262 50 306 94 c 128,-1,4
 350 138 350 138 350 200 c 128,-1,5
 350 262 350 262 306 306 c 128,-1,6
 262 350 262 350 200 350 c 128,-1,7
 138 350 138 350 94 306 c 128,-1,0
 50 262 50 262 50 200 c 128,-1,1
EndSplineSet
EndChar

StartChar: one
Encoding: 49 49 50
Width: 400
Flags: W
LayerCount: 2
Fore
SplineSet
50 200 m 128,-1,1
 50 138 50 138 94 94 c 128,-1,2
 138 50 138 50 200 50 c 128,-1,3
 262 50 262 50 306 94 c 128,-1,4
 350 138 350 138 350 200 c 128,-1,5
 350 262 350 262 306 306 c 128,-1,6
 262 350 262 350 200 350 c 128,-1,7
 138 350 138 350 94 306 c 128,-1,0
 50 262 50 262 50 200 c 128,-1,1
EndSplineSet
EndChar

StartChar: two
Encoding: 50 50 51
Width: 400
Flags: W
LayerCount: 2
Fore
SplineSet
50 200 m 128,-1,1
 50 138 50 138 94 94 c 128,-1,2
 138 50 138 50 200 50 c 128,-1,3
 262 50 262 50 306 94 c 128,-1,4
 350 138 350 138 350 200 c 128,-1,5
 350 262 350 262 306 306 c 128,-1,6
 262 350 262 350 200 350 c 128,-1,7
 138 350 138 350 94 306 c 128,-1,0
 50 262 50 262 50 200 c 128,-1,1
EndSplineSet
EndChar

StartChar: three
Encoding: 51 51 52
Width: 400
Flags: W
LayerCount: 2
Fore
SplineSet
50 200 m 128,-1,1
 50 138 50 138 94 94 c 128,-1,2
 138 50 138 50 200 50 c 128,-1,3
 262 50 262 50 306 94 c 128,-1,4
 350 138 350 138 350 200 c 128,-1,5
 350 262 350 262 306 306 c 128,-1,6
 262 350 262 350 200 350 c 128,-1,7
 138 350 138 350 94 306 c 128,-1,0
 50 262 50 262 50 200 c 128,-1,1
EndSplineSet
EndChar

StartChar: four
Encoding: 52 52 53
Width: 400
Flags: W
LayerCount: 2
Fore
SplineSet
50 200 m 128,-1,1
 50 138 50 138 94 94 c 128,-1,2
 138 50 138 50 200 50 c 128,-1,3
 262 50 262 50 306 94 c 128,-1,4
 350 138 350 138 350 200 c 128,-1,5
 350 262 350 262 306 306 c 128,-1,6
 262 350 262 350 200 350 c 128,-1,7
 138 350 138 350 94 306 c 128,-1,0
 50 262 50 262 50 200 c 128,-1,1
EndSplineSet
EndChar

StartChar: five
Encoding: 53 53 54
Width: 400
Flags: W
LayerCount: 2
Fore
SplineSet
50 200 m 128,-1,1
 50 138 50 138 94 94 c 128,-1,2
 138 50 138 50 200 50 c 128,-1,3
 262 50 262 50 306 94 c 128,-1,4
 350 138 350 138 350 200 c 128,-1,5
 350 262 350 262 306 306 c 128,-1,6
 262 350 262 350 200 350 c 128,-1,7
 138 350 138 350 94 306 c 128,-1,0
 50 262 50 262 50 200 c 128,-1,1
EndSplineSet
EndChar

StartChar: six
Encoding: 54 54 55
Width: 400
Flags: W
LayerCount: 2
Fore
SplineSet
50 200 m 128,-1,1
 50 138 50 138 94 94 c 128,-1,2
 138 50 138 50 200 50 c 128,-1,3
 262 50 262 50 306 94 c 128,-1,4
 350 138 350 138 350 200 c 128,-1,5
 350 262 350 262 306 306 c 128,-1,6
 262 350 262 350 200 350 c 128,-1,7
 138 350 138 350 94 306 c 128,-1,0
 50 262 50 262 50 200 c 128,-1,1
EndSplineSet
EndChar

StartChar: seven
Encoding: 55 55 56
Width: 400
Flags: W
LayerCount: 2
Fore
SplineSet
50 200 m 128,-1,1
 50 138 50 138 94 94 c 128,-1,2
 138 50 138 50 200 50 c 128,-1,3
 262 50 262 50 306 94 c 128,-1,4
 350 138 350 138 350 200 c 128,-1,5
 350 262 350 262 306 306 c 128,-1,6
 262 350 262 350 200 350 c 128,-1,7
 138 350 138 350 94 306 c 128,-1,0
 50 262 50 262 50 200 c 128,-1,1
EndSplineSet
EndChar

StartChar: eight
Encoding: 56 56 57
Width: 400
Flags: W
LayerCount: 2
Fore
SplineSet
50 200 m 128,-1,1
 50 138 50 138 94 94 c 128,-1,2
 138 50 138 50 200 50 c 128,-1,3
 262 50 262 50 306 94 c 128,-1,4
 350 138 350 138 350 200 c 128,-1,5
 350 262 350 262 306 306 c 128,-1,6
 262 350 262 350 200 350 c 128,-1,7
 138 350 138 350 94 306 c 128,-1,0
 50 262 50 262 50 200 c 128,-1,1
EndSplineSet
EndChar

StartChar: nine
Encoding: 57 57 58
Width: 400
Flags: W
LayerCount: 2
Fore
SplineSet
50 200 m 128,-1,1
 50 138 50 138 94 94 c 128,-1,2
 138 50 138 50 200 50 c 128,-1,3
 262 50 262 50 306 94 c 128,-1,4
 350 138 350 138 350 200 c 128,-1,5
 350 262 350 262 306 306 c 128,-1,6
 262 350 262 350 200 350 c 128,-1,7
 138 350 138 350 94 306 c 128,-1,0
 50 262 50 262 50 200 c 128,-1,1
EndSplineSet
EndChar

StartChar: colon
Encoding: 58 58 59
Width: 400
Flags: W
LayerCount: 2
Fore
SplineSet
50 200 m 128,-1,1
 50 138 50 138 94 94 c 128,-1,2
 138 50 138 50 200 50 c 128,-1,3
 262 50 262 50 306 94 c 128,-1,4
 350 138 350 138 350 200 c 128,-1,5
 350 262 350 262 306 306 c 128,-1,6
 262 350 262 350 200 350 c 128,-1,7
 138 350 138 350 94 306 c 128,-1,0
 50 262 50 262 50 200 c 128,-1,1
EndSplineSet
EndChar

StartChar: semicolon
Encoding: 59 59 60
Width: 400
Flags: W
LayerCount: 2
Fore
SplineSet
50 200 m 128,-1,1
 50 138 50 138 94 94 c 128,-1,2
 138 50 138 50 200 50 c 128,-1,3
 262 50 262 50 306 94 c 128,-1,4
 350 138 350 138 350 200 c 128,-1,5
 350 262 350 262 306 306 c 128,-1,6
 262 350 262 350 200 350 c 128,-1,7
 138 350 138 350 94 306 c 128,-1,0
 50 262 50 262 50 200 c 128,-1,1
EndSplineSet
EndChar

StartChar: less
Encoding: 60 60 61
Width: 400
Flags: W
LayerCount: 2
Fore
SplineSet
50 200 m 128,-1,1
 50 138 50 138 94 94 c 128,-1,2
 138 50 138 50 200 50 c 128,-1,3
 262 50 262 50 306 94 c 128,-1,4
 350 138 350 138 350 200 c 128,-1,5
 350 262 350 262 306 306 c 128,-1,6
 262 350 262 350 200 350 c 128,-1,7
 138 350 138 350 94 306 c 128,-1,0
 50 262 50 262 50 200 c 128,-1,1
EndSplineSet
EndChar

StartChar: equal
Encoding: 61 61 62
Width: 400
Flags: W
LayerCount: 2
Fore
SplineSet
50 200 m 128,-1,1
 50 138 50 138 94 94 c 128,-1,2
 138 50 138 50 200 50 c 128,-1,3
 262 50 262 50 306 94 c 128,-1,4
 350 138 350 138 350 200 c 128,-1,5
 350 262 350 262 306 306 c 128,-1,6
 262 350 262 350 200 350 c 128,-1,7
 138 350 138 350 94 306 c 128,-1,0
 50 262 50 262 50 200 c 128,-1,1
EndSplineSet
EndChar

StartChar: greater
Encoding: 62 62 63
Width: 400
Flags: W
LayerCount: 2
Fore
SplineSet
50 200 m 128,-1,1
 50 138 50 138 94 94 c 128,-1,2
 138 50 138 50 200 50 c 128,-1,3
 262 50 262 50 306 94 c 128,-1,4
 350 138 350 138 350 200 c 128,-1,5
 350 262 350 262 306 306 c 128,-1,6
 262 350 262 350 200 350 c 128,-1,7
 138 350 138 350 94 306 c 128,-1,0
 50 262 50 262 50 200 c 128,-1,1
EndSplineSet
EndChar

StartChar: question
Encoding: 63 63 64
Width: 400
Flags: W
LayerCount: 2
Fore
SplineSet
50 200 m 128,-1,1
 50 138 50 138 94 94 c 128,-1,2
 138 50 138 50 200 50 c 128,-1,3
 262 50 262 50 306 94 c 128,-1,4
 350 138 350 138 350 200 c 128,-1,5
 350 262 350 262 306 306 c 128,-1,6
 262 350 262 350 200 350 c 128,-1,7
 138 350 138 350 94 306 c 128,-1,0
 50 262 50 262 50 200 c 128,-1,1
EndSplineSet
EndChar

StartChar: at
Encoding: 64 64 65
Width: 400
Flags: W
LayerCount: 2
Fore
SplineSet
50 200 m 128,-1,1
 50 138 50 138 94 94 c 128,-1,2
 138 50 138 50 200 50 c 128,-1,3
 262 50 262 50 306 94 c 128,-1,4
 350 138 350 138 350 200 c 128,-1,5
 350 262 350 262 306 306 c 128,-1,6
 262 350 262 350 200 350 c 128,-1,7
 138 350 138 350 94 306 c 128,-1,0
 50 262 50 262 50 200 c 128,-1,1
EndSplineSet
EndChar

StartChar: A
Encoding: 65 65 66
Width: 400
Flags: W
LayerCount: 2
Fore
SplineSet
50 200 m 128,-1,1
 50 138 50 138 94 94 c 128,-1,2
 138 50 138 50 200 50 c 128,-1,3
 262 50 262 50 306 94 c 128,-1,4
 350 138 350 138 350 200 c 128,-1,5
 350 262 350 262 306 306 c 128,-1,6
 262 350 262 350 200 350 c 128,-1,7
 138 350 138 350 94 306 c 128,-1,0
 50 262 50 262 50 200 c 128,-1,1
EndSplineSet
EndChar

StartChar: B
Encoding: 66 66 67
Width: 400
Flags: W
LayerCount: 2
Fore
SplineSet
50 200 m 128,-1,1
 50 138 50 138 94 94 c 128,-1,2
 138 50 138 50 200 50 c 128,-1,3
 262 50 262 50 306 94 c 128,-1,4
 350 138 350 138 350 200 c 128,-1,5
 350 262 350 262 306 306 c 128,-1,6
 262 350 262 350 200 350 c 128,-1,7
 138 350 138 350 94 306 c 128,-1,0
 50 262 50 262 50 200 c 128,-1,1
EndSplineSet
EndChar

StartChar: C
Encoding: 67 67 68
Width: 400
Flags: W
LayerCount: 2
Fore
SplineSet
50 200 m 128,-1,1
 50 138 50 138 94 94 c 128,-1,2
 138 50 138 50 200 50 c 128,-1,3
 262 50 262 50 306 94 c 128,-1,4
 350 138 350 138 350 200 c 128,-1,5
 350 262 350 262 306 306 c 128,-1,6
 262 350 262 350 200 350 c 128,-1,7
 138 350 138 350 94 306 c 128,-1,0
 50 262 50 262 50 200 c 128,-1,1
EndSplineSet
EndChar

StartChar: D
Encoding: 68 68 69
Width: 400
Flags: W
LayerCount: 2
Fore
SplineSet
50 200 m 128,-1,1
 50 138 50 138 94 94 c 128,-1,2
 138 50 138 50 200 50 c 128,-1,3
 262 50 262 50 306 94 c 128,-1,4
 350 138 350 138 350 200 c 128,-1,5
 350 262 350 262 306 306 c 128,-1,6
 262 350 262 350 200 350 c 128,-1,7
 138 350 138 350 94 306 c 128,-1,0
 50 262 50 262 50 200 c 128,-1,1
EndSplineSet
EndChar

StartChar: E
Encoding: 69 69 70
Width: 400
Flags: W
LayerCount: 2
Fore
SplineSet
50 200 m 128,-1,1
 50 138 50 138 94 94 c 128,-1,2
 138 50 138 50 200 50 c 128,-1,3
 262 50 262 50 306 94 c 128,-1,4
 350 138 350 138 350 200 c 128,-1,5
 350 262 350 262 306 306 c 128,-1,6
 262 350 262 350 200 350 c 128,-1,7
 138 350 138 350 94 306 c 128,-1,0
 50 262 50 262 50 200 c 128,-1,1
EndSplineSet
EndChar

StartChar: F
Encoding: 70 70 71
Width: 400
Flags: W
LayerCount: 2
Fore
SplineSet
50 200 m 128,-1,1
 50 138 50 138 94 94 c 128,-1,2
 138 50 138 50 200 50 c 128,-1,3
 262 50 262 50 306 94 c 128,-1,4
 350 138 350 138 350 200 c 128,-1,5
 350 262 350 262 306 306 c 128,-1,6
 262 350 262 350 200 350 c 128,-1,7
 138 350 138 350 94 306 c 128,-1,0
 50 262 50 262 50 200 c 128,-1,1
EndSplineSet
EndChar

StartChar: G
Encoding: 71 71 72
Width: 400
Flags: W
LayerCount: 2
Fore
SplineSet
50 200 m 128,-1,1
 50 138 50 138 94 94 c 128,-1,2
 138 50 138 50 200 50 c 128,-1,3
 262 50 262 50 306 94 c 128,-1,4
 350 138 350 138 350 200 c 128,-1,5
 350 262 350 262 306 306 c 128,-1,6
 262 350 262 350 200 350 c 128,-1,7
 138 350 138 350 94 306 c 128,-1,0
 50 262 50 262 50 200 c 128,-1,1
EndSplineSet
EndChar

StartChar: H
Encoding: 72 72 73
Width: 400
Flags: W
LayerCount: 2
Fore
SplineSet
50 200 m 128,-1,1
 50 138 50 138 94 94 c 128,-1,2
 138 50 138 50 200 50 c 128,-1,3
 262 50 262 50 306 94 c 128,-1,4
 350 138 350 138 350 200 c 128,-1,5
 350 262 350 262 306 306 c 128,-1,6
 262 350 262 350 200 350 c 128,-1,7
 138 350 138 350 94 306 c 128,-1,0
 50 262 50 262 50 200 c 128,-1,1
EndSplineSet
EndChar

StartChar: I
Encoding: 73 73 74
Width: 400
Flags: W
LayerCount: 2
Fore
SplineSet
50 200 m 128,-1,1
 50 138 50 138 94 94 c 128,-1,2
 138 50 138 50 200 50 c 128,-1,3
 262 50 262 50 306 94 c 128,-1,4
 350 138 350 138 350 200 c 128,-1,5
 350 262 350 262 306 306 c 128,-1,6
 262 350 262 350 200 350 c 128,-1,7
 138 350 138 350 94 306 c 128,-1,0
 50 262 50 262 50 200 c 128,-1,1
EndSplineSet
EndChar

StartChar: J
Encoding: 74 74 75
Width: 400
Flags: W
LayerCount: 2
Fore
SplineSet
50 200 m 128,-1,1
 50 138 50 138 94 94 c 128,-1,2
 138 50 138 50 200 50 c 128,-1,3
 262 50 262 50 306 94 c 128,-1,4
 350 138 350 138 350 200 c 128,-1,5
 350 262 350 262 306 306 c 128,-1,6
 262 350 262 350 200 350 c 128,-1,7
 138 350 138 350 94 306 c 128,-1,0
 50 262 50 262 50 200 c 128,-1,1
EndSplineSet
EndChar

StartChar: K
Encoding: 75 75 76
Width: 400
Flags: W
LayerCount: 2
Fore
SplineSet
50 200 m 128,-1,1
 50 138 50 138 94 94 c 128,-1,2
 138 50 138 50 200 50 c 128,-1,3
 262 50 262 50 306 94 c 128,-1,4
 350 138 350 138 350 200 c 128,-1,5
 350 262 350 262 306 306 c 128,-1,6
 262 350 262 350 200 350 c 128,-1,7
 138 350 138 350 94 306 c 128,-1,0
 50 262 50 262 50 200 c 128,-1,1
EndSplineSet
EndChar

StartChar: L
Encoding: 76 76 77
Width: 400
Flags: W
LayerCount: 2
Fore
SplineSet
50 200 m 128,-1,1
 50 138 50 138 94 94 c 128,-1,2
 138 50 138 50 200 50 c 128,-1,3
 262 50 262 50 306 94 c 128,-1,4
 350 138 350 138 350 200 c 128,-1,5
 350 262 350 262 306 306 c 128,-1,6
 262 350 262 350 200 350 c 128,-1,7
 138 350 138 350 94 306 c 128,-1,0
 50 262 50 262 50 200 c 128,-1,1
EndSplineSet
EndChar

StartChar: M
Encoding: 77 77 78
Width: 400
Flags: W
LayerCount: 2
Fore
SplineSet
50 200 m 128,-1,1
 50 138 50 138 94 94 c 128,-1,2
 138 50 138 50 200 50 c 128,-1,3
 262 50 262 50 306 94 c 128,-1,4
 350 138 350 138 350 200 c 128,-1,5
 350 262 350 262 306 306 c 128,-1,6
 262 350 262 350 200 350 c 128,-1,7
 138 350 138 350 94 306 c 128,-1,0
 50 262 50 262 50 200 c 128,-1,1
EndSplineSet
EndChar

StartChar: N
Encoding: 78 78 79
Width: 400
Flags: W
LayerCount: 2
Fore
SplineSet
50 200 m 128,-1,1
 50 138 50 138 94 94 c 128,-1,2
 138 50 138 50 200 50 c 128,-1,3
 262 50 262 50 306 94 c 128,-1,4
 350 138 350 138 350 200 c 128,-1,5
 350 262 350 262 306 306 c 128,-1,6
 262 350 262 350 200 350 c 128,-1,7
 138 350 138 350 94 306 c 128,-1,0
 50 262 50 262 50 200 c 128,-1,1
EndSplineSet
EndChar

StartChar: O
Encoding: 79 79 80
Width: 400
Flags: W
LayerCount: 2
Fore
SplineSet
50 200 m 128,-1,1
 50 138 50 138 94 94 c 128,-1,2
 138 50 138 50 200 50 c 128,-1,3
 262 50 262 50 306 94 c 128,-1,4
 350 138 350 138 350 200 c 128,-1,5
 350 262 350 262 306 306 c 128,-1,6
 262 350 262 350 200 350 c 128,-1,7
 138 350 138 350 94 306 c 128,-1,0
 50 262 50 262 50 200 c 128,-1,1
EndSplineSet
EndChar

StartChar: P
Encoding: 80 80 81
Width: 400
Flags: W
LayerCount: 2
Fore
SplineSet
50 200 m 128,-1,1
 50 138 50 138 94 94 c 128,-1,2
 138 50 138 50 200 50 c 128,-1,3
 262 50 262 50 306 94 c 128,-1,4
 350 138 350 138 350 200 c 128,-1,5
 350 262 350 262 306 306 c 128,-1,6
 262 350 262 350 200 350 c 128,-1,7
 138 350 138 350 94 306 c 128,-1,0
 50 262 50 262 50 200 c 128,-1,1
EndSplineSet
EndChar

StartChar: Q
Encoding: 81 81 82
Width: 400
Flags: W
LayerCount: 2
Fore
SplineSet
50 200 m 128,-1,1
 50 138 50 138 94 94 c 128,-1,2
 138 50 138 50 200 50 c 128,-1,3
 262 50 262 50 306 94 c 128,-1,4
 350 138 350 138 350 200 c 128,-1,5
 350 262 350 262 306 306 c 128,-1,6
 262 350 262 350 200 350 c 128,-1,7
 138 350 138 350 94 306 c 128,-1,0
 50 262 50 262 50 200 c 128,-1,1
EndSplineSet
EndChar

StartChar: R
Encoding: 82 82 83
Width: 400
Flags: W
LayerCount: 2
Fore
SplineSet
50 200 m 128,-1,1
 50 138 50 138 94 94 c 128,-1,2
 138 50 138 50 200 50 c 128,-1,3
 262 50 262 50 306 94 c 128,-1,4
 350 138 350 138 350 200 c 128,-1,5
 350 262 350 262 306 306 c 128,-1,6
 262 350 262 350 200 350 c 128,-1,7
 138 350 138 350 94 306 c 128,-1,0
 50 262 50 262 50 200 c 128,-1,1
EndSplineSet
EndChar

StartChar: S
Encoding: 83 83 84
Width: 400
Flags: W
LayerCount: 2
Fore
SplineSet
50 200 m 128,-1,1
 50 138 50 138 94 94 c 128,-1,2
 138 50 138 50 200 50 c 128,-1,3
 262 50 262 50 306 94 c 128,-1,4
 350 138 350 138 350 200 c 128,-1,5
 350 262 350 262 306 306 c 128,-1,6
 262 350 262 350 200 350 c 128,-1,7
 138 350 138 350 94 306 c 128,-1,0
 50 262 50 262 50 200 c 128,-1,1
EndSplineSet
EndChar

StartChar: T
Encoding: 84 84 85
Width: 400
Flags: W
LayerCount: 2
Fore
SplineSet
50 200 m 128,-1,1
 50 138 50 138 94 94 c 128,-1,2
 138 50 138 50 200 50 c 128,-1,3
 262 50 262 50 306 94 c 128,-1,4
 350 138 350 138 350 200 c 128,-1,5
 350 262 350 262 306 306 c 128,-1,6
 262 350 262 350 200 350 c 128,-1,7
 138 350 138 350 94 306 c 128,-1,0
 50 262 50 262 50 200 c 128,-1,1
EndSplineSet
EndChar

StartChar: U
Encoding: 85 85 86
Width: 400
Flags: W
LayerCount: 2
Fore
SplineSet
50 200 m 128,-1,1
 50 138 50 138 94 94 c 128,-1,2
 138 50 138 50 200 50 c 128,-1,3
 262 50 262 50 306 94 c 128,-1,4
 350 138 350 138 350 200 c 128,-1,5
 350 262 350 262 306 306 c 128,-1,6
 262 350 262 350 200 350 c 128,-1,7
 138 350 138 350 94 306 c 128,-1,0
 50 262 50 262 50 200 c 128,-1,1
EndSplineSet
EndChar

StartChar: V
Encoding: 86 86 87
Width: 400
Flags: W
LayerCount: 2
Fore
SplineSet
50 200 m 128,-1,1
 50 138 50 138 94 94 c 128,-1,2
 138 50 138 50 200 50 c 128,-1,3
 262 50 262 50 306 94 c 128,-1,4
 350 138 350 138 350 200 c 128,-1,5
 350 262 350 262 306 306 c 128,-1,6
 262 350 262 350 200 350 c 128,-1,7
 138 350 138 350 94 306 c 128,-1,0
 50 262 50 262 50 200 c 128,-1,1
EndSplineSet
EndChar

StartChar: W
Encoding: 87 87 88
Width: 400
Flags: W
LayerCount: 2
Fore
SplineSet
50 200 m 128,-1,1
 50 138 50 138 94 94 c 128,-1,2
 138 50 138 50 200 50 c 128,-1,3
 262 50 262 50 306 94 c 128,-1,4
 350 138 350 138 350 200 c 128,-1,5
 350 262 350 262 306 306 c 128,-1,6
 262 350 262 350 200 350 c 128,-1,7
 138 350 138 350 94 306 c 128,-1,0
 50 262 50 262 50 200 c 128,-1,1
EndSplineSet
EndChar

StartChar: X
Encoding: 88 88 89
Width: 400
Flags: W
LayerCount: 2
Fore
SplineSet
50 200 m 128,-1,1
 50 138 50 138 94 94 c 128,-1,2
 138 50 138 50 200 50 c 128,-1,3
 262 50 262 50 306 94 c 128,-1,4
 350 138 350 138 350 200 c 128,-1,5
 350 262 350 262 306 306 c 128,-1,6
 262 350 262 350 200 350 c 128,-1,7
 138 350 138 350 94 306 c 128,-1,0
 50 262 50 262 50 200 c 128,-1,1
EndSplineSet
EndChar

StartChar: Y
Encoding: 89 89 90
Width: 400
Flags: W
LayerCount: 2
Fore
SplineSet
50 200 m 128,-1,1
 50 138 50 138 94 94 c 128,-1,2
 138 50 138 50 200 50 c 128,-1,3
 262 50 262 50 306 94 c 128,-1,4
 350 138 350 138 350 200 c 128,-1,5
 350 262 350 262 306 306 c 128,-1,6
 262 350 262 350 200 350 c 128,-1,7
 138 350 138 350 94 306 c 128,-1,0
 50 262 50 262 50 200 c 128,-1,1
EndSplineSet
EndChar

StartChar: Z
Encoding: 90 90 91
Width: 400
Flags: W
LayerCount: 2
Fore
SplineSet
50 200 m 128,-1,1
 50 138 50 138 94 94 c 128,-1,2
 138 50 138 50 200 50 c 128,-1,3
 262 50 262 50 306 94 c 128,-1,4
 350 138 350 138 350 200 c 128,-1,5
 350 262 350 262 306 306 c 128,-1,6
 262 350 262 350 200 350 c 128,-1,7
 138 350 138 350 94 306 c 128,-1,0
 50 262 50 262 50 200 c 128,-1,1
EndSplineSet
EndChar

StartChar: bracketleft
Encoding: 91 91 92
Width: 400
Flags: W
LayerCount: 2
Fore
SplineSet
50 200 m 128,-1,1
 50 138 50 138 94 94 c 128,-1,2
 138 50 138 50 200 50 c 128,-1,3
 262 50 262 50 306 94 c 128,-1,4
 350 138 350 138 350 200 c 128,-1,5
 350 262 350 262 306 306 c 128,-1,6
 262 350 262 350 200 350 c 128,-1,7
 138 350 138 350 94 306 c 128,-1,0
 50 262 50 262 50 200 c 128,-1,1
EndSplineSet
EndChar

StartChar: backslash
Encoding: 92 92 93
Width: 400
Flags: W
LayerCount: 2
Fore
SplineSet
50 200 m 128,-1,1
 50 138 50 138 94 94 c 128,-1,2
 138 50 138 50 200 50 c 128,-1,3
 262 50 262 50 306 94 c 128,-1,4
 350 138 350 138 350 200 c 128,-1,5
 350 262 350 262 306 306 c 128,-1,6
 262 350 262 350 200 350 c 128,-1,7
 138 350 138 350 94 306 c 128,-1,0
 50 262 50 262 50 200 c 128,-1,1
EndSplineSet
EndChar

StartChar: bracketright
Encoding: 93 93 94
Width: 400
Flags: W
LayerCount: 2
Fore
SplineSet
50 200 m 128,-1,1
 50 138 50 138 94 94 c 128,-1,2
 138 50 138 50 200 50 c 128,-1,3
 262 50 262 50 306 94 c 128,-1,4
 350 138 350 138 350 200 c 128,-1,5
 350 262 350 262 306 306 c 128,-1,6
 262 350 262 350 200 350 c 128,-1,7
 138 350 138 350 94 306 c 128,-1,0
 50 262 50 262 50 200 c 128,-1,1
EndSplineSet
EndChar

StartChar: asciicircum
Encoding: 94 94 95
Width: 400
Flags: W
LayerCount: 2
Fore
SplineSet
50 200 m 128,-1,1
 50 138 50 138 94 94 c 128,-1,2
 138 50 138 50 200 50 c 128,-1,3
 262 50 262 50 306 94 c 128,-1,4
 350 138 350 138 350 200 c 128,-1,5
 350 262 350 262 306 306 c 128,-1,6
 262 350 262 350 200 350 c 128,-1,7
 138 350 138 350 94 306 c 128,-1,0
 50 262 50 262 50 200 c 128,-1,1
EndSplineSet
EndChar

StartChar: underscore
Encoding: 95 95 96
Width: 400
Flags: W
LayerCount: 2
Fore
SplineSet
50 200 m 128,-1,1
 50 138 50 138 94 94 c 128,-1,2
 138 50 138 50 200 50 c 128,-1,3
 262 50 262 50 306 94 c 128,-1,4
 350 138 350 138 350 200 c 128,-1,5
 350 262 350 262 306 306 c 128,-1,6
 262 350 262 350 200 350 c 128,-1,7
 138 350 138 350 94 306 c 128,-1,0
 50 262 50 262 50 200 c 128,-1,1
EndSplineSet
EndChar

StartChar: grave
Encoding: 96 96 97
Width: 400
Flags: W
LayerCount: 2
Fore
SplineSet
50 200 m 128,-1,1
 50 138 50 138 94 94 c 128,-1,2
 138 50 138 50 200 50 c 128,-1,3
 262 50 262 50 306 94 c 128,-1,4
 350 138 350 138 350 200 c 128,-1,5
 350 262 350 262 306 306 c 128,-1,6
 262 350 262 350 200 350 c 128,-1,7
 138 350 138 350 94 306 c 128,-1,0
 50 262 50 262 50 200 c 128,-1,1
EndSplineSet
EndChar

StartChar: a
Encoding: 97 97 98
Width: 400
Flags: W
LayerCount: 2
Fore
SplineSet
50 200 m 128,-1,1
 50 138 50 138 94 94 c 128,-1,2
 138 50 138 50 200 50 c 128,-1,3
 262 50 262 50 306 94 c 128,-1,4
 350 138 350 138 350 200 c 128,-1,5
 350 262 350 262 306 306 c 128,-1,6
 262 350 262 350 200 350 c 128,-1,7
 138 350 138 350 94 306 c 128,-1,0
 50 262 50 262 50 200 c 128,-1,1
EndSplineSet
EndChar

StartChar: b
Encoding: 98 98 99
Width: 400
Flags: W
LayerCount: 2
Fore
SplineSet
50 200 m 128,-1,1
 50 138 50 138 94 94 c 128,-1,2
 138 50 138 50 200 50 c 128,-1,3
 262 50 262 50 306 94 c 128,-1,4
 350 138 350 138 350 200 c 128,-1,5
 350 262 350 262 306 306 c 128,-1,6
 262 350 262 350 200 350 c 128,-1,7
 138 350 138 350 94 306 c 128,-1,0
 50 262 50 262 50 200 c 128,-1,1
EndSplineSet
EndChar

StartChar: c
Encoding: 99 99 100
Width: 400
Flags: W
LayerCount: 2
Fore
SplineSet
50 200 m 128,-1,1
 50 138 50 138 94 94 c 128,-1,2
 138 50 138 50 200 50 c 128,-1,3
 262 50 262 50 306 94 c 128,-1,4
 350 138 350 138 350 200 c 128,-1,5
 350 262 350 262 306 306 c 128,-1,6
 262 350 262 350 200 350 c 128,-1,7
 138 350 138 350 94 306 c 128,-1,0
 50 262 50 262 50 200 c 128,-1,1
EndSplineSet
EndChar

StartChar: d
Encoding: 100 100 101
Width: 400
Flags: W
LayerCount: 2
Fore
SplineSet
50 200 m 128,-1,1
 50 138 50 138 94 94 c 128,-1,2
 138 50 138 50 200 50 c 128,-1,3
 262 50 262 50 306 94 c 128,-1,4
 350 138 350 138 350 200 c 128,-1,5
 350 262 350 262 306 306 c 128,-1,6
 262 350 262 350 200 350 c 128,-1,7
 138 350 138 350 94 306 c 128,-1,0
 50 262 50 262 50 200 c 128,-1,1
EndSplineSet
EndChar

StartChar: e
Encoding: 101 101 102
Width: 400
Flags: W
LayerCount: 2
Fore
SplineSet
50 200 m 128,-1,1
 50 138 50 138 94 94 c 128,-1,2
 138 50 138 50 200 50 c 128,-1,3
 262 50 262 50 306 94 c 128,-1,4
 350 138 350 138 350 200 c 128,-1,5
 350 262 350 262 306 306 c 128,-1,6
 262 350 262 350 200 350 c 128,-1,7
 138 350 138 350 94 306 c 128,-1,0
 50 262 50 262 50 200 c 128,-1,1
EndSplineSet
EndChar

StartChar: f
Encoding: 102 102 103
Width: 400
Flags: W
LayerCount: 2
Fore
SplineSet
50 200 m 128,-1,1
 50 138 50 138 94 94 c 128,-1,2
 138 50 138 50 200 50 c 128,-1,3
 262 50 262 50 306 94 c 128,-1,4
 350 138 350 138 350 200 c 128,-1,5
 350 262 350 262 306 306 c 128,-1,6
 262 350 262 350 200 350 c 128,-1,7
 138 350 138 350 94 306 c 128,-1,0
 50 262 50 262 50 200 c 128,-1,1
EndSplineSet
EndChar

StartChar: g
Encoding: 103 103 104
Width: 400
Flags: W
LayerCount: 2
Fore
SplineSet
50 200 m 128,-1,1
 50 138 50 138 94 94 c 128,-1,2
 138 50 138 50 200 50 c 128,-1,3
 262 50 262 50 306 94 c 128,-1,4
 350 138 350 138 350 200 c 128,-1,5
 350 262 350 262 306 306 c 128,-1,6
 262 350 262 350 200 350 c 128,-1,7
 138 350 138 350 94 306 c 128,-1,0
 50 262 50 262 50 200 c 128,-1,1
EndSplineSet
EndChar

StartChar: h
Encoding: 104 104 105
Width: 400
Flags: W
LayerCount: 2
Fore
SplineSet
50 200 m 128,-1,1
 50 138 50 138 94 94 c 128,-1,2
 138 50 138 50 200 50 c 128,-1,3
 262 50 262 50 306 94 c 128,-1,4
 350 138 350 138 350 200 c 128,-1,5
 350 262 350 262 306 306 c 128,-1,6
 262 350 262 350 200 350 c 128,-1,7
 138 350 138 350 94 306 c 128,-1,0
 50 262 50 262 50 200 c 128,-1,1
EndSplineSet
EndChar

StartChar: i
Encoding: 105 105 106
Width: 400
Flags: W
LayerCount: 2
Fore
SplineSet
50 200 m 128,-1,1
 50 138 50 138 94 94 c 128,-1,2
 138 50 138 50 200 50 c 128,-1,3
 262 50 262 50 306 94 c 128,-1,4
 350 138 350 138 350 200 c 128,-1,5
 350 262 350 262 306 306 c 128,-1,6
 262 350 262 350 200 350 c 128,-1,7
 138 350 138 350 94 306 c 128,-1,0
 50 262 50 262 50 200 c 128,-1,1
EndSplineSet
EndChar

StartChar: j
Encoding: 106 106 107
Width: 400
Flags: W
LayerCount: 2
Fore
SplineSet
50 200 m 128,-1,1
 50 138 50 138 94 94 c 128,-1,2
 138 50 138 50 200 50 c 128,-1,3
 262 50 262 50 306 94 c 128,-1,4
 350 138 350 138 350 200 c 128,-1,5
 350 262 350 262 306 306 c 128,-1,6
 262 350 262 350 200 350 c 128,-1,7
 138 350 138 350 94 306 c 128,-1,0
 50 262 50 262 50 200 c 128,-1,1
EndSplineSet
EndChar

StartChar: k
Encoding: 107 107 108
Width: 400
Flags: W
LayerCount: 2
Fore
SplineSet
50 200 m 128,-1,1
 50 138 50 138 94 94 c 128,-1,2
 138 50 138 50 200 50 c 128,-1,3
 262 50 262 50 306 94 c 128,-1,4
 350 138 350 138 350 200 c 128,-1,5
 350 262 350 262 306 306 c 128,-1,6
 262 350 262 350 200 350 c 128,-1,7
 138 350 138 350 94 306 c 128,-1,0
 50 262 50 262 50 200 c 128,-1,1
EndSplineSet
EndChar

StartChar: l
Encoding: 108 108 109
Width: 400
Flags: W
LayerCount: 2
Fore
SplineSet
50 200 m 128,-1,1
 50 138 50 138 94 94 c 128,-1,2
 138 50 138 50 200 50 c 128,-1,3
 262 50 262 50 306 94 c 128,-1,4
 350 138 350 138 350 200 c 128,-1,5
 350 262 350 262 306 306 c 128,-1,6
 262 350 262 350 200 350 c 128,-1,7
 138 350 138 350 94 306 c 128,-1,0
 50 262 50 262 50 200 c 128,-1,1
EndSplineSet
EndChar

StartChar: m
Encoding: 109 109 110
Width: 400
Flags: W
LayerCount: 2
Fore
SplineSet
50 200 m 128,-1,1
 50 138 50 138 94 94 c 128,-1,2
 138 50 138 50 200 50 c 128,-1,3
 262 50 262 50 306 94 c 128,-1,4
 350 138 350 138 350 200 c 128,-1,5
 350 262 350 262 306 306 c 128,-1,6
 262 350 262 350 200 350 c 128,-1,7
 138 350 138 350 94 306 c 128,-1,0
 50 262 50 262 50 200 c 128,-1,1
EndSplineSet
EndChar

StartChar: n
Encoding: 110 110 111
Width: 400
Flags: W
LayerCount: 2
Fore
SplineSet
50 200 m 128,-1,1
 50 138 50 138 94 94 c 128,-1,2
 138 50 138 50 200 50 c 128,-1,3
 262 50 262 50 306 94 c 128,-1,4
 350 138 350 138 350 200 c 128,-1,5
 350 262 350 262 306 306 c 128,-1,6
 262 350 262 350 200 350 c 128,-1,7
 138 350 138 350 94 306 c 128,-1,0
 50 262 50 262 50 200 c 128,-1,1
EndSplineSet
EndChar

StartChar: o
Encoding: 111 111 112
Width: 400
Flags: W
LayerCount: 2
Fore
SplineSet
50 200 m 128,-1,1
 50 138 50 138 94 94 c 128,-1,2
 138 50 138 50 200 50 c 128,-1,3
 262 50 262 50 306 94 c 128,-1,4
 350 138 350 138 350 200 c 128,-1,5
 350 262 350 262 306 306 c 128,-1,6
 262 350 262 350 200 350 c 128,-1,7
 138 350 138 350 94 306 c 128,-1,0
 50 262 50 262 50 200 c 128,-1,1
EndSplineSet
EndChar

StartChar: p
Encoding: 112 112 113
Width: 400
Flags: W
LayerCount: 2
Fore
SplineSet
50 200 m 128,-1,1
 50 138 50 138 94 94 c 128,-1,2
 138 50 138 50 200 50 c 128,-1,3
 262 50 262 50 306 94 c 128,-1,4
 350 138 350 138 350 200 c 128,-1,5
 350 262 350 262 306 306 c 128,-1,6
 262 350 262 350 200 350 c 128,-1,7
 138 350 138 350 94 306 c 128,-1,0
 50 262 50 262 50 200 c 128,-1,1
EndSplineSet
EndChar

StartChar: q
Encoding: 113 113 114
Width: 400
Flags: W
LayerCount: 2
Fore
SplineSet
50 200 m 128,-1,1
 50 138 50 138 94 94 c 128,-1,2
 138 50 138 50 200 50 c 128,-1,3
 262 50 262 50 306 94 c 128,-1,4
 350 138 350 138 350 200 c 128,-1,5
 350 262 350 262 306 306 c 128,-1,6
 262 350 262 350 200 350 c 128,-1,7
 138 350 138 350 94 306 c 128,-1,0
 50 262 50 262 50 200 c 128,-1,1
EndSplineSet
EndChar

StartChar: r
Encoding: 114 114 115
Width: 400
Flags: W
LayerCount: 2
Fore
SplineSet
50 200 m 128,-1,1
 50 138 50 138 94 94 c 128,-1,2
 138 50 138 50 200 50 c 128,-1,3
 262 50 262 50 306 94 c 128,-1,4
 350 138 350 138 350 200 c 128,-1,5
 350 262 350 262 306 306 c 128,-1,6
 262 350 262 350 200 350 c 128,-1,7
 138 350 138 350 94 306 c 128,-1,0
 50 262 50 262 50 200 c 128,-1,1
EndSplineSet
EndChar

StartChar: s
Encoding: 115 115 116
Width: 400
Flags: W
LayerCount: 2
Fore
SplineSet
50 200 m 128,-1,1
 50 138 50 138 94 94 c 128,-1,2
 138 50 138 50 200 50 c 128,-1,3
 262 50 262 50 306 94 c 128,-1,4
 350 138 350 138 350 200 c 128,-1,5
 350 262 350 262 306 306 c 128,-1,6
 262 350 262 350 200 350 c 128,-1,7
 138 350 138 350 94 306 c 128,-1,0
 50 262 50 262 50 200 c 128,-1,1
EndSplineSet
EndChar

StartChar: t
Encoding: 116 116 117
Width: 400
Flags: W
LayerCount: 2
Fore
SplineSet
50 200 m 128,-1,1
 50 138 50 138 94 94 c 128,-1,2
 138 50 138 50 200 50 c 128,-1,3
 262 50 262 50 306 94 c 128,-1,4
 350 138 350 138 350 200 c 128,-1,5
 350 262 350 262 306 306 c 128,-1,6
 262 350 262 350 200 350 c 128,-1,7
 138 350 138 350 94 306 c 128,-1,0
 50 262 50 262 50 200 c 128,-1,1
EndSplineSet
EndChar

StartChar: u
Encoding: 117 117 118
Width: 400
Flags: W
LayerCount: 2
Fore
SplineSet
50 200 m 128,-1,1
 50 138 50 138 94 94 c 128,-1,2
 138 50 138 50 200 50 c 128,-1,3
 262 50 262 50 306 94 c 128,-1,4
 350 138 350 138 350 200 c 128,-1,5
 350 262 350 262 306 306 c 128,-1,6
 262 350 262 350 200 350 c 128,-1,7
 138 350 138 350 94 306 c 128,-1,0
 50 262 50 262 50 200 c 128,-1,1
EndSplineSet
EndChar

StartChar: v
Encoding: 118 118 119
Width: 400
Flags: W
LayerCount: 2
Fore
SplineSet
50 200 m 128,-1,1
 50 138 50 138 94 94 c 128,-1,2
 138 50 138 50 200 50 c 128,-1,3
 262 50 262 50 306 94 c 128,-1,4
 350 138 350 138 350 200 c 128,-1,5
 350 262 350 262 306 306 c 128,-1,6
 262 350 262 350 200 350 c 128,-1,7
 138 350 138 350 94 306 c 128,-1,0
 50 262 50 262 50 200 c 128,-1,1
EndSplineSet
EndChar

StartChar: w
Encoding: 119 119 120
Width: 400
Flags: W
LayerCount: 2
Fore
SplineSet
50 200 m 128,-1,1
 50 138 50 138 94 94 c 128,-1,2
 138 50 138 50 200 50 c 128,-1,3
 262 50 262 50 306 94 c 128,-1,4
 350 138 350 138 350 200 c 128,-1,5
 350 262 350 262 306 306 c 128,-1,6
 262 350 262 350 200 350 c 128,-1,7
 138 350 138 350 94 306 c 128,-1,0
 50 262 50 262 50 200 c 128,-1,1
EndSplineSet
EndChar

StartChar: x
Encoding: 120 120 121
Width: 400
Flags: W
LayerCount: 2
Fore
SplineSet
50 200 m 128,-1,1
 50 138 50 138 94 94 c 128,-1,2
 138 50 138 50 200 50 c 128,-1,3
 262 50 262 50 306 94 c 128,-1,4
 350 138 350 138 350 200 c 128,-1,5
 350 262 350 262 306 306 c 128,-1,6
 262 350 262 350 200 350 c 128,-1,7
 138 350 138 350 94 306 c 128,-1,0
 50 262 50 262 50 200 c 128,-1,1
EndSplineSet
EndChar

StartChar: y
Encoding: 121 121 122
Width: 400
Flags: W
LayerCount: 2
Fore
SplineSet
50 200 m 128,-1,1
 50 138 50 138 94 94 c 128,-1,2
 138 50 138 50 200 50 c 128,-1,3
 262 50 262 50 306 94 c 128,-1,4
 350 138 350 138 350 200 c 128,-1,5
 350 262 350 262 306 306 c 128,-1,6
 262 350 262 350 200 350 c 128,-1,7
 138 350 138 350 94 306 c 128,-1,0
 50 262 50 262 50 200 c 128,-1,1
EndSplineSet
EndChar

StartChar: z
Encoding: 122 122 123
Width: 400
Flags: W
LayerCount: 2
Fore
SplineSet
50 200 m 128,-1,1
 50 138 50 138 94 94 c 128,-1,2
 138 50 138 50 200 50 c 128,-1,3
 262 50 262 50 306 94 c 128,-1,4
 350 138 350 138 350 200 c 128,-1,5
 350 262 350 262 306 306 c 128,-1,6
 262 350 262 350 200 350 c 128,-1,7
 138 350 138 350 94 306 c 128,-1,0
 50 262 50 262 50 200 c 128,-1,1
EndSplineSet
EndChar

StartChar: braceleft
Encoding: 123 123 124
Width: 400
Flags: W
LayerCount: 2
Fore
SplineSet
50 200 m 128,-1,1
 50 138 50 138 94 94 c 128,-1,2
 138 50 138 50 200 50 c 128,-1,3
 262 50 262 50 306 94 c 128,-1,4
 350 138 350 138 350 200 c 128,-1,5
 350 262 350 262 306 306 c 128,-1,6
 262 350 262 350 200 350 c 128,-1,7
 138 350 138 350 94 306 c 128,-1,0
 50 262 50 262 50 200 c 128,-1,1
EndSplineSet
EndChar

StartChar: bar
Encoding: 124 124 125
Width: 400
Flags: W
LayerCount: 2
Fore
SplineSet
50 200 m 128,-1,1
 50 138 50 138 94 94 c 128,-1,2
 138 50 138 50 200 50 c 128,-1,3
 262 50 262 50 306 94 c 128,-1,4
 350 138 350 138 350 200 c 128,-1,5
 350 262 350 262 306 306 c 128,-1,6
 262 350 262 350 200 350 c 128,-1,7
 138 350 138 350 94 306 c 128,-1,0
 50 262 50 262 50 200 c 128,-1,1
EndSplineSet
EndChar

StartChar: braceright
Encoding: 125 125 126
Width: 400
Flags: W
LayerCount: 2
Fore
SplineSet
50 200 m 128,-1,1
 50 138 50 138 94 94 c 128,-1,2
 138 50 138 50 200 50 c 128,-1,3
 262 50 262 50 306 94 c 128,-1,4
 350 138 350 138 350 200 c 128,-1,5
 350 262 350 262 306 306 c 128,-1,6
 262 350 262 350 200 350 c 128,-1,7
 138 350 138 350 94 306 c 128,-1,0
 50 262 50 262 50 200 c 128,-1,1
EndSplineSet
EndChar

StartChar: asciitilde
Encoding: 126 126 127
Width: 400
Flags: W
LayerCount: 2
Fore
SplineSet
50 200 m 128,-1,1
 50 138 50 138 94 94 c 128,-1,2
 138 50 138 50 200 50 c 128,-1,3
 262 50 262 50 306 94 c 128,-1,4
 350 138 350 138 350 200 c 128,-1,5
 350 262 350 262 306 306 c 128,-1,6
 262 350 262 350 200 350 c 128,-1,7
 138 350 138 350 94 306 c 128,-1,0
 50 262 50 262 50 200 c 128,-1,1
EndSplineSet
EndChar

StartChar: uni007F
Encoding: 127 127 128
Width: 400
Flags: W
LayerCount: 2
Fore
SplineSet
50 200 m 128,-1,1
 50 138 50 138 94 94 c 128,-1,2
 138 50 138 50 200 50 c 128,-1,3
 262 50 262 50 306 94 c 128,-1,4
 350 138 350 138 350 200 c 128,-1,5
 350 262 350 262 306 306 c 128,-1,6
 262 350 262 350 200 350 c 128,-1,7
 138 350 138 350 94 306 c 128,-1,0
 50 262 50 262 50 200 c 128,-1,1
EndSplineSet
EndChar

StartChar: uni0080
Encoding: 128 128 129
Width: 400
Flags: W
LayerCount: 2
Fore
SplineSet
50 200 m 128,-1,1
 50 138 50 138 94 94 c 128,-1,2
 138 50 138 50 200 50 c 128,-1,3
 262 50 262 50 306 94 c 128,-1,4
 350 138 350 138 350 200 c 128,-1,5
 350 262 350 262 306 306 c 128,-1,6
 262 350 262 350 200 350 c 128,-1,7
 138 350 138 350 94 306 c 128,-1,0
 50 262 50 262 50 200 c 128,-1,1
EndSplineSet
EndChar

StartChar: uni0081
Encoding: 129 129 130
Width: 400
Flags: W
LayerCount: 2
Fore
SplineSet
50 200 m 128,-1,1
 50 138 50 138 94 94 c 128,-1,2
 138 50 138 50 200 50 c 128,-1,3
 262 50 262 50 306 94 c 128,-1,4
 350 138 350 138 350 200 c 128,-1,5
 350 262 350 262 306 306 c 128,-1,6
 262 350 262 350 200 350 c 128,-1,7
 138 350 138 350 94 306 c 128,-1,0
 50 262 50 262 50 200 c 128,-1,1
EndSplineSet
EndChar

StartChar: uni0082
Encoding: 130 130 131
Width: 400
Flags: W
LayerCount: 2
Fore
SplineSet
50 200 m 128,-1,1
 50 138 50 138 94 94 c 128,-1,2
 138 50 138 50 200 50 c 128,-1,3
 262 50 262 50 306 94 c 128,-1,4
 350 138 350 138 350 200 c 128,-1,5
 350 262 350 262 306 306 c 128,-1,6
 262 350 262 350 200 350 c 128,-1,7
 138 350 138 350 94 306 c 128,-1,0
 50 262 50 262 50 200 c 128,-1,1
EndSplineSet
EndChar

StartChar: uni0083
Encoding: 131 131 132
Width: 400
Flags: W
LayerCount: 2
Fore
SplineSet
50 200 m 128,-1,1
 50 138 50 138 94 94 c 128,-1,2
 138 50 138 50 200 50 c 128,-1,3
 262 50 262 50 306 94 c 128,-1,4
 350 138 350 138 350 200 c 128,-1,5
 350 262 350 262 306 306 c 128,-1,6
 262 350 262 350 200 350 c 128,-1,7
 138 350 138 350 94 306 c 128,-1,0
 50 262 50 262 50 200 c 128,-1,1
EndSplineSet
EndChar

StartChar: uni0084
Encoding: 132 132 133
Width: 400
Flags: W
LayerCount: 2
Fore
SplineSet
50 200 m 128,-1,1
 50 138 50 138 94 94 c 128,-1,2
 138 50 138 50 200 50 c 128,-1,3
 262 50 262 50 306 94 c 128,-1,4
 350 138 350 138 350 200 c 128,-1,5
 350 262 350 262 306 306 c 128,-1,6
 262 350 262 350 200 350 c 128,-1,7
 138 350 138 350 94 306 c 128,-1,0
 50 262 50 262 50 200 c 128,-1,1
EndSplineSet
EndChar

StartChar: uni0085
Encoding: 133 133 134
Width: 400
Flags: W
LayerCount: 2
Fore
SplineSet
50 200 m 128,-1,1
 50 138 50 138 94 94 c 128,-1,2
 138 50 138 50 200 50 c 128,-1,3
 262 50 262 50 306 94 c 128,-1,4
 350 138 350 138 350 200 c 128,-1,5
 350 262 350 262 306 306 c 128,-1,6
 262 350 262 350 200 350 c 128,-1,7
 138 350 138 350 94 306 c 128,-1,0
 50 262 50 262 50 200 c 128,-1,1
EndSplineSet
EndChar

StartChar: uni0086
Encoding: 134 134 135
Width: 400
Flags: W
LayerCount: 2
Fore
SplineSet
50 200 m 128,-1,1
 50 138 50 138 94 94 c 128,-1,2
 138 50 138 50 200 50 c 128,-1,3
 262 50 262 50 306 94 c 128,-1,4
 350 138 350 138 350 200 c 128,-1,5
 350 262 350 262 306 306 c 128,-1,6
 262 350 262 350 200 350 c 128,-1,7
 138 350 138 350 94 306 c 128,-1,0
 50 262 50 262 50 200 c 128,-1,1
EndSplineSet
EndChar

StartChar: uni0087
Encoding: 135 135 136
Width: 400
Flags: W
LayerCount: 2
Fore
SplineSet
50 200 m 128,-1,1
 50 138 50 138 94 94 c 128,-1,2
 138 50 138 50 200 50 c 128,-1,3
 262 50 262 50 306 94 c 128,-1,4
 350 138 350 138 350 200 c 128,-1,5
 350 262 350 262 306 306 c 128,-1,6
 262 350 262 350 200 350 c 128,-1,7
 138 350 138 350 94 306 c 128,-1,0
 50 262 50 262 50 200 c 128,-1,1
EndSplineSet
EndChar

StartChar: uni0088
Encoding: 136 136 137
Width: 400
Flags: W
LayerCount: 2
Fore
SplineSet
50 200 m 128,-1,1
 50 138 50 138 94 94 c 128,-1,2
 138 50 138 50 200 50 c 128,-1,3
 262 50 262 50 306 94 c 128,-1,4
 350 138 350 138 350 200 c 128,-1,5
 350 262 350 262 306 306 c 128,-1,6
 262 350 262 350 200 350 c 128,-1,7
 138 350 138 350 94 306 c 128,-1,0
 50 262 50 262 50 200 c 128,-1,1
EndSplineSet
EndChar

StartChar: uni0089
Encoding: 137 137 138
Width: 400
Flags: W
LayerCount: 2
Fore
SplineSet
50 200 m 128,-1,1
 50 138 50 138 94 94 c 128,-1,2
 138 50 138 50 200 50 c 128,-1,3
 262 50 262 50 306 94 c 128,-1,4
 350 138 350 138 350 200 c 128,-1,5
 350 262 350 262 306 306 c 128,-1,6
 262 350 262 350 200 350 c 128,-1,7
 138 350 138 350 94 306 c 128,-1,0
 50 262 50 262 50 200 c 128,-1,1
EndSplineSet
EndChar

StartChar: uni008A
Encoding: 138 138 139
Width: 400
Flags: W
LayerCount: 2
Fore
SplineSet
50 200 m 128,-1,1
 50 138 50 138 94 94 c 128,-1,2
 138 50 138 50 200 50 c 128,-1,3
 262 50 262 50 306 94 c 128,-1,4
 350 138 350 138 350 200 c 128,-1,5
 350 262 350 262 306 306 c 128,-1,6
 262 350 262 350 200 350 c 128,-1,7
 138 350 138 350 94 306 c 128,-1,0
 50 262 50 262 50 200 c 128,-1,1
EndSplineSet
EndChar

StartChar: uni008B
Encoding: 139 139 140
Width: 400
Flags: W
LayerCount: 2
Fore
SplineSet
50 200 m 128,-1,1
 50 138 50 138 94 94 c 128,-1,2
 138 50 138 50 200 50 c 128,-1,3
 262 50 262 50 306 94 c 128,-1,4
 350 138 350 138 350 200 c 128,-1,5
 350 262 350 262 306 306 c 128,-1,6
 262 350 262 350 200 350 c 128,-1,7
 138 350 138 350 94 306 c 128,-1,0
 50 262 50 262 50 200 c 128,-1,1
EndSplineSet
EndChar

StartChar: uni008C
Encoding: 140 140 141
Width: 400
Flags: W
LayerCount: 2
Fore
SplineSet
50 200 m 128,-1,1
 50 138 50 138 94 94 c 128,-1,2
 138 50 138 50 200 50 c 128,-1,3
 262 50 262 50 306 94 c 128,-1,4
 350 138 350 138 350 200 c 128,-1,5
 350 262 350 262 306 306 c 128,-1,6
 262 350 262 350 200 350 c 128,-1,7
 138 350 138 350 94 306 c 128,-1,0
 50 262 50 262 50 200 c 128,-1,1
EndSplineSet
EndChar

StartChar: uni008D
Encoding: 141 141 142
Width: 400
Flags: W
LayerCount: 2
Fore
SplineSet
50 200 m 128,-1,1
 50 138 50 138 94 94 c 128,-1,2
 138 50 138 50 200 50 c 128,-1,3
 262 50 262 50 306 94 c 128,-1,4
 350 138 350 138 350 200 c 128,-1,5
 350 262 350 262 306 306 c 128,-1,6
 262 350 262 350 200 350 c 128,-1,7
 138 350 138 350 94 306 c 128,-1,0
 50 262 50 262 50 200 c 128,-1,1
EndSplineSet
EndChar

StartChar: uni008E
Encoding: 142 142 143
Width: 400
Flags: W
LayerCount: 2
Fore
SplineSet
50 200 m 128,-1,1
 50 138 50 138 94 94 c 128,-1,2
 138 50 138 50 200 50 c 128,-1,3
 262 50 262 50 306 94 c 128,-1,4
 350 138 350 138 350 200 c 128,-1,5
 350 262 350 262 306 306 c 128,-1,6
 262 350 262 350 200 350 c 128,-1,7
 138 350 138 350 94 306 c 128,-1,0
 50 262 50 262 50 200 c 128,-1,1
EndSplineSet
EndChar

StartChar: uni008F
Encoding: 143 143 144
Width: 400
Flags: W
LayerCount: 2
Fore
SplineSet
50 200 m 128,-1,1
 50 138 50 138 94 94 c 128,-1,2
 138 50 138 50 200 50 c 128,-1,3
 262 50 262 50 306 94 c 128,-1,4
 350 138 350 138 350 200 c 128,-1,5
 350 262 350 262 306 306 c 128,-1,6
 262 350 262 350 200 350 c 128,-1,7
 138 350 138 350 94 306 c 128,-1,0
 50 262 50 262 50 200 c 128,-1,1
EndSplineSet
EndChar

StartChar: uni0090
Encoding: 144 144 145
Width: 400
Flags: W
LayerCount: 2
Fore
SplineSet
50 200 m 128,-1,1
 50 138 50 138 94 94 c 128,-1,2
 138 50 138 50 200 50 c 128,-1,3
 262 50 262 50 306 94 c 128,-1,4
 350 138 350 138 350 200 c 128,-1,5
 350 262 350 262 306 306 c 128,-1,6
 262 350 262 350 200 350 c 128,-1,7
 138 350 138 350 94 306 c 128,-1,0
 50 262 50 262 50 200 c 128,-1,1
EndSplineSet
EndChar

StartChar: uni0091
Encoding: 145 145 146
Width: 400
Flags: W
LayerCount: 2
Fore
SplineSet
50 200 m 128,-1,1
 50 138 50 138 94 94 c 128,-1,2
 138 50 138 50 200 50 c 128,-1,3
 262 50 262 50 306 94 c 128,-1,4
 350 138 350 138 350 200 c 128,-1,5
 350 262 350 262 306 306 c 128,-1,6
 262 350 262 350 200 350 c 128,-1,7
 138 350 138 350 94 306 c 128,-1,0
 50 262 50 262 50 200 c 128,-1,1
EndSplineSet
EndChar

StartChar: uni0092
Encoding: 146 146 147
Width: 400
Flags: W
LayerCount: 2
Fore
SplineSet
50 200 m 128,-1,1
 50 138 50 138 94 94 c 128,-1,2
 138 50 138 50 200 50 c 128,-1,3
 262 50 262 50 306 94 c 128,-1,4
 350 138 350 138 350 200 c 128,-1,5
 350 262 350 262 306 306 c 128,-1,6
 262 350 262 350 200 350 c 128,-1,7
 138 350 138 350 94 306 c 128,-1,0
 50 262 50 262 50 200 c 128,-1,1
EndSplineSet
EndChar

StartChar: uni0093
Encoding: 147 147 148
Width: 400
Flags: W
LayerCount: 2
Fore
SplineSet
50 200 m 128,-1,1
 50 138 50 138 94 94 c 128,-1,2
 138 50 138 50 200 50 c 128,-1,3
 262 50 262 50 306 94 c 128,-1,4
 350 138 350 138 350 200 c 128,-1,5
 350 262 350 262 306 306 c 128,-1,6
 262 350 262 350 200 350 c 128,-1,7
 138 350 138 350 94 306 c 128,-1,0
 50 262 50 262 50 200 c 128,-1,1
EndSplineSet
EndChar

StartChar: uni0094
Encoding: 148 148 149
Width: 400
Flags: W
LayerCount: 2
Fore
SplineSet
50 200 m 128,-1,1
 50 138 50 138 94 94 c 128,-1,2
 138 50 138 50 200 50 c 128,-1,3
 262 50 262 50 306 94 c 128,-1,4
 350 138 350 138 350 200 c 128,-1,5
 350 262 350 262 306 306 c 128,-1,6
 262 350 262 350 200 350 c 128,-1,7
 138 350 138 350 94 306 c 128,-1,0
 50 262 50 262 50 200 c 128,-1,1
EndSplineSet
EndChar

StartChar: uni0095
Encoding: 149 149 150
Width: 400
Flags: W
LayerCount: 2
Fore
SplineSet
50 200 m 128,-1,1
 50 138 50 138 94 94 c 128,-1,2
 138 50 138 50 200 50 c 128,-1,3
 262 50 262 50 306 94 c 128,-1,4
 350 138 350 138 350 200 c 128,-1,5
 350 262 350 262 306 306 c 128,-1,6
 262 350 262 350 200 350 c 128,-1,7
 138 350 138 350 94 306 c 128,-1,0
 50 262 50 262 50 200 c 128,-1,1
EndSplineSet
EndChar

StartChar: uni0096
Encoding: 150 150 151
Width: 400
Flags: W
LayerCount: 2
Fore
SplineSet
50 200 m 128,-1,1
 50 138 50 138 94 94 c 128,-1,2
 138 50 138 50 200 50 c 128,-1,3
 262 50 262 50 306 94 c 128,-1,4
 350 138 350 138 350 200 c 128,-1,5
 350 262 350 262 306 306 c 128,-1,6
 262 350 262 350 200 350 c 128,-1,7
 138 350 138 350 94 306 c 128,-1,0
 50 262 50 262 50 200 c 128,-1,1
EndSplineSet
EndChar

StartChar: uni0097
Encoding: 151 151 152
Width: 400
Flags: W
LayerCount: 2
Fore
SplineSet
50 200 m 128,-1,1
 50 138 50 138 94 94 c 128,-1,2
 138 50 138 50 200 50 c 128,-1,3
 262 50 262 50 306 94 c 128,-1,4
 350 138 350 138 350 200 c 128,-1,5
 350 262 350 262 306 306 c 128,-1,6
 262 350 262 350 200 350 c 128,-1,7
 138 350 138 350 94 306 c 128,-1,0
 50 262 50 262 50 200 c 128,-1,1
EndSplineSet
EndChar

StartChar: uni0098
Encoding: 152 152 153
Width: 400
Flags: W
LayerCount: 2
Fore
SplineSet
50 200 m 128,-1,1
 50 138 50 138 94 94 c 128,-1,2
 138 50 138 50 200 50 c 128,-1,3
 262 50 262 50 306 94 c 128,-1,4
 350 138 350 138 350 200 c 128,-1,5
 350 262 350 262 306 306 c 128,-1,6
 262 350 262 350 200 350 c 128,-1,7
 138 350 138 350 94 306 c 128,-1,0
 50 262 50 262 50 200 c 128,-1,1
EndSplineSet
EndChar

StartChar: uni0099
Encoding: 153 153 154
Width: 400
Flags: W
LayerCount: 2
Fore
SplineSet
50 200 m 128,-1,1
 50 138 50 138 94 94 c 128,-1,2
 138 50 138 50 200 50 c 128,-1,3
 262 50 262 50 306 94 c 128,-1,4
 350 138 350 138 350 200 c 128,-1,5
 350 262 350 262 306 306 c 128,-1,6
 262 350 262 350 200 350 c 128,-1,7
 138 350 138 350 94 306 c 128,-1,0
 50 262 50 262 50 200 c 128,-1,1
EndSplineSet
EndChar

StartChar: uni009A
Encoding: 154 154 155
Width: 400
Flags: W
LayerCount: 2
Fore
SplineSet
50 200 m 128,-1,1
 50 138 50 138 94 94 c 128,-1,2
 138 50 138 50 200 50 c 128,-1,3
 262 50 262 50 306 94 c 128,-1,4
 350 138 350 138 350 200 c 128,-1,5
 350 262 350 262 306 306 c 128,-1,6
 262 350 262 350 200 350 c 128,-1,7
 138 350 138 350 94 306 c 128,-1,0
 50 262 50 262 50 200 c 128,-1,1
EndSplineSet
EndChar

StartChar: uni009B
Encoding: 155 155 156
Width: 400
Flags: W
LayerCount: 2
Fore
SplineSet
50 200 m 128,-1,1
 50 138 50 138 94 94 c 128,-1,2
 138 50 138 50 200 50 c 128,-1,3
 262 50 262 50 306 94 c 128,-1,4
 350 138 350 138 350 200 c 128,-1,5
 350 262 350 262 306 306 c 128,-1,6
 262 350 262 350 200 350 c 128,-1,7
 138 350 138 350 94 306 c 128,-1,0
 50 262 50 262 50 200 c 128,-1,1
EndSplineSet
EndChar

StartChar: uni009C
Encoding: 156 156 157
Width: 400
Flags: W
LayerCount: 2
Fore
SplineSet
50 200 m 128,-1,1
 50 138 50 138 94 94 c 128,-1,2
 138 50 138 50 200 50 c 128,-1,3
 262 50 262 50 306 94 c 128,-1,4
 350 138 350 138 350 200 c 128,-1,5
 350 262 350 262 306 306 c 128,-1,6
 262 350 262 350 200 350 c 128,-1,7
 138 350 138 350 94 306 c 128,-1,0
 50 262 50 262 50 200 c 128,-1,1
EndSplineSet
EndChar

StartChar: uni009D
Encoding: 157 157 158
Width: 400
Flags: W
LayerCount: 2
Fore
SplineSet
50 200 m 128,-1,1
 50 138 50 138 94 94 c 128,-1,2
 138 50 138 50 200 50 c 128,-1,3
 262 50 262 50 306 94 c 128,-1,4
 350 138 350 138 350 200 c 128,-1,5
 350 262 350 262 306 306 c 128,-1,6
 262 350 262 350 200 350 c 128,-1,7
 138 350 138 350 94 306 c 128,-1,0
 50 262 50 262 50 200 c 128,-1,1
EndSplineSet
EndChar

StartChar: uni009E
Encoding: 158 158 159
Width: 400
Flags: W
LayerCount: 2
Fore
SplineSet
50 200 m 128,-1,1
 50 138 50 138 94 94 c 128,-1,2
 138 50 138 50 200 50 c 128,-1,3
 262 50 262 50 306 94 c 128,-1,4
 350 138 350 138 350 200 c 128,-1,5
 350 262 350 262 306 306 c 128,-1,6
 262 350 262 350 200 350 c 128,-1,7
 138 350 138 350 94 306 c 128,-1,0
 50 262 50 262 50 200 c 128,-1,1
EndSplineSet
EndChar

StartChar: uni009F
Encoding: 159 159 160
Width: 400
Flags: W
LayerCount: 2
Fore
SplineSet
50 200 m 128,-1,1
 50 138 50 138 94 94 c 128,-1,2
 138 50 138 50 200 50 c 128,-1,3
 262 50 262 50 306 94 c 128,-1,4
 350 138 350 138 350 200 c 128,-1,5
 350 262 350 262 306 306 c 128,-1,6
 262 350 262 350 200 350 c 128,-1,7
 138 350 138 350 94 306 c 128,-1,0
 50 262 50 262 50 200 c 128,-1,1
EndSplineSet
EndChar

StartChar: uni00A0
Encoding: 160 160 161
Width: 400
Flags: W
LayerCount: 2
Fore
SplineSet
50 200 m 128,-1,1
 50 138 50 138 94 94 c 128,-1,2
 138 50 138 50 200 50 c 128,-1,3
 262 50 262 50 306 94 c 128,-1,4
 350 138 350 138 350 200 c 128,-1,5
 350 262 350 262 306 306 c 128,-1,6
 262 350 262 350 200 350 c 128,-1,7
 138 350 138 350 94 306 c 128,-1,0
 50 262 50 262 50 200 c 128,-1,1
EndSplineSet
EndChar

StartChar: exclamdown
Encoding: 161 161 162
Width: 400
Flags: W
LayerCount: 2
Fore
SplineSet
50 200 m 128,-1,1
 50 138 50 138 94 94 c 128,-1,2
 138 50 138 50 200 50 c 128,-1,3
 262 50 262 50 306 94 c 128,-1,4
 350 138 350 138 350 200 c 128,-1,5
 350 262 350 262 306 306 c 128,-1,6
 262 350 262 350 200 350 c 128,-1,7
 138 350 138 350 94 306 c 128,-1,0
 50 262 50 262 50 200 c 128,-1,1
EndSplineSet
EndChar

StartChar: cent
Encoding: 162 162 163
Width: 400
Flags: W
LayerCount: 2
Fore
SplineSet
50 200 m 128,-1,1
 50 138 50 138 94 94 c 128,-1,2
 138 50 138 50 200 50 c 128,-1,3
 262 50 262 50 306 94 c 128,-1,4
 350 138 350 138 350 200 c 128,-1,5
 350 262 350 262 306 306 c 128,-1,6
 262 350 262 350 200 350 c 128,-1,7
 138 350 138 350 94 306 c 128,-1,0
 50 262 50 262 50 200 c 128,-1,1
EndSplineSet
EndChar

StartChar: sterling
Encoding: 163 163 164
Width: 400
Flags: W
LayerCount: 2
Fore
SplineSet
50 200 m 128,-1,1
 50 138 50 138 94 94 c 128,-1,2
 138 50 138 50 200 50 c 128,-1,3
 262 50 262 50 306 94 c 128,-1,4
 350 138 350 138 350 200 c 128,-1,5
 350 262 350 262 306 306 c 128,-1,6
 262 350 262 350 200 350 c 128,-1,7
 138 350 138 350 94 306 c 128,-1,0
 50 262 50 262 50 200 c 128,-1,1
EndSplineSet
EndChar

StartChar: currency
Encoding: 164 164 165
Width: 400
Flags: W
LayerCount: 2
Fore
SplineSet
50 200 m 128,-1,1
 50 138 50 138 94 94 c 128,-1,2
 138 50 138 50 200 50 c 128,-1,3
 262 50 262 50 306 94 c 128,-1,4
 350 138 350 138 350 200 c 128,-1,5
 350 262 350 262 306 306 c 128,-1,6
 262 350 262 350 200 350 c 128,-1,7
 138 350 138 350 94 306 c 128,-1,0
 50 262 50 262 50 200 c 128,-1,1
EndSplineSet
EndChar

StartChar: yen
Encoding: 165 165 166
Width: 400
Flags: W
LayerCount: 2
Fore
SplineSet
50 200 m 128,-1,1
 50 138 50 138 94 94 c 128,-1,2
 138 50 138 50 200 50 c 128,-1,3
 262 50 262 50 306 94 c 128,-1,4
 350 138 350 138 350 200 c 128,-1,5
 350 262 350 262 306 306 c 128,-1,6
 262 350 262 350 200 350 c 128,-1,7
 138 350 138 350 94 306 c 128,-1,0
 50 262 50 262 50 200 c 128,-1,1
EndSplineSet
EndChar

StartChar: brokenbar
Encoding: 166 166 167
Width: 400
Flags: W
LayerCount: 2
Fore
SplineSet
50 200 m 128,-1,1
 50 138 50 138 94 94 c 128,-1,2
 138 50 138 50 200 50 c 128,-1,3
 262 50 262 50 306 94 c 128,-1,4
 350 138 350 138 350 200 c 128,-1,5
 350 262 350 262 306 306 c 128,-1,6
 262 350 262 350 200 350 c 128,-1,7
 138 350 138 350 94 306 c 128,-1,0
 50 262 50 262 50 200 c 128,-1,1
EndSplineSet
EndChar

StartChar: section
Encoding: 167 167 168
Width: 400
Flags: W
LayerCount: 2
Fore
SplineSet
50 200 m 128,-1,1
 50 138 50 138 94 94 c 128,-1,2
 138 50 138 50 200 50 c 128,-1,3
 262 50 262 50 306 94 c 128,-1,4
 350 138 350 138 350 200 c 128,-1,5
 350 262 350 262 306 306 c 128,-1,6
 262 350 262 350 200 350 c 128,-1,7
 138 350 138 350 94 306 c 128,-1,0
 50 262 50 262 50 200 c 128,-1,1
EndSplineSet
EndChar

StartChar: dieresis
Encoding: 168 168 169
Width: 400
Flags: W
LayerCount: 2
Fore
SplineSet
50 200 m 128,-1,1
 50 138 50 138 94 94 c 128,-1,2
 138 50 138 50 200 50 c 128,-1,3
 262 50 262 50 306 94 c 128,-1,4
 350 138 350 138 350 200 c 128,-1,5
 350 262 350 262 306 306 c 128,-1,6
 262 350 262 350 200 350 c 128,-1,7
 138 350 138 350 94 306 c 128,-1,0
 50 262 50 262 50 200 c 128,-1,1
EndSplineSet
EndChar

StartChar: copyright
Encoding: 169 169 170
Width: 400
Flags: W
LayerCount: 2
Fore
SplineSet
50 200 m 128,-1,1
 50 138 50 138 94 94 c 128,-1,2
 138 50 138 50 200 50 c 128,-1,3
 262 50 262 50 306 94 c 128,-1,4
 350 138 350 138 350 200 c 128,-1,5
 350 262 350 262 306 306 c 128,-1,6
 262 350 262 350 200 350 c 128,-1,7
 138 350 138 350 94 306 c 128,-1,0
 50 262 50 262 50 200 c 128,-1,1
EndSplineSet
EndChar

StartChar: ordfeminine
Encoding: 170 170 171
Width: 400
Flags: W
LayerCount: 2
Fore
SplineSet
50 200 m 128,-1,1
 50 138 50 138 94 94 c 128,-1,2
 138 50 138 50 200 50 c 128,-1,3
 262 50 262 50 306 94 c 128,-1,4
 350 138 350 138 350 200 c 128,-1,5
 350 262 350 262 306 306 c 128,-1,6
 262 350 262 350 200 350 c 128,-1,7
 138 350 138 350 94 306 c 128,-1,0
 50 262 50 262 50 200 c 128,-1,1
EndSplineSet
EndChar

StartChar: guillemotleft
Encoding: 171 171 172
Width: 400
Flags: W
LayerCount: 2
Fore
SplineSet
50 200 m 128,-1,1
 50 138 50 138 94 94 c 128,-1,2
 138 50 138 50 200 50 c 128,-1,3
 262 50 262 50 306 94 c 128,-1,4
 350 138 350 138 350 200 c 128,-1,5
 350 262 350 262 306 306 c 128,-1,6
 262 350 262 350 200 350 c 128,-1,7
 138 350 138 350 94 306 c 128,-1,0
 50 262 50 262 50 200 c 128,-1,1
EndSplineSet
EndChar

StartChar: logicalnot
Encoding: 172 172 173
Width: 400
Flags: W
LayerCount: 2
Fore
SplineSet
50 200 m 128,-1,1
 50 138 50 138 94 94 c 128,-1,2
 138 50 138 50 200 50 c 128,-1,3
 262 50 262 50 306 94 c 128,-1,4
 350 138 350 138 350 200 c 128,-1,5
 350 262 350 262 306 306 c 128,-1,6
 262 350 262 350 200 350 c 128,-1,7
 138 350 138 350 94 306 c 128,-1,0
 50 262 50 262 50 200 c 128,-1,1
EndSplineSet
EndChar

StartChar: uni00AD
Encoding: 173 173 174
Width: 400
Flags: W
LayerCount: 2
Fore
SplineSet
50 200 m 128,-1,1
 50 138 50 138 94 94 c 128,-1,2
 138 50 138 50 200 50 c 128,-1,3
 262 50 262 50 306 94 c 128,-1,4
 350 138 350 138 350 200 c 128,-1,5
 350 262 350 262 306 306 c 128,-1,6
 262 350 262 350 200 350 c 128,-1,7
 138 350 138 350 94 306 c 128,-1,0
 50 262 50 262 50 200 c 128,-1,1
EndSplineSet
EndChar

StartChar: registered
Encoding: 174 174 175
Width: 400
Flags: W
LayerCount: 2
Fore
SplineSet
50 200 m 128,-1,1
 50 138 50 138 94 94 c 128,-1,2
 138 50 138 50 200 50 c 128,-1,3
 262 50 262 50 306 94 c 128,-1,4
 350 138 350 138 350 200 c 128,-1,5
 350 262 350 262 306 306 c 128,-1,6
 262 350 262 350 200 350 c 128,-1,7
 138 350 138 350 94 306 c 128,-1,0
 50 262 50 262 50 200 c 128,-1,1
EndSplineSet
EndChar

StartChar: macron
Encoding: 175 175 176
Width: 400
Flags: W
LayerCount: 2
Fore
SplineSet
50 200 m 128,-1,1
 50 138 50 138 94 94 c 128,-1,2
 138 50 138 50 200 50 c 128,-1,3
 262 50 262 50 306 94 c 128,-1,4
 350 138 350 138 350 200 c 128,-1,5
 350 262 350 262 306 306 c 128,-1,6
 262 350 262 350 200 350 c 128,-1,7
 138 350 138 350 94 306 c 128,-1,0
 50 262 50 262 50 200 c 128,-1,1
EndSplineSet
EndChar

StartChar: degree
Encoding: 176 176 177
Width: 400
Flags: W
LayerCount: 2
Fore
SplineSet
50 200 m 128,-1,1
 50 138 50 138 94 94 c 128,-1,2
 138 50 138 50 200 50 c 128,-1,3
 262 50 262 50 306 94 c 128,-1,4
 350 138 350 138 350 200 c 128,-1,5
 350 262 350 262 306 306 c 128,-1,6
 262 350 262 350 200 350 c 128,-1,7
 138 350 138 350 94 306 c 128,-1,0
 50 262 50 262 50 200 c 128,-1,1
EndSplineSet
EndChar

StartChar: plusminus
Encoding: 177 177 178
Width: 400
Flags: W
LayerCount: 2
Fore
SplineSet
50 200 m 128,-1,1
 50 138 50 138 94 94 c 128,-1,2
 138 50 138 50 200 50 c 128,-1,3
 262 50 262 50 306 94 c 128,-1,4
 350 138 350 138 350 200 c 128,-1,5
 350 262 350 262 306 306 c 128,-1,6
 262 350 262 350 200 350 c 128,-1,7
 138 350 138 350 94 306 c 128,-1,0
 50 262 50 262 50 200 c 128,-1,1
EndSplineSet
EndChar

StartChar: uni00B2
Encoding: 178 178 179
Width: 400
Flags: W
LayerCount: 2
Fore
SplineSet
50 200 m 128,-1,1
 50 138 50 138 94 94 c 128,-1,2
 138 50 138 50 200 50 c 128,-1,3
 262 50 262 50 306 94 c 128,-1,4
 350 138 350 138 350 200 c 128,-1,5
 350 262 350 262 306 306 c 128,-1,6
 262 350 262 350 200 350 c 128,-1,7
 138 350 138 350 94 306 c 128,-1,0
 50 262 50 262 50 200 c 128,-1,1
EndSplineSet
EndChar

StartChar: uni00B3
Encoding: 179 179 180
Width: 400
Flags: W
LayerCount: 2
Fore
SplineSet
50 200 m 128,-1,1
 50 138 50 138 94 94 c 128,-1,2
 138 50 138 50 200 50 c 128,-1,3
 262 50 262 50 306 94 c 128,-1,4
 350 138 350 138 350 200 c 128,-1,5
 350 262 350 262 306 306 c 128,-1,6
 262 350 262 350 200 350 c 128,-1,7
 138 350 138 350 94 306 c 128,-1,0
 50 262 50 262 50 200 c 128,-1,1
EndSplineSet
EndChar

StartChar: acute
Encoding: 180 180 181
Width: 400
Flags: W
LayerCount: 2
Fore
SplineSet
50 200 m 128,-1,1
 50 138 50 138 94 94 c 128,-1,2
 138 50 138 50 200 50 c 128,-1,3
 262 50 262 50 306 94 c 128,-1,4
 350 138 350 138 350 200 c 128,-1,5
 350 262 350 262 306 306 c 128,-1,6
 262 350 262 350 200 350 c 128,-1,7
 138 350 138 350 94 306 c 128,-1,0
 50 262 50 262 50 200 c 128,-1,1
EndSplineSet
EndChar

StartChar: mu
Encoding: 181 181 182
Width: 400
Flags: W
LayerCount: 2
Fore
SplineSet
50 200 m 128,-1,1
 50 138 50 138 94 94 c 128,-1,2
 138 50 138 50 200 50 c 128,-1,3
 262 50 262 50 306 94 c 128,-1,4
 350 138 350 138 350 200 c 128,-1,5
 350 262 350 262 306 306 c 128,-1,6
 262 350 262 350 200 350 c 128,-1,7
 138 350 138 350 94 306 c 128,-1,0
 50 262 50 262 50 200 c 128,-1,1
EndSplineSet
EndChar

StartChar: paragraph
Encoding: 182 182 183
Width: 400
Flags: W
LayerCount: 2
Fore
SplineSet
50 200 m 128,-1,1
 50 138 50 138 94 94 c 128,-1,2
 138 50 138 50 200 50 c 128,-1,3
 262 50 262 50 306 94 c 128,-1,4
 350 138 350 138 350 200 c 128,-1,5
 350 262 350 262 306 306 c 128,-1,6
 262 350 262 350 200 350 c 128,-1,7
 138 350 138 350 94 306 c 128,-1,0
 50 262 50 262 50 200 c 128,-1,1
EndSplineSet
EndChar

StartChar: periodcentered
Encoding: 183 183 184
Width: 400
Flags: W
LayerCount: 2
Fore
SplineSet
50 200 m 128,-1,1
 50 138 50 138 94 94 c 128,-1,2
 138 50 138 50 200 50 c 128,-1,3
 262 50 262 50 306 94 c 128,-1,4
 350 138 350 138 350 200 c 128,-1,5
 350 262 350 262 306 306 c 128,-1,6
 262 350 262 350 200 350 c 128,-1,7
 138 350 138 350 94 306 c 128,-1,0
 50 262 50 262 50 200 c 128,-1,1
EndSplineSet
EndChar

StartChar: cedilla
Encoding: 184 184 185
Width: 400
Flags: W
LayerCount: 2
Fore
SplineSet
50 200 m 128,-1,1
 50 138 50 138 94 94 c 128,-1,2
 138 50 138 50 200 50 c 128,-1,3
 262 50 262 50 306 94 c 128,-1,4
 350 138 350 138 350 200 c 128,-1,5
 350 262 350 262 306 306 c 128,-1,6
 262 350 262 350 200 350 c 128,-1,7
 138 350 138 350 94 306 c 128,-1,0
 50 262 50 262 50 200 c 128,-1,1
EndSplineSet
EndChar

StartChar: uni00B9
Encoding: 185 185 186
Width: 400
Flags: W
LayerCount: 2
Fore
SplineSet
50 200 m 128,-1,1
 50 138 50 138 94 94 c 128,-1,2
 138 50 138 50 200 50 c 128,-1,3
 262 50 262 50 306 94 c 128,-1,4
 350 138 350 138 350 200 c 128,-1,5
 350 262 350 262 306 306 c 128,-1,6
 262 350 262 350 200 350 c 128,-1,7
 138 350 138 350 94 306 c 128,-1,0
 50 262 50 262 50 200 c 128,-1,1
EndSplineSet
EndChar

StartChar: ordmasculine
Encoding: 186 186 187
Width: 400
Flags: W
LayerCount: 2
Fore
SplineSet
50 200 m 128,-1,1
 50 138 50 138 94 94 c 128,-1,2
 138 50 138 50 200 50 c 128,-1,3
 262 50 262 50 306 94 c 128,-1,4
 350 138 350 138 350 200 c 128,-1,5
 350 262 350 262 306 306 c 128,-1,6
 262 350 262 350 200 350 c 128,-1,7
 138 350 138 350 94 306 c 128,-1,0
 50 262 50 262 50 200 c 128,-1,1
EndSplineSet
EndChar

StartChar: guillemotright
Encoding: 187 187 188
Width: 400
Flags: W
LayerCount: 2
Fore
SplineSet
50 200 m 128,-1,1
 50 138 50 138 94 94 c 128,-1,2
 138 50 138 50 200 50 c 128,-1,3
 262 50 262 50 306 94 c 128,-1,4
 350 138 350 138 350 200 c 128,-1,5
 350 262 350 262 306 306 c 128,-1,6
 262 350 262 350 200 350 c 128,-1,7
 138 350 138 350 94 306 c 128,-1,0
 50 262 50 262 50 200 c 128,-1,1
EndSplineSet
EndChar

StartChar: onequarter
Encoding: 188 188 189
Width: 400
Flags: W
LayerCount: 2
Fore
SplineSet
50 200 m 128,-1,1
 50 138 50 138 94 94 c 128,-1,2
 138 50 138 50 200 50 c 128,-1,3
 262 50 262 50 306 94 c 128,-1,4
 350 138 350 138 350 200 c 128,-1,5
 350 262 350 262 306 306 c 128,-1,6
 262 350 262 350 200 350 c 128,-1,7
 138 350 138 350 94 306 c 128,-1,0
 50 262 50 262 50 200 c 128,-1,1
EndSplineSet
EndChar

StartChar: onehalf
Encoding: 189 189 190
Width: 400
Flags: W
LayerCount: 2
Fore
SplineSet
50 200 m 128,-1,1
 50 138 50 138 94 94 c 128,-1,2
 138 50 138 50 200 50 c 128,-1,3
 262 50 262 50 306 94 c 128,-1,4
 350 138 350 138 350 200 c 128,-1,5
 350 262 350 262 306 306 c 128,-1,6
 262 350 262 350 200 350 c 128,-1,7
 138 350 138 350 94 306 c 128,-1,0
 50 262 50 262 50 200 c 128,-1,1
EndSplineSet
EndChar

StartChar: threequarters
Encoding: 190 190 191
Width: 400
Flags: W
LayerCount: 2
Fore
SplineSet
50 200 m 128,-1,1
 50 138 50 138 94 94 c 128,-1,2
 138 50 138 50 200 50 c 128,-1,3
 262 50 262 50 306 94 c 128,-1,4
 350 138 350 138 350 200 c 128,-1,5
 350 262 350 262 306 306 c 128,-1,6
 262 350 262 350 200 350 c 128,-1,7
 138 350 138 350 94 306 c 128,-1,0
 50 262 50 262 50 200 c 128,-1,1
EndSplineSet
EndChar

StartChar: questiondown
Encoding: 191 191 192
Width: 400
Flags: W
LayerCount: 2
Fore
SplineSet
50 200 m 128,-1,1
 50 138 50 138 94 94 c 128,-1,2
 138 50 138 50 200 50 c 128,-1,3
 262 50 262 50 306 94 c 128,-1,4
 350 138 350 138 350 200 c 128,-1,5
 350 262 350 262 306 306 c 128,-1,6
 262 350 262 350 200 350 c 128,-1,7
 138 350 138 350 94 306 c 128,-1,0
 50 262 50 262 50 200 c 128,-1,1
EndSplineSet
EndChar

StartChar: Agrave
Encoding: 192 192 193
Width: 400
Flags: W
LayerCount: 2
Fore
SplineSet
50 200 m 128,-1,1
 50 138 50 138 94 94 c 128,-1,2
 138 50 138 50 200 50 c 128,-1,3
 262 50 262 50 306 94 c 128,-1,4
 350 138 350 138 350 200 c 128,-1,5
 350 262 350 262 306 306 c 128,-1,6
 262 350 262 350 200 350 c 128,-1,7
 138 350 138 350 94 306 c 128,-1,0
 50 262 50 262 50 200 c 128,-1,1
EndSplineSet
EndChar

StartChar: Aacute
Encoding: 193 193 194
Width: 400
Flags: W
LayerCount: 2
Fore
SplineSet
50 200 m 128,-1,1
 50 138 50 138 94 94 c 128,-1,2
 138 50 138 50 200 50 c 128,-1,3
 262 50 262 50 306 94 c 128,-1,4
 350 138 350 138 350 200 c 128,-1,5
 350 262 350 262 306 306 c 128,-1,6
 262 350 262 350 200 350 c 128,-1,7
 138 350 138 350 94 306 c 128,-1,0
 50 262 50 262 50 200 c 128,-1,1
EndSplineSet
EndChar

StartChar: Acircumflex
Encoding: 194 194 195
Width: 400
Flags: W
LayerCount: 2
Fore
SplineSet
50 200 m 128,-1,1
 50 138 50 138 94 94 c 128,-1,2
 138 50 138 50 200 50 c 128,-1,3
 262 50 262 50 306 94 c 128,-1,4
 350 138 350 138 350 200 c 128,-1,5
 350 262 350 262 306 306 c 128,-1,6
 262 350 262 350 200 350 c 128,-1,7
 138 350 138 350 94 306 c 128,-1,0
 50 262 50 262 50 200 c 128,-1,1
EndSplineSet
EndChar

StartChar: Atilde
Encoding: 195 195 196
Width: 400
Flags: W
LayerCount: 2
Fore
SplineSet
50 200 m 128,-1,1
 50 138 50 138 94 94 c 128,-1,2
 138 50 138 50 200 50 c 128,-1,3
 262 50 262 50 306 94 c 128,-1,4
 350 138 350 138 350 200 c 128,-1,5
 350 262 350 262 306 306 c 128,-1,6
 262 350 262 350 200 350 c 128,-1,7
 138 350 138 350 94 306 c 128,-1,0
 50 262 50 262 50 200 c 128,-1,1
EndSplineSet
EndChar

StartChar: Adieresis
Encoding: 196 196 197
Width: 400
Flags: W
LayerCount: 2
Fore
SplineSet
50 200 m 128,-1,1
 50 138 50 138 94 94 c 128,-1,2
 138 50 138 50 200 50 c 128,-1,3
 262 50 262 50 306 94 c 128,-1,4
 350 138 350 138 350 200 c 128,-1,5
 350 262 350 262 306 306 c 128,-1,6
 262 350 262 350 200 350 c 128,-1,7
 138 350 138 350 94 306 c 128,-1,0
 50 262 50 262 50 200 c 128,-1,1
EndSplineSet
EndChar

StartChar: Aring
Encoding: 197 197 198
Width: 400
Flags: W
LayerCount: 2
Fore
SplineSet
50 200 m 128,-1,1
 50 138 50 138 94 94 c 128,-1,2
 138 50 138 50 200 50 c 128,-1,3
 262 50 262 50 306 94 c 128,-1,4
 350 138 350 138 350 200 c 128,-1,5
 350 262 350 262 306 306 c 128,-1,6
 262 350 262 350 200 350 c 128,-1,7
 138 350 138 350 94 306 c 128,-1,0
 50 262 50 262 50 200 c 128,-1,1
EndSplineSet
EndChar

StartChar: AE
Encoding: 198 198 199
Width: 400
Flags: W
LayerCount: 2
Fore
SplineSet
50 200 m 128,-1,1
 50 138 50 138 94 94 c 128,-1,2
 138 50 138 50 200 50 c 128,-1,3
 262 50 262 50 306 94 c 128,-1,4
 350 138 350 138 350 200 c 128,-1,5
 350 262 350 262 306 306 c 128,-1,6
 262 350 262 350 200 350 c 128,-1,7
 138 350 138 350 94 306 c 128,-1,0
 50 262 50 262 50 200 c 128,-1,1
EndSplineSet
EndChar

StartChar: Ccedilla
Encoding: 199 199 200
Width: 400
Flags: W
LayerCount: 2
Fore
SplineSet
50 200 m 128,-1,1
 50 138 50 138 94 94 c 128,-1,2
 138 50 138 50 200 50 c 128,-1,3
 262 50 262 50 306 94 c 128,-1,4
 350 138 350 138 350 200 c 128,-1,5
 350 262 350 262 306 306 c 128,-1,6
 262 350 262 350 200 350 c 128,-1,7
 138 350 138 350 94 306 c 128,-1,0
 50 262 50 262 50 200 c 128,-1,1
EndSplineSet
EndChar

StartChar: Egrave
Encoding: 200 200 201
Width: 400
Flags: W
LayerCount: 2
Fore
SplineSet
50 200 m 128,-1,1
 50 138 50 138 94 94 c 128,-1,2
 138 50 138 50 200 50 c 128,-1,3
 262 50 262 50 306 94 c 128,-1,4
 350 138 350 138 350 200 c 128,-1,5
 350 262 350 262 306 306 c 128,-1,6
 262 350 262 350 200 350 c 128,-1,7
 138 350 138 350 94 306 c 128,-1,0
 50 262 50 262 50 200 c 128,-1,1
EndSplineSet
EndChar

StartChar: Eacute
Encoding: 201 201 202
Width: 400
Flags: W
LayerCount: 2
Fore
SplineSet
50 200 m 128,-1,1
 50 138 50 138 94 94 c 128,-1,2
 138 50 138 50 200 50 c 128,-1,3
 262 50 262 50 306 94 c 128,-1,4
 350 138 350 138 350 200 c 128,-1,5
 350 262 350 262 306 306 c 128,-1,6
 262 350 262 350 200 350 c 128,-1,7
 138 350 138 350 94 306 c 128,-1,0
 50 262 50 262 50 200 c 128,-1,1
EndSplineSet
EndChar

StartChar: Ecircumflex
Encoding: 202 202 203
Width: 400
Flags: W
LayerCount: 2
Fore
SplineSet
50 200 m 128,-1,1
 50 138 50 138 94 94 c 128,-1,2
 138 50 138 50 200 50 c 128,-1,3
 262 50 262 50 306 94 c 128,-1,4
 350 138 350 138 350 200 c 128,-1,5
 350 262 350 262 306 306 c 128,-1,6
 262 350 262 350 200 350 c 128,-1,7
 138 350 138 350 94 306 c 128,-1,0
 50 262 50 262 50 200 c 128,-1,1
EndSplineSet
EndChar

StartChar: Edieresis
Encoding: 203 203 204
Width: 400
Flags: W
LayerCount: 2
Fore
SplineSet
50 200 m 128,-1,1
 50 138 50 138 94 94 c 128,-1,2
 138 50 138 50 200 50 c 128,-1,3
 262 50 262 50 306 94 c 128,-1,4
 350 138 350 138 350 200 c 128,-1,5
 350 262 350 262 306 306 c 128,-1,6
 262 350 262 350 200 350 c 128,-1,7
 138 350 138 350 94 306 c 128,-1,0
 50 262 50 262 50 200 c 128,-1,1
EndSplineSet
EndChar

StartChar: Igrave
Encoding: 204 204 205
Width: 400
Flags: W
LayerCount: 2
Fore
SplineSet
50 200 m 128,-1,1
 50 138 50 138 94 94 c 128,-1,2
 138 50 138 50 200 50 c 128,-1,3
 262 50 262 50 306 94 c 128,-1,4
 350 138 350 138 350 200 c 128,-1,5
 350 262 350 262 306 306 c 128,-1,6
 262 350 262 350 200 350 c 128,-1,7
 138 350 138 350 94 306 c 128,-1,0
 50 262 50 262 50 200 c 128,-1,1
EndSplineSet
EndChar

StartChar: Iacute
Encoding: 205 205 206
Width: 400
Flags: W
LayerCount: 2
Fore
SplineSet
50 200 m 128,-1,1
 50 138 50 138 94 94 c 128,-1,2
 138 50 138 50 200 50 c 128,-1,3
 262 50 262 50 306 94 c 128,-1,4
 350 138 350 138 350 200 c 128,-1,5
 350 262 350 262 306 306 c 128,-1,6
 262 350 262 350 200 350 c 128,-1,7
 138 350 138 350 94 306 c 128,-1,0
 50 262 50 262 50 200 c 128,-1,1
EndSplineSet
EndChar

StartChar: Icircumflex
Encoding: 206 206 207
Width: 400
Flags: W
LayerCount: 2
Fore
SplineSet
50 200 m 128,-1,1
 50 138 50 138 94 94 c 128,-1,2
 138 50 138 50 200 50 c 128,-1,3
 262 50 262 50 306 94 c 128,-1,4
 350 138 350 138 350 200 c 128,-1,5
 350 262 350 262 306 306 c 128,-1,6
 262 350 262 350 200 350 c 128,-1,7
 138 350 138 350 94 306 c 128,-1,0
 50 262 50 262 50 200 c 128,-1,1
EndSplineSet
EndChar

StartChar: Idieresis
Encoding: 207 207 208
Width: 400
Flags: W
LayerCount: 2
Fore
SplineSet
50 200 m 128,-1,1
 50 138 50 138 94 94 c 128,-1,2
 138 50 138 50 200 50 c 128,-1,3
 262 50 262 50 306 94 c 128,-1,4
 350 138 350 138 350 200 c 128,-1,5
 350 262 350 262 306 306 c 128,-1,6
 262 350 262 350 200 350 c 128,-1,7
 138 350 138 350 94 306 c 128,-1,0
 50 262 50 262 50 200 c 128,-1,1
EndSplineSet
EndChar

StartChar: Eth
Encoding: 208 208 209
Width: 400
Flags: W
LayerCount: 2
Fore
SplineSet
50 200 m 128,-1,1
 50 138 50 138 94 94 c 128,-1,2
 138 50 138 50 200 50 c 128,-1,3
 262 50 262 50 306 94 c 128,-1,4
 350 138 350 138 350 200 c 128,-1,5
 350 262 350 262 306 306 c 128,-1,6
 262 350 262 350 200 350 c 128,-1,7
 138 350 138 350 94 306 c 128,-1,0
 50 262 50 262 50 200 c 128,-1,1
EndSplineSet
EndChar

StartChar: Ntilde
Encoding: 209 209 210
Width: 400
Flags: W
LayerCount: 2
Fore
SplineSet
50 200 m 128,-1,1
 50 138 50 138 94 94 c 128,-1,2
 138 50 138 50 200 50 c 128,-1,3
 262 50 262 50 306 94 c 128,-1,4
 350 138 350 138 350 200 c 128,-1,5
 350 262 350 262 306 306 c 128,-1,6
 262 350 262 350 200 350 c 128,-1,7
 138 350 138 350 94 306 c 128,-1,0
 50 262 50 262 50 200 c 128,-1,1
EndSplineSet
EndChar

StartChar: Ograve
Encoding: 210 210 211
Width: 400
Flags: W
LayerCount: 2
Fore
SplineSet
50 200 m 128,-1,1
 50 138 50 138 94 94 c 128,-1,2
 138 50 138 50 200 50 c 128,-1,3
 262 50 262 50 306 94 c 128,-1,4
 350 138 350 138 350 200 c 128,-1,5
 350 262 350 262 306 306 c 128,-1,6
 262 350 262 350 200 350 c 128,-1,7
 138 350 138 350 94 306 c 128,-1,0
 50 262 50 262 50 200 c 128,-1,1
EndSplineSet
EndChar

StartChar: Oacute
Encoding: 211 211 212
Width: 400
Flags: W
LayerCount: 2
Fore
SplineSet
50 200 m 128,-1,1
 50 138 50 138 94 94 c 128,-1,2
 138 50 138 50 200 50 c 128,-1,3
 262 50 262 50 306 94 c 128,-1,4
 350 138 350 138 350 200 c 128,-1,5
 350 262 350 262 306 306 c 128,-1,6
 262 350 262 350 200 350 c 128,-1,7
 138 350 138 350 94 306 c 128,-1,0
 50 262 50 262 50 200 c 128,-1,1
EndSplineSet
EndChar

StartChar: Ocircumflex
Encoding: 212 212 213
Width: 400
Flags: W
LayerCount: 2
Fore
SplineSet
50 200 m 128,-1,1
 50 138 50 138 94 94 c 128,-1,2
 138 50 138 50 200 50 c 128,-1,3
 262 50 262 50 306 94 c 128,-1,4
 350 138 350 138 350 200 c 128,-1,5
 350 262 350 262 306 306 c 128,-1,6
 262 350 262 350 200 350 c 128,-1,7
 138 350 138 350 94 306 c 128,-1,0
 50 262 50 262 50 200 c 128,-1,1
EndSplineSet
EndChar

StartChar: Otilde
Encoding: 213 213 214
Width: 400
Flags: W
LayerCount: 2
Fore
SplineSet
50 200 m 128,-1,1
 50 138 50 138 94 94 c 128,-1,2
 138 50 138 50 200 50 c 128,-1,3
 262 50 262 50 306 94 c 128,-1,4
 350 138 350 138 350 200 c 128,-1,5
 350 262 350 262 306 306 c 128,-1,6
 262 350 262 350 200 350 c 128,-1,7
 138 350 138 350 94 306 c 128,-1,0
 50 262 50 262 50 200 c 128,-1,1
EndSplineSet
EndChar

StartChar: Odieresis
Encoding: 214 214 215
Width: 400
Flags: W
LayerCount: 2
Fore
SplineSet
50 200 m 128,-1,1
 50 138 50 138 94 94 c 128,-1,2
 138 50 138 50 200 50 c 128,-1,3
 262 50 262 50 306 94 c 128,-1,4
 350 138 350 138 350 200 c 128,-1,5
 350 262 350 262 306 306 c 128,-1,6
 262 350 262 350 200 350 c 128,-1,7
 138 350 138 350 94 306 c 128,-1,0
 50 262 50 262 50 200 c 128,-1,1
EndSplineSet
EndChar

StartChar: multiply
Encoding: 215 215 216
Width: 400
Flags: W
LayerCount: 2
Fore
SplineSet
50 200 m 128,-1,1
 50 138 50 138 94 94 c 128,-1,2
 138 50 138 50 200 50 c 128,-1,3
 262 50 262 50 306 94 c 128,-1,4
 350 138 350 138 350 200 c 128,-1,5
 350 262 350 262 306 306 c 128,-1,6
 262 350 262 350 200 350 c 128,-1,7
 138 350 138 350 94 306 c 128,-1,0
 50 262 50 262 50 200 c 128,-1,1
EndSplineSet
EndChar

StartChar: Oslash
Encoding: 216 216 217
Width: 400
Flags: W
LayerCount: 2
Fore
SplineSet
50 200 m 128,-1,1
 50 138 50 138 94 94 c 128,-1,2
 138 50 138 50 200 50 c 128,-1,3
 262 50 262 50 306 94 c 128,-1,4
 350 138 350 138 350 200 c 128,-1,5
 350 262 350 262 306 306 c 128,-1,6
 262 350 262 350 200 350 c 128,-1,7
 138 350 138 350 94 306 c 128,-1,0
 50 262 50 262 50 200 c 128,-1,1
EndSplineSet
EndChar

StartChar: Ugrave
Encoding: 217 217 218
Width: 400
Flags: W
LayerCount: 2
Fore
SplineSet
50 200 m 128,-1,1
 50 138 50 138 94 94 c 128,-1,2
 138 50 138 50 200 50 c 128,-1,3
 262 50 262 50 306 94 c 128,-1,4
 350 138 350 138 350 200 c 128,-1,5
 350 262 350 262 306 306 c 128,-1,6
 262 350 262 350 200 350 c 128,-1,7
 138 350 138 350 94 306 c 128,-1,0
 50 262 50 262 50 200 c 128,-1,1
EndSplineSet
EndChar

StartChar: Uacute
Encoding: 218 218 219
Width: 400
Flags: W
LayerCount: 2
Fore
SplineSet
50 200 m 128,-1,1
 50 138 50 138 94 94 c 128,-1,2
 138 50 138 50 200 50 c 128,-1,3
 262 50 262 50 306 94 c 128,-1,4
 350 138 350 138 350 200 c 128,-1,5
 350 262 350 262 306 306 c 128,-1,6
 262 350 262 350 200 350 c 128,-1,7
 138 350 138 350 94 306 c 128,-1,0
 50 262 50 262 50 200 c 128,-1,1
EndSplineSet
EndChar

StartChar: Ucircumflex
Encoding: 219 219 220
Width: 400
Flags: W
LayerCount: 2
Fore
SplineSet
50 200 m 128,-1,1
 50 138 50 138 94 94 c 128,-1,2
 138 50 138 50 200 50 c 128,-1,3
 262 50 262 50 306 94 c 128,-1,4
 350 138 350 138 350 200 c 128,-1,5
 350 262 350 262 306 306 c 128,-1,6
 262 350 262 350 200 350 c 128,-1,7
 138 350 138 350 94 306 c 128,-1,0
 50 262 50 262 50 200 c 128,-1,1
EndSplineSet
EndChar

StartChar: Udieresis
Encoding: 220 220 221
Width: 400
Flags: W
LayerCount: 2
Fore
SplineSet
50 200 m 128,-1,1
 50 138 50 138 94 94 c 128,-1,2
 138 50 138 50 200 50 c 128,-1,3
 262 50 262 50 306 94 c 128,-1,4
 350 138 350 138 350 200 c 128,-1,5
 350 262 350 262 306 306 c 128,-1,6
 262 350 262 350 200 350 c 128,-1,7
 138 350 138 350 94 306 c 128,-1,0
 50 262 50 262 50 200 c 128,-1,1
EndSplineSet
EndChar

StartChar: Yacute
Encoding: 221 221 222
Width: 400
Flags: W
LayerCount: 2
Fore
SplineSet
50 200 m 128,-1,1
 50 138 50 138 94 94 c 128,-1,2
 138 50 138 50 200 50 c 128,-1,3
 262 50 262 50 306 94 c 128,-1,4
 350 138 350 138 350 200 c 128,-1,5
 350 262 350 262 306 306 c 128,-1,6
 262 350 262 350 200 350 c 128,-1,7
 138 350 138 350 94 306 c 128,-1,0
 50 262 50 262 50 200 c 128,-1,1
EndSplineSet
EndChar

StartChar: Thorn
Encoding: 222 222 223
Width: 400
Flags: W
LayerCount: 2
Fore
SplineSet
50 200 m 128,-1,1
 50 138 50 138 94 94 c 128,-1,2
 138 50 138 50 200 50 c 128,-1,3
 262 50 262 50 306 94 c 128,-1,4
 350 138 350 138 350 200 c 128,-1,5
 350 262 350 262 306 306 c 128,-1,6
 262 350 262 350 200 350 c 128,-1,7
 138 350 138 350 94 306 c 128,-1,0
 50 262 50 262 50 200 c 128,-1,1
EndSplineSet
EndChar

StartChar: germandbls
Encoding: 223 223 224
Width: 400
Flags: W
LayerCount: 2
Fore
SplineSet
50 200 m 128,-1,1
 50 138 50 138 94 94 c 128,-1,2
 138 50 138 50 200 50 c 128,-1,3
 262 50 262 50 306 94 c 128,-1,4
 350 138 350 138 350 200 c 128,-1,5
 350 262 350 262 306 306 c 128,-1,6
 262 350 262 350 200 350 c 128,-1,7
 138 350 138 350 94 306 c 128,-1,0
 50 262 50 262 50 200 c 128,-1,1
EndSplineSet
EndChar

StartChar: agrave
Encoding: 224 224 225
Width: 400
Flags: W
LayerCount: 2
Fore
SplineSet
50 200 m 128,-1,1
 50 138 50 138 94 94 c 128,-1,2
 138 50 138 50 200 50 c 128,-1,3
 262 50 262 50 306 94 c 128,-1,4
 350 138 350 138 350 200 c 128,-1,5
 350 262 350 262 306 306 c 128,-1,6
 262 350 262 350 200 350 c 128,-1,7
 138 350 138 350 94 306 c 128,-1,0
 50 262 50 262 50 200 c 128,-1,1
EndSplineSet
EndChar

StartChar: aacute
Encoding: 225 225 226
Width: 400
Flags: W
LayerCount: 2
Fore
SplineSet
50 200 m 128,-1,1
 50 138 50 138 94 94 c 128,-1,2
 138 50 138 50 200 50 c 128,-1,3
 262 50 262 50 306 94 c 128,-1,4
 350 138 350 138 350 200 c 128,-1,5
 350 262 350 262 306 306 c 128,-1,6
 262 350 262 350 200 350 c 128,-1,7
 138 350 138 350 94 306 c 128,-1,0
 50 262 50 262 50 200 c 128,-1,1
EndSplineSet
EndChar

StartChar: acircumflex
Encoding: 226 226 227
Width: 400
Flags: W
LayerCount: 2
Fore
SplineSet
50 200 m 128,-1,1
 50 138 50 138 94 94 c 128,-1,2
 138 50 138 50 200 50 c 128,-1,3
 262 50 262 50 306 94 c 128,-1,4
 350 138 350 138 350 200 c 128,-1,5
 350 262 350 262 306 306 c 128,-1,6
 262 350 262 350 200 350 c 128,-1,7
 138 350 138 350 94 306 c 128,-1,0
 50 262 50 262 50 200 c 128,-1,1
EndSplineSet
EndChar

StartChar: atilde
Encoding: 227 227 228
Width: 400
Flags: W
LayerCount: 2
Fore
SplineSet
50 200 m 128,-1,1
 50 138 50 138 94 94 c 128,-1,2
 138 50 138 50 200 50 c 128,-1,3
 262 50 262 50 306 94 c 128,-1,4
 350 138 350 138 350 200 c 128,-1,5
 350 262 350 262 306 306 c 128,-1,6
 262 350 262 350 200 350 c 128,-1,7
 138 350 138 350 94 306 c 128,-1,0
 50 262 50 262 50 200 c 128,-1,1
EndSplineSet
EndChar

StartChar: adieresis
Encoding: 228 228 229
Width: 400
Flags: W
LayerCount: 2
Fore
SplineSet
50 200 m 128,-1,1
 50 138 50 138 94 94 c 128,-1,2
 138 50 138 50 200 50 c 128,-1,3
 262 50 262 50 306 94 c 128,-1,4
 350 138 350 138 350 200 c 128,-1,5
 350 262 350 262 306 306 c 128,-1,6
 262 350 262 350 200 350 c 128,-1,7
 138 350 138 350 94 306 c 128,-1,0
 50 262 50 262 50 200 c 128,-1,1
EndSplineSet
EndChar

StartChar: aring
Encoding: 229 229 230
Width: 400
Flags: W
LayerCount: 2
Fore
SplineSet
50 200 m 128,-1,1
 50 138 50 138 94 94 c 128,-1,2
 138 50 138 50 200 50 c 128,-1,3
 262 50 262 50 306 94 c 128,-1,4
 350 138 350 138 350 200 c 128,-1,5
 350 262 350 262 306 306 c 128,-1,6
 262 350 262 350 200 350 c 128,-1,7
 138 350 138 350 94 306 c 128,-1,0
 50 262 50 262 50 200 c 128,-1,1
EndSplineSet
EndChar

StartChar: ae
Encoding: 230 230 231
Width: 400
Flags: W
LayerCount: 2
Fore
SplineSet
50 200 m 128,-1,1
 50 138 50 138 94 94 c 128,-1,2
 138 50 138 50 200 50 c 128,-1,3
 262 50 262 50 306 94 c 128,-1,4
 350 138 350 138 350 200 c 128,-1,5
 350 262 350 262 306 306 c 128,-1,6
 262 350 262 350 200 350 c 128,-1,7
 138 350 138 350 94 306 c 128,-1,0
 50 262 50 262 50 200 c 128,-1,1
EndSplineSet
EndChar

StartChar: ccedilla
Encoding: 231 231 232
Width: 400
Flags: W
LayerCount: 2
Fore
SplineSet
50 200 m 128,-1,1
 50 138 50 138 94 94 c 128,-1,2
 138 50 138 50 200 50 c 128,-1,3
 262 50 262 50 306 94 c 128,-1,4
 350 138 350 138 350 200 c 128,-1,5
 350 262 350 262 306 306 c 128,-1,6
 262 350 262 350 200 350 c 128,-1,7
 138 350 138 350 94 306 c 128,-1,0
 50 262 50 262 50 200 c 128,-1,1
EndSplineSet
EndChar

StartChar: egrave
Encoding: 232 232 233
Width: 400
Flags: W
LayerCount: 2
Fore
SplineSet
50 200 m 128,-1,1
 50 138 50 138 94 94 c 128,-1,2
 138 50 138 50 200 50 c 128,-1,3
 262 50 262 50 306 94 c 128,-1,4
 350 138 350 138 350 200 c 128,-1,5
 350 262 350 262 306 306 c 128,-1,6
 262 350 262 350 200 350 c 128,-1,7
 138 350 138 350 94 306 c 128,-1,0
 50 262 50 262 50 200 c 128,-1,1
EndSplineSet
EndChar

StartChar: eacute
Encoding: 233 233 234
Width: 400
Flags: W
LayerCount: 2
Fore
SplineSet
50 200 m 128,-1,1
 50 138 50 138 94 94 c 128,-1,2
 138 50 138 50 200 50 c 128,-1,3
 262 50 262 50 306 94 c 128,-1,4
 350 138 350 138 350 200 c 128,-1,5
 350 262 350 262 306 306 c 128,-1,6
 262 350 262 350 200 350 c 128,-1,7
 138 350 138 350 94 306 c 128,-1,0
 50 262 50 262 50 200 c 128,-1,1
EndSplineSet
EndChar

StartChar: ecircumflex
Encoding: 234 234 235
Width: 400
Flags: W
LayerCount: 2
Fore
SplineSet
50 200 m 128,-1,1
 50 138 50 138 94 94 c 128,-1,2
 138 50 138 50 200 50 c 128,-1,3
 262 50 262 50 306 94 c 128,-1,4
 350 138 350 138 350 200 c 128,-1,5
 350 262 350 262 306 306 c 128,-1,6
 262 350 262 350 200 350 c 128,-1,7
 138 350 138 350 94 306 c 128,-1,0
 50 262 50 262 50 200 c 128,-1,1
EndSplineSet
EndChar

StartChar: edieresis
Encoding: 235 235 236
Width: 400
Flags: W
LayerCount: 2
Fore
SplineSet
50 200 m 128,-1,1
 50 138 50 138 94 94 c 128,-1,2
 138 50 138 50 200 50 c 128,-1,3
 262 50 262 50 306 94 c 128,-1,4
 350 138 350 138 350 200 c 128,-1,5
 350 262 350 262 306 306 c 128,-1,6
 262 350 262 350 200 350 c 128,-1,7
 138 350 138 350 94 306 c 128,-1,0
 50 262 50 262 50 200 c 128,-1,1
EndSplineSet
EndChar

StartChar: igrave
Encoding: 236 236 237
Width: 400
Flags: W
LayerCount: 2
Fore
SplineSet
50 200 m 128,-1,1
 50 138 50 138 94 94 c 128,-1,2
 138 50 138 50 200 50 c 128,-1,3
 262 50 262 50 306 94 c 128,-1,4
 350 138 350 138 350 200 c 128,-1,5
 350 262 350 262 306 306 c 128,-1,6
 262 350 262 350 200 350 c 128,-1,7
 138 350 138 350 94 306 c 128,-1,0
 50 262 50 262 50 200 c 128,-1,1
EndSplineSet
EndChar

StartChar: iacute
Encoding: 237 237 238
Width: 400
Flags: W
LayerCount: 2
Fore
SplineSet
50 200 m 128,-1,1
 50 138 50 138 94 94 c 128,-1,2
 138 50 138 50 200 50 c 128,-1,3
 262 50 262 50 306 94 c 128,-1,4
 350 138 350 138 350 200 c 128,-1,5
 350 262 350 262 306 306 c 128,-1,6
 262 350 262 350 200 350 c 128,-1,7
 138 350 138 350 94 306 c 128,-1,0
 50 262 50 262 50 200 c 128,-1,1
EndSplineSet
EndChar

StartChar: icircumflex
Encoding: 238 238 239
Width: 400
Flags: W
LayerCount: 2
Fore
SplineSet
50 200 m 128,-1,1
 50 138 50 138 94 94 c 128,-1,2
 138 50 138 50 200 50 c 128,-1,3
 262 50 262 50 306 94 c 128,-1,4
 350 138 350 138 350 200 c 128,-1,5
 350 262 350 262 306 306 c 128,-1,6
 262 350 262 350 200 350 c 128,-1,7
 138 350 138 350 94 306 c 128,-1,0
 50 262 50 262 50 200 c 128,-1,1
EndSplineSet
EndChar

StartChar: idieresis
Encoding: 239 239 240
Width: 400
Flags: W
LayerCount: 2
Fore
SplineSet
50 200 m 128,-1,1
 50 138 50 138 94 94 c 128,-1,2
 138 50 138 50 200 50 c 128,-1,3
 262 50 262 50 306 94 c 128,-1,4
 350 138 350 138 350 200 c 128,-1,5
 350 262 350 262 306 306 c 128,-1,6
 262 350 262 350 200 350 c 128,-1,7
 138 350 138 350 94 306 c 128,-1,0
 50 262 50 262 50 200 c 128,-1,1
EndSplineSet
EndChar

StartChar: eth
Encoding: 240 240 241
Width: 400
Flags: W
LayerCount: 2
Fore
SplineSet
50 200 m 128,-1,1
 50 138 50 138 94 94 c 128,-1,2
 138 50 138 50 200 50 c 128,-1,3
 262 50 262 50 306 94 c 128,-1,4
 350 138 350 138 350 200 c 128,-1,5
 350 262 350 262 306 306 c 128,-1,6
 262 350 262 350 200 350 c 128,-1,7
 138 350 138 350 94 306 c 128,-1,0
 50 262 50 262 50 200 c 128,-1,1
EndSplineSet
EndChar

StartChar: ntilde
Encoding: 241 241 242
Width: 400
Flags: W
LayerCount: 2
Fore
SplineSet
50 200 m 128,-1,1
 50 138 50 138 94 94 c 128,-1,2
 138 50 138 50 200 50 c 128,-1,3
 262 50 262 50 306 94 c 128,-1,4
 350 138 350 138 350 200 c 128,-1,5
 350 262 350 262 306 306 c 128,-1,6
 262 350 262 350 200 350 c 128,-1,7
 138 350 138 350 94 306 c 128,-1,0
 50 262 50 262 50 200 c 128,-1,1
EndSplineSet
EndChar

StartChar: ograve
Encoding: 242 242 243
Width: 400
Flags: W
LayerCount: 2
Fore
SplineSet
50 200 m 128,-1,1
 50 138 50 138 94 94 c 128,-1,2
 138 50 138 50 200 50 c 128,-1,3
 262 50 262 50 306 94 c 128,-1,4
 350 138 350 138 350 200 c 128,-1,5
 350 262 350 262 306 306 c 128,-1,6
 262 350 262 350 200 350 c 128,-1,7
 138 350 138 350 94 306 c 128,-1,0
 50 262 50 262 50 200 c 128,-1,1
EndSplineSet
EndChar

StartChar: oacute
Encoding: 243 243 244
Width: 400
Flags: W
LayerCount: 2
Fore
SplineSet
50 200 m 128,-1,1
 50 138 50 138 94 94 c 128,-1,2
 138 50 138 50 200 50 c 128,-1,3
 262 50 262 50 306 94 c 128,-1,4
 350 138 350 138 350 200 c 128,-1,5
 350 262 350 262 306 306 c 128,-1,6
 262 350 262 350 200 350 c 128,-1,7
 138 350 138 350 94 306 c 128,-1,0
 50 262 50 262 50 200 c 128,-1,1
EndSplineSet
EndChar

StartChar: ocircumflex
Encoding: 244 244 245
Width: 400
Flags: W
LayerCount: 2
Fore
SplineSet
50 200 m 128,-1,1
 50 138 50 138 94 94 c 128,-1,2
 138 50 138 50 200 50 c 128,-1,3
 262 50 262 50 306 94 c 128,-1,4
 350 138 350 138 350 200 c 128,-1,5
 350 262 350 262 306 306 c 128,-1,6
 262 350 262 350 200 350 c 128,-1,7
 138 350 138 350 94 306 c 128,-1,0
 50 262 50 262 50 200 c 128,-1,1
EndSplineSet
EndChar

StartChar: otilde
Encoding: 245 245 246
Width: 400
Flags: W
LayerCount: 2
Fore
SplineSet
50 200 m 128,-1,1
 50 138 50 138 94 94 c 128,-1,2
 138 50 138 50 200 50 c 128,-1,3
 262 50 262 50 306 94 c 128,-1,4
 350 138 350 138 350 200 c 128,-1,5
 350 262 350 262 306 306 c 128,-1,6
 262 350 262 350 200 350 c 128,-1,7
 138 350 138 350 94 306 c 128,-1,0
 50 262 50 262 50 200 c 128,-1,1
EndSplineSet
EndChar

StartChar: odieresis
Encoding: 246 246 247
Width: 400
Flags: W
LayerCount: 2
Fore
SplineSet
50 200 m 128,-1,1
 50 138 50 138 94 94 c 128,-1,2
 138 50 138 50 200 50 c 128,-1,3
 262 50 262 50 306 94 c 128,-1,4
 350 138 350 138 350 200 c 128,-1,5
 350 262 350 262 306 306 c 128,-1,6
 262 350 262 350 200 350 c 128,-1,7
 138 350 138 350 94 306 c 128,-1,0
 50 262 50 262 50 200 c 128,-1,1
EndSplineSet
EndChar

StartChar: divide
Encoding: 247 247 248
Width: 400
Flags: W
LayerCount: 2
Fore
SplineSet
50 200 m 128,-1,1
 50 138 50 138 94 94 c 128,-1,2
 138 50 138 50 200 50 c 128,-1,3
 262 50 262 50 306 94 c 128,-1,4
 350 138 350 138 350 200 c 128,-1,5
 350 262 350 262 306 306 c 128,-1,6
 262 350 262 350 200 350 c 128,-1,7
 138 350 138 350 94 306 c 128,-1,0
 50 262 50 262 50 200 c 128,-1,1
EndSplineSet
EndChar

StartChar: oslash
Encoding: 248 248 249
Width: 400
Flags: W
LayerCount: 2
Fore
SplineSet
50 200 m 128,-1,1
 50 138 50 138 94 94 c 128,-1,2
 138 50 138 50 200 50 c 128,-1,3
 262 50 262 50 306 94 c 128,-1,4
 350 138 350 138 350 200 c 128,-1,5
 350 262 350 262 306 306 c 128,-1,6
 262 350 262 350 200 350 c 128,-1,7
 138 350 138 350 94 306 c 128,-1,0
 50 262 50 262 50 200 c 128,-1,1
EndSplineSet
EndChar

StartChar: ugrave
Encoding: 249 249 250
Width: 400
Flags: W
LayerCount: 2
Fore
SplineSet
50 200 m 128,-1,1
 50 138 50 138 94 94 c 128,-1,2
 138 50 138 50 200 50 c 128,-1,3
 262 50 262 50 306 94 c 128,-1,4
 350 138 350 138 350 200 c 128,-1,5
 350 262 350 262 306 306 c 128,-1,6
 262 350 262 350 200 350 c 128,-1,7
 138 350 138 350 94 306 c 128,-1,0
 50 262 50 262 50 200 c 128,-1,1
EndSplineSet
EndChar

StartChar: uacute
Encoding: 250 250 251
Width: 400
Flags: W
LayerCount: 2
Fore
SplineSet
50 200 m 128,-1,1
 50 138 50 138 94 94 c 128,-1,2
 138 50 138 50 200 50 c 128,-1,3
 262 50 262 50 306 94 c 128,-1,4
 350 138 350 138 350 200 c 128,-1,5
 350 262 350 262 306 306 c 128,-1,6
 262 350 262 350 200 350 c 128,-1,7
 138 350 138 350 94 306 c 128,-1,0
 50 262 50 262 50 200 c 128,-1,1
EndSplineSet
EndChar

StartChar: ucircumflex
Encoding: 251 251 252
Width: 400
Flags: W
LayerCount: 2
Fore
SplineSet
50 200 m 128,-1,1
 50 138 50 138 94 94 c 128,-1,2
 138 50 138 50 200 50 c 128,-1,3
 262 50 262 50 306 94 c 128,-1,4
 350 138 350 138 350 200 c 128,-1,5
 350 262 350 262 306 306 c 128,-1,6
 262 350 262 350 200 350 c 128,-1,7
 138 350 138 350 94 306 c 128,-1,0
 50 262 50 262 50 200 c 128,-1,1
EndSplineSet
EndChar

StartChar: udieresis
Encoding: 252 252 253
Width: 400
Flags: W
LayerCount: 2
Fore
SplineSet
50 200 m 128,-1,1
 50 138 50 138 94 94 c 128,-1,2
 138 50 138 50 200 50 c 128,-1,3
 262 50 262 50 306 94 c 128,-1,4
 350 138 350 138 350 200 c 128,-1,5
 350 262 350 262 306 306 c 128,-1,6
 262 350 262 350 200 350 c 128,-1,7
 138 350 138 350 94 306 c 128,-1,0
 50 262 50 262 50 200 c 128,-1,1
EndSplineSet
EndChar

StartChar: yacute
Encoding: 253 253 254
Width: 400
Flags: W
LayerCount: 2
Fore
SplineSet
50 200 m 128,-1,1
 50 138 50 138 94 94 c 128,-1,2
 138 50 138 50 200 50 c 128,-1,3
 262 50 262 50 306 94 c 128,-1,4
 350 138 350 138 350 200 c 128,-1,5
 350 262 350 262 306 306 c 128,-1,6
 262 350 262 350 200 350 c 128,-1,7
 138 350 138 350 94 306 c 128,-1,0
 50 262 50 262 50 200 c 128,-1,1
EndSplineSet
EndChar

StartChar: thorn
Encoding: 254 254 255
Width: 400
Flags: W
LayerCount: 2
Fore
SplineSet
50 200 m 128,-1,1
 50 138 50 138 94 94 c 128,-1,2
 138 50 138 50 200 50 c 128,-1,3
 262 50 262 50 306 94 c 128,-1,4
 350 138 350 138 350 200 c 128,-1,5
 350 262 350 262 306 306 c 128,-1,6
 262 350 262 350 200 350 c 128,-1,7
 138 350 138 350 94 306 c 128,-1,0
 50 262 50 262 50 200 c 128,-1,1
EndSplineSet
EndChar

StartChar: ydieresis
Encoding: 255 255 256
Width: 400
Flags: W
LayerCount: 2
Fore
SplineSet
50 200 m 128,-1,1
 50 138 50 138 94 94 c 128,-1,2
 138 50 138 50 200 50 c 128,-1,3
 262 50 262 50 306 94 c 128,-1,4
 350 138 350 138 350 200 c 128,-1,5
 350 262 350 262 306 306 c 128,-1,6
 262 350 262 350 200 350 c 128,-1,7
 138 350 138 350 94 306 c 128,-1,0
 50 262 50 262 50 200 c 128,-1,1
EndSplineSet
EndChar

StartChar: Amacron
Encoding: 256 256 257
Width: 400
Flags: W
LayerCount: 2
Fore
SplineSet
50 200 m 128,-1,1
 50 138 50 138 94 94 c 128,-1,2
 138 50 138 50 200 50 c 128,-1,3
 262 50 262 50 306 94 c 128,-1,4
 350 138 350 138 350 200 c 128,-1,5
 350 262 350 262 306 306 c 128,-1,6
 262 350 262 350 200 350 c 128,-1,7
 138 350 138 350 94 306 c 128,-1,0
 50 262 50 262 50 200 c 128,-1,1
EndSplineSet
EndChar

StartChar: amacron
Encoding: 257 257 258
Width: 400
Flags: W
LayerCount: 2
Fore
SplineSet
50 200 m 128,-1,1
 50 138 50 138 94 94 c 128,-1,2
 138 50 138 50 200 50 c 128,-1,3
 262 50 262 50 306 94 c 128,-1,4
 350 138 350 138 350 200 c 128,-1,5
 350 262 350 262 306 306 c 128,-1,6
 262 350 262 350 200 350 c 128,-1,7
 138 350 138 350 94 306 c 128,-1,0
 50 262 50 262 50 200 c 128,-1,1
EndSplineSet
EndChar

StartChar: Abreve
Encoding: 258 258 259
Width: 400
Flags: W
LayerCount: 2
Fore
SplineSet
50 200 m 128,-1,1
 50 138 50 138 94 94 c 128,-1,2
 138 50 138 50 200 50 c 128,-1,3
 262 50 262 50 306 94 c 128,-1,4
 350 138 350 138 350 200 c 128,-1,5
 350 262 350 262 306 306 c 128,-1,6
 262 350 262 350 200 350 c 128,-1,7
 138 350 138 350 94 306 c 128,-1,0
 50 262 50 262 50 200 c 128,-1,1
EndSplineSet
EndChar

StartChar: abreve
Encoding: 259 259 260
Width: 400
Flags: W
LayerCount: 2
Fore
SplineSet
50 200 m 128,-1,1
 50 138 50 138 94 94 c 128,-1,2
 138 50 138 50 200 50 c 128,-1,3
 262 50 262 50 306 94 c 128,-1,4
 350 138 350 138 350 200 c 128,-1,5
 350 262 350 262 306 306 c 128,-1,6
 262 350 262 350 200 350 c 128,-1,7
 138 350 138 350 94 306 c 128,-1,0
 50 262 50 262 50 200 c 128,-1,1
EndSplineSet
EndChar

StartChar: Aogonek
Encoding: 260 260 261
Width: 400
Flags: W
LayerCount: 2
Fore
SplineSet
50 200 m 128,-1,1
 50 138 50 138 94 94 c 128,-1,2
 138 50 138 50 200 50 c 128,-1,3
 262 50 262 50 306 94 c 128,-1,4
 350 138 350 138 350 200 c 128,-1,5
 350 262 350 262 306 306 c 128,-1,6
 262 350 262 350 200 350 c 128,-1,7
 138 350 138 350 94 306 c 128,-1,0
 50 262 50 262 50 200 c 128,-1,1
EndSplineSet
EndChar

StartChar: aogonek
Encoding: 261 261 262
Width: 400
Flags: W
LayerCount: 2
Fore
SplineSet
50 200 m 128,-1,1
 50 138 50 138 94 94 c 128,-1,2
 138 50 138 50 200 50 c 128,-1,3
 262 50 262 50 306 94 c 128,-1,4
 350 138 350 138 350 200 c 128,-1,5
 350 262 350 262 306 306 c 128,-1,6
 262 350 262 350 200 350 c 128,-1,7
 138 350 138 350 94 306 c 128,-1,0
 50 262 50 262 50 200 c 128,-1,1
EndSplineSet
EndChar

StartChar: Cacute
Encoding: 262 262 263
Width: 400
Flags: W
LayerCount: 2
Fore
SplineSet
50 200 m 128,-1,1
 50 138 50 138 94 94 c 128,-1,2
 138 50 138 50 200 50 c 128,-1,3
 262 50 262 50 306 94 c 128,-1,4
 350 138 350 138 350 200 c 128,-1,5
 350 262 350 262 306 306 c 128,-1,6
 262 350 262 350 200 350 c 128,-1,7
 138 350 138 350 94 306 c 128,-1,0
 50 262 50 262 50 200 c 128,-1,1
EndSplineSet
EndChar

StartChar: cacute
Encoding: 263 263 264
Width: 400
Flags: W
LayerCount: 2
Fore
SplineSet
50 200 m 128,-1,1
 50 138 50 138 94 94 c 128,-1,2
 138 50 138 50 200 50 c 128,-1,3
 262 50 262 50 306 94 c 128,-1,4
 350 138 350 138 350 200 c 128,-1,5
 350 262 350 262 306 306 c 128,-1,6
 262 350 262 350 200 350 c 128,-1,7
 138 350 138 350 94 306 c 128,-1,0
 50 262 50 262 50 200 c 128,-1,1
EndSplineSet
EndChar

StartChar: Ccircumflex
Encoding: 264 264 265
Width: 400
Flags: W
LayerCount: 2
Fore
SplineSet
50 200 m 128,-1,1
 50 138 50 138 94 94 c 128,-1,2
 138 50 138 50 200 50 c 128,-1,3
 262 50 262 50 306 94 c 128,-1,4
 350 138 350 138 350 200 c 128,-1,5
 350 262 350 262 306 306 c 128,-1,6
 262 350 262 350 200 350 c 128,-1,7
 138 350 138 350 94 306 c 128,-1,0
 50 262 50 262 50 200 c 128,-1,1
EndSplineSet
EndChar

StartChar: ccircumflex
Encoding: 265 265 266
Width: 400
Flags: W
LayerCount: 2
Fore
SplineSet
50 200 m 128,-1,1
 50 138 50 138 94 94 c 128,-1,2
 138 50 138 50 200 50 c 128,-1,3
 262 50 262 50 306 94 c 128,-1,4
 350 138 350 138 350 200 c 128,-1,5
 350 262 350 262 306 306 c 128,-1,6
 262 350 262 350 200 350 c 128,-1,7
 138 350 138 350 94 306 c 128,-1,0
 50 262 50 262 50 200 c 128,-1,1
EndSplineSet
EndChar

StartChar: Cdotaccent
Encoding: 266 266 267
Width: 400
Flags: W
LayerCount: 2
Fore
SplineSet
50 200 m 128,-1,1
 50 138 50 138 94 94 c 128,-1,2
 138 50 138 50 200 50 c 128,-1,3
 262 50 262 50 306 94 c 128,-1,4
 350 138 350 138 350 200 c 128,-1,5
 350 262 350 262 306 306 c 128,-1,6
 262 350 262 350 200 350 c 128,-1,7
 138 350 138 350 94 306 c 128,-1,0
 50 262 50 262 50 200 c 128,-1,1
EndSplineSet
EndChar

StartChar: cdotaccent
Encoding: 267 267 268
Width: 400
Flags: W
LayerCount: 2
Fore
SplineSet
50 200 m 128,-1,1
 50 138 50 138 94 94 c 128,-1,2
 138 50 138 50 200 50 c 128,-1,3
 262 50 262 50 306 94 c 128,-1,4
 350 138 350 138 350 200 c 128,-1,5
 350 262 350 262 306 306 c 128,-1,6
 262 350 262 350 200 350 c 128,-1,7
 138 350 138 350 94 306 c 128,-1,0
 50 262 50 262 50 200 c 128,-1,1
EndSplineSet
EndChar

StartChar: Ccaron
Encoding: 268 268 269
Width: 400
Flags: W
LayerCount: 2
Fore
SplineSet
50 200 m 128,-1,1
 50 138 50 138 94 94 c 128,-1,2
 138 50 138 50 200 50 c 128,-1,3
 262 50 262 50 306 94 c 128,-1,4
 350 138 350 138 350 200 c 128,-1,5
 350 262 350 262 306 306 c 128,-1,6
 262 350 262 350 200 350 c 128,-1,7
 138 350 138 350 94 306 c 128,-1,0
 50 262 50 262 50 200 c 128,-1,1
EndSplineSet
EndChar

StartChar: ccaron
Encoding: 269 269 270
Width: 400
Flags: W
LayerCount: 2
Fore
SplineSet
50 200 m 128,-1,1
 50 138 50 138 94 94 c 128,-1,2
 138 50 138 50 200 50 c 128,-1,3
 262 50 262 50 306 94 c 128,-1,4
 350 138 350 138 350 200 c 128,-1,5
 350 262 350 262 306 306 c 128,-1,6
 262 350 262 350 200 350 c 128,-1,7
 138 350 138 350 94 306 c 128,-1,0
 50 262 50 262 50 200 c 128,-1,1
EndSplineSet
EndChar

StartChar: Dcaron
Encoding: 270 270 271
Width: 400
Flags: W
LayerCount: 2
Fore
SplineSet
50 200 m 128,-1,1
 50 138 50 138 94 94 c 128,-1,2
 138 50 138 50 200 50 c 128,-1,3
 262 50 262 50 306 94 c 128,-1,4
 350 138 350 138 350 200 c 128,-1,5
 350 262 350 262 306 306 c 128,-1,6
 262 350 262 350 200 350 c 128,-1,7
 138 350 138 350 94 306 c 128,-1,0
 50 262 50 262 50 200 c 128,-1,1
EndSplineSet
EndChar

StartChar: dcaron
Encoding: 271 271 272
Width: 400
Flags: W
LayerCount: 2
Fore
SplineSet
50 200 m 128,-1,1
 50 138 50 138 94 94 c 128,-1,2
 138 50 138 50 200 50 c 128,-1,3
 262 50 262 50 306 94 c 128,-1,4
 350 138 350 138 350 200 c 128,-1,5
 350 262 350 262 306 306 c 128,-1,6
 262 350 262 350 200 350 c 128,-1,7
 138 350 138 350 94 306 c 128,-1,0
 50 262 50 262 50 200 c 128,-1,1
EndSplineSet
EndChar

StartChar: Dcroat
Encoding: 272 272 273
Width: 400
Flags: W
LayerCount: 2
Fore
SplineSet
50 200 m 128,-1,1
 50 138 50 138 94 94 c 128,-1,2
 138 50 138 50 200 50 c 128,-1,3
 262 50 262 50 306 94 c 128,-1,4
 350 138 350 138 350 200 c 128,-1,5
 350 262 350 262 306 306 c 128,-1,6
 262 350 262 350 200 350 c 128,-1,7
 138 350 138 350 94 306 c 128,-1,0
 50 262 50 262 50 200 c 128,-1,1
EndSplineSet
EndChar

StartChar: dcroat
Encoding: 273 273 274
Width: 400
Flags: W
LayerCount: 2
Fore
SplineSet
50 200 m 128,-1,1
 50 138 50 138 94 94 c 128,-1,2
 138 50 138 50 200 50 c 128,-1,3
 262 50 262 50 306 94 c 128,-1,4
 350 138 350 138 350 200 c 128,-1,5
 350 262 350 262 306 306 c 128,-1,6
 262 350 262 350 200 350 c 128,-1,7
 138 350 138 350 94 306 c 128,-1,0
 50 262 50 262 50 200 c 128,-1,1
EndSplineSet
EndChar

StartChar: Emacron
Encoding: 274 274 275
Width: 400
Flags: W
LayerCount: 2
Fore
SplineSet
50 200 m 128,-1,1
 50 138 50 138 94 94 c 128,-1,2
 138 50 138 50 200 50 c 128,-1,3
 262 50 262 50 306 94 c 128,-1,4
 350 138 350 138 350 200 c 128,-1,5
 350 262 350 262 306 306 c 128,-1,6
 262 350 262 350 200 350 c 128,-1,7
 138 350 138 350 94 306 c 128,-1,0
 50 262 50 262 50 200 c 128,-1,1
EndSplineSet
EndChar

StartChar: emacron
Encoding: 275 275 276
Width: 400
Flags: W
LayerCount: 2
Fore
SplineSet
50 200 m 128,-1,1
 50 138 50 138 94 94 c 128,-1,2
 138 50 138 50 200 50 c 128,-1,3
 262 50 262 50 306 94 c 128,-1,4
 350 138 350 138 350 200 c 128,-1,5
 350 262 350 262 306 306 c 128,-1,6
 262 350 262 350 200 350 c 128,-1,7
 138 350 138 350 94 306 c 128,-1,0
 50 262 50 262 50 200 c 128,-1,1
EndSplineSet
EndChar

StartChar: Ebreve
Encoding: 276 276 277
Width: 400
Flags: W
LayerCount: 2
Fore
SplineSet
50 200 m 128,-1,1
 50 138 50 138 94 94 c 128,-1,2
 138 50 138 50 200 50 c 128,-1,3
 262 50 262 50 306 94 c 128,-1,4
 350 138 350 138 350 200 c 128,-1,5
 350 262 350 262 306 306 c 128,-1,6
 262 350 262 350 200 350 c 128,-1,7
 138 350 138 350 94 306 c 128,-1,0
 50 262 50 262 50 200 c 128,-1,1
EndSplineSet
EndChar

StartChar: ebreve
Encoding: 277 277 278
Width: 400
Flags: W
LayerCount: 2
Fore
SplineSet
50 200 m 128,-1,1
 50 138 50 138 94 94 c 128,-1,2
 138 50 138 50 200 50 c 128,-1,3
 262 50 262 50 306 94 c 128,-1,4
 350 138 350 138 350 200 c 128,-1,5
 350 262 350 262 306 306 c 128,-1,6
 262 350 262 350 200 350 c 128,-1,7
 138 350 138 350 94 306 c 128,-1,0
 50 262 50 262 50 200 c 128,-1,1
EndSplineSet
EndChar

StartChar: Edotaccent
Encoding: 278 278 279
Width: 400
Flags: W
LayerCount: 2
Fore
SplineSet
50 200 m 128,-1,1
 50 138 50 138 94 94 c 128,-1,2
 138 50 138 50 200 50 c 128,-1,3
 262 50 262 50 306 94 c 128,-1,4
 350 138 350 138 350 200 c 128,-1,5
 350 262 350 262 306 306 c 128,-1,6
 262 350 262 350 200 350 c 128,-1,7
 138 350 138 350 94 306 c 128,-1,0
 50 262 50 262 50 200 c 128,-1,1
EndSplineSet
EndChar

StartChar: edotaccent
Encoding: 279 279 280
Width: 400
Flags: W
LayerCount: 2
Fore
SplineSet
50 200 m 128,-1,1
 50 138 50 138 94 94 c 128,-1,2
 138 50 138 50 200 50 c 128,-1,3
 262 50 262 50 306 94 c 128,-1,4
 350 138 350 138 350 200 c 128,-1,5
 350 262 350 262 306 306 c 128,-1,6
 262 350 262 350 200 350 c 128,-1,7
 138 350 138 350 94 306 c 128,-1,0
 50 262 50 262 50 200 c 128,-1,1
EndSplineSet
EndChar

StartChar: Eogonek
Encoding: 280 280 281
Width: 400
Flags: W
LayerCount: 2
Fore
SplineSet
50 200 m 128,-1,1
 50 138 50 138 94 94 c 128,-1,2
 138 50 138 50 200 50 c 128,-1,3
 262 50 262 50 306 94 c 128,-1,4
 350 138 350 138 350 200 c 128,-1,5
 350 262 350 262 306 306 c 128,-1,6
 262 350 262 350 200 350 c 128,-1,7
 138 350 138 350 94 306 c 128,-1,0
 50 262 50 262 50 200 c 128,-1,1
EndSplineSet
EndChar

StartChar: eogonek
Encoding: 281 281 282
Width: 400
Flags: W
LayerCount: 2
Fore
SplineSet
50 200 m 128,-1,1
 50 138 50 138 94 94 c 128,-1,2
 138 50 138 50 200 50 c 128,-1,3
 262 50 262 50 306 94 c 128,-1,4
 350 138 350 138 350 200 c 128,-1,5
 350 262 350 262 306 306 c 128,-1,6
 262 350 262 350 200 350 c 128,-1,7
 138 350 138 350 94 306 c 128,-1,0
 50 262 50 262 50 200 c 128,-1,1
EndSplineSet
EndChar

StartChar: Ecaron
Encoding: 282 282 283
Width: 400
Flags: W
LayerCount: 2
Fore
SplineSet
50 200 m 128,-1,1
 50 138 50 138 94 94 c 128,-1,2
 138 50 138 50 200 50 c 128,-1,3
 262 50 262 50 306 94 c 128,-1,4
 350 138 350 138 350 200 c 128,-1,5
 350 262 350 262 306 306 c 128,-1,6
 262 350 262 350 200 350 c 128,-1,7
 138 350 138 350 94 306 c 128,-1,0
 50 262 50 262 50 200 c 128,-1,1
EndSplineSet
EndChar

StartChar: ecaron
Encoding: 283 283 284
Width: 400
Flags: W
LayerCount: 2
Fore
SplineSet
50 200 m 128,-1,1
 50 138 50 138 94 94 c 128,-1,2
 138 50 138 50 200 50 c 128,-1,3
 262 50 262 50 306 94 c 128,-1,4
 350 138 350 138 350 200 c 128,-1,5
 350 262 350 262 306 306 c 128,-1,6
 262 350 262 350 200 350 c 128,-1,7
 138 350 138 350 94 306 c 128,-1,0
 50 262 50 262 50 200 c 128,-1,1
EndSplineSet
EndChar

StartChar: Gcircumflex
Encoding: 284 284 285
Width: 400
Flags: W
LayerCount: 2
Fore
SplineSet
50 200 m 128,-1,1
 50 138 50 138 94 94 c 128,-1,2
 138 50 138 50 200 50 c 128,-1,3
 262 50 262 50 306 94 c 128,-1,4
 350 138 350 138 350 200 c 128,-1,5
 350 262 350 262 306 306 c 128,-1,6
 262 350 262 350 200 350 c 128,-1,7
 138 350 138 350 94 306 c 128,-1,0
 50 262 50 262 50 200 c 128,-1,1
EndSplineSet
EndChar

StartChar: gcircumflex
Encoding: 285 285 286
Width: 400
Flags: W
LayerCount: 2
Fore
SplineSet
50 200 m 128,-1,1
 50 138 50 138 94 94 c 128,-1,2
 138 50 138 50 200 50 c 128,-1,3
 262 50 262 50 306 94 c 128,-1,4
 350 138 350 138 350 200 c 128,-1,5
 350 262 350 262 306 306 c 128,-1,6
 262 350 262 350 200 350 c 128,-1,7
 138 350 138 350 94 306 c 128,-1,0
 50 262 50 262 50 200 c 128,-1,1
EndSplineSet
EndChar

StartChar: Gbreve
Encoding: 286 286 287
Width: 400
Flags: W
LayerCount: 2
Fore
SplineSet
50 200 m 128,-1,1
 50 138 50 138 94 94 c 128,-1,2
 138 50 138 50 200 50 c 128,-1,3
 262 50 262 50 306 94 c 128,-1,4
 350 138 350 138 350 200 c 128,-1,5
 350 262 350 262 306 306 c 128,-1,6
 262 350 262 350 200 350 c 128,-1,7
 138 350 138 350 94 306 c 128,-1,0
 50 262 50 262 50 200 c 128,-1,1
EndSplineSet
EndChar

StartChar: gbreve
Encoding: 287 287 288
Width: 400
Flags: W
LayerCount: 2
Fore
SplineSet
50 200 m 128,-1,1
 50 138 50 138 94 94 c 128,-1,2
 138 50 138 50 200 50 c 128,-1,3
 262 50 262 50 306 94 c 128,-1,4
 350 138 350 138 350 200 c 128,-1,5
 350 262 350 262 306 306 c 128,-1,6
 262 350 262 350 200 350 c 128,-1,7
 138 350 138 350 94 306 c 128,-1,0
 50 262 50 262 50 200 c 128,-1,1
EndSplineSet
EndChar

StartChar: Gdotaccent
Encoding: 288 288 289
Width: 400
Flags: W
LayerCount: 2
Fore
SplineSet
50 200 m 128,-1,1
 50 138 50 138 94 94 c 128,-1,2
 138 50 138 50 200 50 c 128,-1,3
 262 50 262 50 306 94 c 128,-1,4
 350 138 350 138 350 200 c 128,-1,5
 350 262 350 262 306 306 c 128,-1,6
 262 350 262 350 200 350 c 128,-1,7
 138 350 138 350 94 306 c 128,-1,0
 50 262 50 262 50 200 c 128,-1,1
EndSplineSet
EndChar

StartChar: gdotaccent
Encoding: 289 289 290
Width: 400
Flags: W
LayerCount: 2
Fore
SplineSet
50 200 m 128,-1,1
 50 138 50 138 94 94 c 128,-1,2
 138 50 138 50 200 50 c 128,-1,3
 262 50 262 50 306 94 c 128,-1,4
 350 138 350 138 350 200 c 128,-1,5
 350 262 350 262 306 306 c 128,-1,6
 262 350 262 350 200 350 c 128,-1,7
 138 350 138 350 94 306 c 128,-1,0
 50 262 50 262 50 200 c 128,-1,1
EndSplineSet
EndChar

StartChar: uni0122
Encoding: 290 290 291
Width: 400
Flags: W
LayerCount: 2
Fore
SplineSet
50 200 m 128,-1,1
 50 138 50 138 94 94 c 128,-1,2
 138 50 138 50 200 50 c 128,-1,3
 262 50 262 50 306 94 c 128,-1,4
 350 138 350 138 350 200 c 128,-1,5
 350 262 350 262 306 306 c 128,-1,6
 262 350 262 350 200 350 c 128,-1,7
 138 350 138 350 94 306 c 128,-1,0
 50 262 50 262 50 200 c 128,-1,1
EndSplineSet
EndChar

StartChar: uni0123
Encoding: 291 291 292
Width: 400
Flags: W
LayerCount: 2
Fore
SplineSet
50 200 m 128,-1,1
 50 138 50 138 94 94 c 128,-1,2
 138 50 138 50 200 50 c 128,-1,3
 262 50 262 50 306 94 c 128,-1,4
 350 138 350 138 350 200 c 128,-1,5
 350 262 350 262 306 306 c 128,-1,6
 262 350 262 350 200 350 c 128,-1,7
 138 350 138 350 94 306 c 128,-1,0
 50 262 50 262 50 200 c 128,-1,1
EndSplineSet
EndChar

StartChar: Hcircumflex
Encoding: 292 292 293
Width: 400
Flags: W
LayerCount: 2
Fore
SplineSet
50 200 m 128,-1,1
 50 138 50 138 94 94 c 128,-1,2
 138 50 138 50 200 50 c 128,-1,3
 262 50 262 50 306 94 c 128,-1,4
 350 138 350 138 350 200 c 128,-1,5
 350 262 350 262 306 306 c 128,-1,6
 262 350 262 350 200 350 c 128,-1,7
 138 350 138 350 94 306 c 128,-1,0
 50 262 50 262 50 200 c 128,-1,1
EndSplineSet
EndChar

StartChar: hcircumflex
Encoding: 293 293 294
Width: 400
Flags: W
LayerCount: 2
Fore
SplineSet
50 200 m 128,-1,1
 50 138 50 138 94 94 c 128,-1,2
 138 50 138 50 200 50 c 128,-1,3
 262 50 262 50 306 94 c 128,-1,4
 350 138 350 138 350 200 c 128,-1,5
 350 262 350 262 306 306 c 128,-1,6
 262 350 262 350 200 350 c 128,-1,7
 138 350 138 350 94 306 c 128,-1,0
 50 262 50 262 50 200 c 128,-1,1
EndSplineSet
EndChar

StartChar: Hbar
Encoding: 294 294 295
Width: 400
Flags: W
LayerCount: 2
Fore
SplineSet
50 200 m 128,-1,1
 50 138 50 138 94 94 c 128,-1,2
 138 50 138 50 200 50 c 128,-1,3
 262 50 262 50 306 94 c 128,-1,4
 350 138 350 138 350 200 c 128,-1,5
 350 262 350 262 306 306 c 128,-1,6
 262 350 262 350 200 350 c 128,-1,7
 138 350 138 350 94 306 c 128,-1,0
 50 262 50 262 50 200 c 128,-1,1
EndSplineSet
EndChar

StartChar: hbar
Encoding: 295 295 296
Width: 400
Flags: W
LayerCount: 2
Fore
SplineSet
50 200 m 128,-1,1
 50 138 50 138 94 94 c 128,-1,2
 138 50 138 50 200 50 c 128,-1,3
 262 50 262 50 306 94 c 128,-1,4
 350 138 350 138 350 200 c 128,-1,5
 350 262 350 262 306 306 c 128,-1,6
 262 350 262 350 200 350 c 128,-1,7
 138 350 138 350 94 306 c 128,-1,0
 50 262 50 262 50 200 c 128,-1,1
EndSplineSet
EndChar

StartChar: Itilde
Encoding: 296 296 297
Width: 400
Flags: W
LayerCount: 2
Fore
SplineSet
50 200 m 128,-1,1
 50 138 50 138 94 94 c 128,-1,2
 138 50 138 50 200 50 c 128,-1,3
 262 50 262 50 306 94 c 128,-1,4
 350 138 350 138 350 200 c 128,-1,5
 350 262 350 262 306 306 c 128,-1,6
 262 350 262 350 200 350 c 128,-1,7
 138 350 138 350 94 306 c 128,-1,0
 50 262 50 262 50 200 c 128,-1,1
EndSplineSet
EndChar

StartChar: itilde
Encoding: 297 297 298
Width: 400
Flags: W
LayerCount: 2
Fore
SplineSet
50 200 m 128,-1,1
 50 138 50 138 94 94 c 128,-1,2
 138 50 138 50 200 50 c 128,-1,3
 262 50 262 50 306 94 c 128,-1,4
 350 138 350 138 350 200 c 128,-1,5
 350 262 350 262 306 306 c 128,-1,6
 262 350 262 350 200 350 c 128,-1,7
 138 350 138 350 94 306 c 128,-1,0
 50 262 50 262 50 200 c 128,-1,1
EndSplineSet
EndChar

StartChar: Imacron
Encoding: 298 298 299
Width: 400
Flags: W
LayerCount: 2
Fore
SplineSet
50 200 m 128,-1,1
 50 138 50 138 94 94 c 128,-1,2
 138 50 138 50 200 50 c 128,-1,3
 262 50 262 50 306 94 c 128,-1,4
 350 138 350 138 350 200 c 128,-1,5
 350 262 350 262 306 306 c 128,-1,6
 262 350 262 350 200 350 c 128,-1,7
 138 350 138 350 94 306 c 128,-1,0
 50 262 50 262 50 200 c 128,-1,1
EndSplineSet
EndChar

StartChar: imacron
Encoding: 299 299 300
Width: 400
Flags: W
LayerCount: 2
Fore
SplineSet
50 200 m 128,-1,1
 50 138 50 138 94 94 c 128,-1,2
 138 50 138 50 200 50 c 128,-1,3
 262 50 262 50 306 94 c 128,-1,4
 350 138 350 138 350 200 c 128,-1,5
 350 262 350 262 306 306 c 128,-1,6
 262 350 262 350 200 350 c 128,-1,7
 138 350 138 350 94 306 c 128,-1,0
 50 262 50 262 50 200 c 128,-1,1
EndSplineSet
EndChar

StartChar: Ibreve
Encoding: 300 300 301
Width: 400
Flags: W
LayerCount: 2
Fore
SplineSet
50 200 m 128,-1,1
 50 138 50 138 94 94 c 128,-1,2
 138 50 138 50 200 50 c 128,-1,3
 262 50 262 50 306 94 c 128,-1,4
 350 138 350 138 350 200 c 128,-1,5
 350 262 350 262 306 306 c 128,-1,6
 262 350 262 350 200 350 c 128,-1,7
 138 350 138 350 94 306 c 128,-1,0
 50 262 50 262 50 200 c 128,-1,1
EndSplineSet
EndChar

StartChar: ibreve
Encoding: 301 301 302
Width: 400
Flags: W
LayerCount: 2
Fore
SplineSet
50 200 m 128,-1,1
 50 138 50 138 94 94 c 128,-1,2
 138 50 138 50 200 50 c 128,-1,3
 262 50 262 50 306 94 c 128,-1,4
 350 138 350 138 350 200 c 128,-1,5
 350 262 350 262 306 306 c 128,-1,6
 262 350 262 350 200 350 c 128,-1,7
 138 350 138 350 94 306 c 128,-1,0
 50 262 50 262 50 200 c 128,-1,1
EndSplineSet
EndChar

StartChar: Iogonek
Encoding: 302 302 303
Width: 400
Flags: W
LayerCount: 2
Fore
SplineSet
50 200 m 128,-1,1
 50 138 50 138 94 94 c 128,-1,2
 138 50 138 50 200 50 c 128,-1,3
 262 50 262 50 306 94 c 128,-1,4
 350 138 350 138 350 200 c 128,-1,5
 350 262 350 262 306 306 c 128,-1,6
 262 350 262 350 200 350 c 128,-1,7
 138 350 138 350 94 306 c 128,-1,0
 50 262 50 262 50 200 c 128,-1,1
EndSplineSet
EndChar

StartChar: iogonek
Encoding: 303 303 304
Width: 400
Flags: W
LayerCount: 2
Fore
SplineSet
50 200 m 128,-1,1
 50 138 50 138 94 94 c 128,-1,2
 138 50 138 50 200 50 c 128,-1,3
 262 50 262 50 306 94 c 128,-1,4
 350 138 350 138 350 200 c 128,-1,5
 350 262 350 262 306 306 c 128,-1,6
 262 350 262 350 200 350 c 128,-1,7
 138 350 138 350 94 306 c 128,-1,0
 50 262 50 262 50 200 c 128,-1,1
EndSplineSet
EndChar

StartChar: Idotaccent
Encoding: 304 304 305
Width: 400
Flags: W
LayerCount: 2
Fore
SplineSet
50 200 m 128,-1,1
 50 138 50 138 94 94 c 128,-1,2
 138 50 138 50 200 50 c 128,-1,3
 262 50 262 50 306 94 c 128,-1,4
 350 138 350 138 350 200 c 128,-1,5
 350 262 350 262 306 306 c 128,-1,6
 262 350 262 350 200 350 c 128,-1,7
 138 350 138 350 94 306 c 128,-1,0
 50 262 50 262 50 200 c 128,-1,1
EndSplineSet
EndChar

StartChar: dotlessi
Encoding: 305 305 306
Width: 400
Flags: W
LayerCount: 2
Fore
SplineSet
50 200 m 128,-1,1
 50 138 50 138 94 94 c 128,-1,2
 138 50 138 50 200 50 c 128,-1,3
 262 50 262 50 306 94 c 128,-1,4
 350 138 350 138 350 200 c 128,-1,5
 350 262 350 262 306 306 c 128,-1,6
 262 350 262 350 200 350 c 128,-1,7
 138 350 138 350 94 306 c 128,-1,0
 50 262 50 262 50 200 c 128,-1,1
EndSplineSet
EndChar

StartChar: IJ
Encoding: 306 306 307
Width: 400
Flags: W
LayerCount: 2
Fore
SplineSet
50 200 m 128,-1,1
 50 138 50 138 94 94 c 128,-1,2
 138 50 138 50 200 50 c 128,-1,3
 262 50 262 50 306 94 c 128,-1,4
 350 138 350 138 350 200 c 128,-1,5
 350 262 350 262 306 306 c 128,-1,6
 262 350 262 350 200 350 c 128,-1,7
 138 350 138 350 94 306 c 128,-1,0
 50 262 50 262 50 200 c 128,-1,1
EndSplineSet
EndChar

StartChar: ij
Encoding: 307 307 308
Width: 400
Flags: W
LayerCount: 2
Fore
SplineSet
50 200 m 128,-1,1
 50 138 50 138 94 94 c 128,-1,2
 138 50 138 50 200 50 c 128,-1,3
 262 50 262 50 306 94 c 128,-1,4
 350 138 350 138 350 200 c 128,-1,5
 350 262 350 262 306 306 c 128,-1,6
 262 350 262 350 200 350 c 128,-1,7
 138 350 138 350 94 306 c 128,-1,0
 50 262 50 262 50 200 c 128,-1,1
EndSplineSet
EndChar

StartChar: Jcircumflex
Encoding: 308 308 309
Width: 400
Flags: W
LayerCount: 2
Fore
SplineSet
50 200 m 128,-1,1
 50 138 50 138 94 94 c 128,-1,2
 138 50 138 50 200 50 c 128,-1,3
 262 50 262 50 306 94 c 128,-1,4
 350 138 350 138 350 200 c 128,-1,5
 350 262 350 262 306 306 c 128,-1,6
 262 350 262 350 200 350 c 128,-1,7
 138 350 138 350 94 306 c 128,-1,0
 50 262 50 262 50 200 c 128,-1,1
EndSplineSet
EndChar

StartChar: jcircumflex
Encoding: 309 309 310
Width: 400
Flags: W
LayerCount: 2
Fore
SplineSet
50 200 m 128,-1,1
 50 138 50 138 94 94 c 128,-1,2
 138 50 138 50 200 50 c 128,-1,3
 262 50 262 50 306 94 c 128,-1,4
 350 138 350 138 350 200 c 128,-1,5
 350 262 350 262 306 306 c 128,-1,6
 262 350 262 350 200 350 c 128,-1,7
 138 350 138 350 94 306 c 128,-1,0
 50 262 50 262 50 200 c 128,-1,1
EndSplineSet
EndChar

StartChar: uni0136
Encoding: 310 310 311
Width: 400
Flags: W
LayerCount: 2
Fore
SplineSet
50 200 m 128,-1,1
 50 138 50 138 94 94 c 128,-1,2
 138 50 138 50 200 50 c 128,-1,3
 262 50 262 50 306 94 c 128,-1,4
 350 138 350 138 350 200 c 128,-1,5
 350 262 350 262 306 306 c 128,-1,6
 262 350 262 350 200 350 c 128,-1,7
 138 350 138 350 94 306 c 128,-1,0
 50 262 50 262 50 200 c 128,-1,1
EndSplineSet
EndChar

StartChar: uni0137
Encoding: 311 311 312
Width: 400
Flags: W
LayerCount: 2
Fore
SplineSet
50 200 m 128,-1,1
 50 138 50 138 94 94 c 128,-1,2
 138 50 138 50 200 50 c 128,-1,3
 262 50 262 50 306 94 c 128,-1,4
 350 138 350 138 350 200 c 128,-1,5
 350 262 350 262 306 306 c 128,-1,6
 262 350 262 350 200 350 c 128,-1,7
 138 350 138 350 94 306 c 128,-1,0
 50 262 50 262 50 200 c 128,-1,1
EndSplineSet
EndChar

StartChar: kgreenlandic
Encoding: 312 312 313
Width: 400
Flags: W
LayerCount: 2
Fore
SplineSet
50 200 m 128,-1,1
 50 138 50 138 94 94 c 128,-1,2
 138 50 138 50 200 50 c 128,-1,3
 262 50 262 50 306 94 c 128,-1,4
 350 138 350 138 350 200 c 128,-1,5
 350 262 350 262 306 306 c 128,-1,6
 262 350 262 350 200 350 c 128,-1,7
 138 350 138 350 94 306 c 128,-1,0
 50 262 50 262 50 200 c 128,-1,1
EndSplineSet
EndChar

StartChar: Lacute
Encoding: 313 313 314
Width: 400
Flags: W
LayerCount: 2
Fore
SplineSet
50 200 m 128,-1,1
 50 138 50 138 94 94 c 128,-1,2
 138 50 138 50 200 50 c 128,-1,3
 262 50 262 50 306 94 c 128,-1,4
 350 138 350 138 350 200 c 128,-1,5
 350 262 350 262 306 306 c 128,-1,6
 262 350 262 350 200 350 c 128,-1,7
 138 350 138 350 94 306 c 128,-1,0
 50 262 50 262 50 200 c 128,-1,1
EndSplineSet
EndChar

StartChar: lacute
Encoding: 314 314 315
Width: 400
Flags: W
LayerCount: 2
Fore
SplineSet
50 200 m 128,-1,1
 50 138 50 138 94 94 c 128,-1,2
 138 50 138 50 200 50 c 128,-1,3
 262 50 262 50 306 94 c 128,-1,4
 350 138 350 138 350 200 c 128,-1,5
 350 262 350 262 306 306 c 128,-1,6
 262 350 262 350 200 350 c 128,-1,7
 138 350 138 350 94 306 c 128,-1,0
 50 262 50 262 50 200 c 128,-1,1
EndSplineSet
EndChar

StartChar: uni013B
Encoding: 315 315 316
Width: 400
Flags: W
LayerCount: 2
Fore
SplineSet
50 200 m 128,-1,1
 50 138 50 138 94 94 c 128,-1,2
 138 50 138 50 200 50 c 128,-1,3
 262 50 262 50 306 94 c 128,-1,4
 350 138 350 138 350 200 c 128,-1,5
 350 262 350 262 306 306 c 128,-1,6
 262 350 262 350 200 350 c 128,-1,7
 138 350 138 350 94 306 c 128,-1,0
 50 262 50 262 50 200 c 128,-1,1
EndSplineSet
EndChar

StartChar: uni013C
Encoding: 316 316 317
Width: 400
Flags: W
LayerCount: 2
Fore
SplineSet
50 200 m 128,-1,1
 50 138 50 138 94 94 c 128,-1,2
 138 50 138 50 200 50 c 128,-1,3
 262 50 262 50 306 94 c 128,-1,4
 350 138 350 138 350 200 c 128,-1,5
 350 262 350 262 306 306 c 128,-1,6
 262 350 262 350 200 350 c 128,-1,7
 138 350 138 350 94 306 c 128,-1,0
 50 262 50 262 50 200 c 128,-1,1
EndSplineSet
EndChar

StartChar: Lcaron
Encoding: 317 317 318
Width: 400
Flags: W
LayerCount: 2
Fore
SplineSet
50 200 m 128,-1,1
 50 138 50 138 94 94 c 128,-1,2
 138 50 138 50 200 50 c 128,-1,3
 262 50 262 50 306 94 c 128,-1,4
 350 138 350 138 350 200 c 128,-1,5
 350 262 350 262 306 306 c 128,-1,6
 262 350 262 350 200 350 c 128,-1,7
 138 350 138 350 94 306 c 128,-1,0
 50 262 50 262 50 200 c 128,-1,1
EndSplineSet
EndChar

StartChar: lcaron
Encoding: 318 318 319
Width: 400
Flags: W
LayerCount: 2
Fore
SplineSet
50 200 m 128,-1,1
 50 138 50 138 94 94 c 128,-1,2
 138 50 138 50 200 50 c 128,-1,3
 262 50 262 50 306 94 c 128,-1,4
 350 138 350 138 350 200 c 128,-1,5
 350 262 350 262 306 306 c 128,-1,6
 262 350 262 350 200 350 c 128,-1,7
 138 350 138 350 94 306 c 128,-1,0
 50 262 50 262 50 200 c 128,-1,1
EndSplineSet
EndChar

StartChar: Ldot
Encoding: 319 319 320
Width: 400
Flags: W
LayerCount: 2
Fore
SplineSet
50 200 m 128,-1,1
 50 138 50 138 94 94 c 128,-1,2
 138 50 138 50 200 50 c 128,-1,3
 262 50 262 50 306 94 c 128,-1,4
 350 138 350 138 350 200 c 128,-1,5
 350 262 350 262 306 306 c 128,-1,6
 262 350 262 350 200 350 c 128,-1,7
 138 350 138 350 94 306 c 128,-1,0
 50 262 50 262 50 200 c 128,-1,1
EndSplineSet
EndChar

StartChar: ldot
Encoding: 320 320 321
Width: 400
Flags: W
LayerCount: 2
Fore
SplineSet
50 200 m 128,-1,1
 50 138 50 138 94 94 c 128,-1,2
 138 50 138 50 200 50 c 128,-1,3
 262 50 262 50 306 94 c 128,-1,4
 350 138 350 138 350 200 c 128,-1,5
 350 262 350 262 306 306 c 128,-1,6
 262 350 262 350 200 350 c 128,-1,7
 138 350 138 350 94 306 c 128,-1,0
 50 262 50 262 50 200 c 128,-1,1
EndSplineSet
EndChar

StartChar: Lslash
Encoding: 321 321 322
Width: 400
Flags: W
LayerCount: 2
Fore
SplineSet
50 200 m 128,-1,1
 50 138 50 138 94 94 c 128,-1,2
 138 50 138 50 200 50 c 128,-1,3
 262 50 262 50 306 94 c 128,-1,4
 350 138 350 138 350 200 c 128,-1,5
 350 262 350 262 306 306 c 128,-1,6
 262 350 262 350 200 350 c 128,-1,7
 138 350 138 350 94 306 c 128,-1,0
 50 262 50 262 50 200 c 128,-1,1
EndSplineSet
EndChar

StartChar: lslash
Encoding: 322 322 323
Width: 400
Flags: W
LayerCount: 2
Fore
SplineSet
50 200 m 128,-1,1
 50 138 50 138 94 94 c 128,-1,2
 138 50 138 50 200 50 c 128,-1,3
 262 50 262 50 306 94 c 128,-1,4
 350 138 350 138 350 200 c 128,-1,5
 350 262 350 262 306 306 c 128,-1,6
 262 350 262 350 200 350 c 128,-1,7
 138 350 138 350 94 306 c 128,-1,0
 50 262 50 262 50 200 c 128,-1,1
EndSplineSet
EndChar

StartChar: Nacute
Encoding: 323 323 324
Width: 400
Flags: W
LayerCount: 2
Fore
SplineSet
50 200 m 128,-1,1
 50 138 50 138 94 94 c 128,-1,2
 138 50 138 50 200 50 c 128,-1,3
 262 50 262 50 306 94 c 128,-1,4
 350 138 350 138 350 200 c 128,-1,5
 350 262 350 262 306 306 c 128,-1,6
 262 350 262 350 200 350 c 128,-1,7
 138 350 138 350 94 306 c 128,-1,0
 50 262 50 262 50 200 c 128,-1,1
EndSplineSet
EndChar

StartChar: nacute
Encoding: 324 324 325
Width: 400
Flags: W
LayerCount: 2
Fore
SplineSet
50 200 m 128,-1,1
 50 138 50 138 94 94 c 128,-1,2
 138 50 138 50 200 50 c 128,-1,3
 262 50 262 50 306 94 c 128,-1,4
 350 138 350 138 350 200 c 128,-1,5
 350 262 350 262 306 306 c 128,-1,6
 262 350 262 350 200 350 c 128,-1,7
 138 350 138 350 94 306 c 128,-1,0
 50 262 50 262 50 200 c 128,-1,1
EndSplineSet
EndChar

StartChar: uni0145
Encoding: 325 325 326
Width: 400
Flags: W
LayerCount: 2
Fore
SplineSet
50 200 m 128,-1,1
 50 138 50 138 94 94 c 128,-1,2
 138 50 138 50 200 50 c 128,-1,3
 262 50 262 50 306 94 c 128,-1,4
 350 138 350 138 350 200 c 128,-1,5
 350 262 350 262 306 306 c 128,-1,6
 262 350 262 350 200 350 c 128,-1,7
 138 350 138 350 94 306 c 128,-1,0
 50 262 50 262 50 200 c 128,-1,1
EndSplineSet
EndChar

StartChar: uni0146
Encoding: 326 326 327
Width: 400
Flags: W
LayerCount: 2
Fore
SplineSet
50 200 m 128,-1,1
 50 138 50 138 94 94 c 128,-1,2
 138 50 138 50 200 50 c 128,-1,3
 262 50 262 50 306 94 c 128,-1,4
 350 138 350 138 350 200 c 128,-1,5
 350 262 350 262 306 306 c 128,-1,6
 262 350 262 350 200 350 c 128,-1,7
 138 350 138 350 94 306 c 128,-1,0
 50 262 50 262 50 200 c 128,-1,1
EndSplineSet
EndChar

StartChar: Ncaron
Encoding: 327 327 328
Width: 400
Flags: W
LayerCount: 2
Fore
SplineSet
50 200 m 128,-1,1
 50 138 50 138 94 94 c 128,-1,2
 138 50 138 50 200 50 c 128,-1,3
 262 50 262 50 306 94 c 128,-1,4
 350 138 350 138 350 200 c 128,-1,5
 350 262 350 262 306 306 c 128,-1,6
 262 350 262 350 200 350 c 128,-1,7
 138 350 138 350 94 306 c 128,-1,0
 50 262 50 262 50 200 c 128,-1,1
EndSplineSet
EndChar

StartChar: ncaron
Encoding: 328 328 329
Width: 400
Flags: W
LayerCount: 2
Fore
SplineSet
50 200 m 128,-1,1
 50 138 50 138 94 94 c 128,-1,2
 138 50 138 50 200 50 c 128,-1,3
 262 50 262 50 306 94 c 128,-1,4
 350 138 350 138 350 200 c 128,-1,5
 350 262 350 262 306 306 c 128,-1,6
 262 350 262 350 200 350 c 128,-1,7
 138 350 138 350 94 306 c 128,-1,0
 50 262 50 262 50 200 c 128,-1,1
EndSplineSet
EndChar

StartChar: napostrophe
Encoding: 329 329 330
Width: 400
Flags: W
LayerCount: 2
Fore
SplineSet
50 200 m 128,-1,1
 50 138 50 138 94 94 c 128,-1,2
 138 50 138 50 200 50 c 128,-1,3
 262 50 262 50 306 94 c 128,-1,4
 350 138 350 138 350 200 c 128,-1,5
 350 262 350 262 306 306 c 128,-1,6
 262 350 262 350 200 350 c 128,-1,7
 138 350 138 350 94 306 c 128,-1,0
 50 262 50 262 50 200 c 128,-1,1
EndSplineSet
EndChar

StartChar: Eng
Encoding: 330 330 331
Width: 400
Flags: W
LayerCount: 2
Fore
SplineSet
50 200 m 128,-1,1
 50 138 50 138 94 94 c 128,-1,2
 138 50 138 50 200 50 c 128,-1,3
 262 50 262 50 306 94 c 128,-1,4
 350 138 350 138 350 200 c 128,-1,5
 350 262 350 262 306 306 c 128,-1,6
 262 350 262 350 200 350 c 128,-1,7
 138 350 138 350 94 306 c 128,-1,0
 50 262 50 262 50 200 c 128,-1,1
EndSplineSet
EndChar

StartChar: eng
Encoding: 331 331 332
Width: 400
Flags: W
LayerCount: 2
Fore
SplineSet
50 200 m 128,-1,1
 50 138 50 138 94 94 c 128,-1,2
 138 50 138 50 200 50 c 128,-1,3
 262 50 262 50 306 94 c 128,-1,4
 350 138 350 138 350 200 c 128,-1,5
 350 262 350 262 306 306 c 128,-1,6
 262 350 262 350 200 350 c 128,-1,7
 138 350 138 350 94 306 c 128,-1,0
 50 262 50 262 50 200 c 128,-1,1
EndSplineSet
EndChar

StartChar: Omacron
Encoding: 332 332 333
Width: 400
Flags: W
LayerCount: 2
Fore
SplineSet
50 200 m 128,-1,1
 50 138 50 138 94 94 c 128,-1,2
 138 50 138 50 200 50 c 128,-1,3
 262 50 262 50 306 94 c 128,-1,4
 350 138 350 138 350 200 c 128,-1,5
 350 262 350 262 306 306 c 128,-1,6
 262 350 262 350 200 350 c 128,-1,7
 138 350 138 350 94 306 c 128,-1,0
 50 262 50 262 50 200 c 128,-1,1
EndSplineSet
EndChar

StartChar: omacron
Encoding: 333 333 334
Width: 400
Flags: W
LayerCount: 2
Fore
SplineSet
50 200 m 128,-1,1
 50 138 50 138 94 94 c 128,-1,2
 138 50 138 50 200 50 c 128,-1,3
 262 50 262 50 306 94 c 128,-1,4
 350 138 350 138 350 200 c 128,-1,5
 350 262 350 262 306 306 c 128,-1,6
 262 350 262 350 200 350 c 128,-1,7
 138 350 138 350 94 306 c 128,-1,0
 50 262 50 262 50 200 c 128,-1,1
EndSplineSet
EndChar

StartChar: Obreve
Encoding: 334 334 335
Width: 400
Flags: W
LayerCount: 2
Fore
SplineSet
50 200 m 128,-1,1
 50 138 50 138 94 94 c 128,-1,2
 138 50 138 50 200 50 c 128,-1,3
 262 50 262 50 306 94 c 128,-1,4
 350 138 350 138 350 200 c 128,-1,5
 350 262 350 262 306 306 c 128,-1,6
 262 350 262 350 200 350 c 128,-1,7
 138 350 138 350 94 306 c 128,-1,0
 50 262 50 262 50 200 c 128,-1,1
EndSplineSet
EndChar

StartChar: obreve
Encoding: 335 335 336
Width: 400
Flags: W
LayerCount: 2
Fore
SplineSet
50 200 m 128,-1,1
 50 138 50 138 94 94 c 128,-1,2
 138 50 138 50 200 50 c 128,-1,3
 262 50 262 50 306 94 c 128,-1,4
 350 138 350 138 350 200 c 128,-1,5
 350 262 350 262 306 306 c 128,-1,6
 262 350 262 350 200 350 c 128,-1,7
 138 350 138 350 94 306 c 128,-1,0
 50 262 50 262 50 200 c 128,-1,1
EndSplineSet
EndChar

StartChar: Ohungarumlaut
Encoding: 336 336 337
Width: 400
Flags: W
LayerCount: 2
Fore
SplineSet
50 200 m 128,-1,1
 50 138 50 138 94 94 c 128,-1,2
 138 50 138 50 200 50 c 128,-1,3
 262 50 262 50 306 94 c 128,-1,4
 350 138 350 138 350 200 c 128,-1,5
 350 262 350 262 306 306 c 128,-1,6
 262 350 262 350 200 350 c 128,-1,7
 138 350 138 350 94 306 c 128,-1,0
 50 262 50 262 50 200 c 128,-1,1
EndSplineSet
EndChar

StartChar: ohungarumlaut
Encoding: 337 337 338
Width: 400
Flags: W
LayerCount: 2
Fore
SplineSet
50 200 m 128,-1,1
 50 138 50 138 94 94 c 128,-1,2
 138 50 138 50 200 50 c 128,-1,3
 262 50 262 50 306 94 c 128,-1,4
 350 138 350 138 350 200 c 128,-1,5
 350 262 350 262 306 306 c 128,-1,6
 262 350 262 350 200 350 c 128,-1,7
 138 350 138 350 94 306 c 128,-1,0
 50 262 50 262 50 200 c 128,-1,1
EndSplineSet
EndChar

StartChar: OE
Encoding: 338 338 339
Width: 400
Flags: W
LayerCount: 2
Fore
SplineSet
50 200 m 128,-1,1
 50 138 50 138 94 94 c 128,-1,2
 138 50 138 50 200 50 c 128,-1,3
 262 50 262 50 306 94 c 128,-1,4
 350 138 350 138 350 200 c 128,-1,5
 350 262 350 262 306 306 c 128,-1,6
 262 350 262 350 200 350 c 128,-1,7
 138 350 138 350 94 306 c 128,-1,0
 50 262 50 262 50 200 c 128,-1,1
EndSplineSet
EndChar

StartChar: oe
Encoding: 339 339 340
Width: 400
Flags: W
LayerCount: 2
Fore
SplineSet
50 200 m 128,-1,1
 50 138 50 138 94 94 c 128,-1,2
 138 50 138 50 200 50 c 128,-1,3
 262 50 262 50 306 94 c 128,-1,4
 350 138 350 138 350 200 c 128,-1,5
 350 262 350 262 306 306 c 128,-1,6
 262 350 262 350 200 350 c 128,-1,7
 138 350 138 350 94 306 c 128,-1,0
 50 262 50 262 50 200 c 128,-1,1
EndSplineSet
EndChar

StartChar: Racute
Encoding: 340 340 341
Width: 400
Flags: W
LayerCount: 2
Fore
SplineSet
50 200 m 128,-1,1
 50 138 50 138 94 94 c 128,-1,2
 138 50 138 50 200 50 c 128,-1,3
 262 50 262 50 306 94 c 128,-1,4
 350 138 350 138 350 200 c 128,-1,5
 350 262 350 262 306 306 c 128,-1,6
 262 350 262 350 200 350 c 128,-1,7
 138 350 138 350 94 306 c 128,-1,0
 50 262 50 262 50 200 c 128,-1,1
EndSplineSet
EndChar

StartChar: racute
Encoding: 341 341 342
Width: 400
Flags: W
LayerCount: 2
Fore
SplineSet
50 200 m 128,-1,1
 50 138 50 138 94 94 c 128,-1,2
 138 50 138 50 200 50 c 128,-1,3
 262 50 262 50 306 94 c 128,-1,4
 350 138 350 138 350 200 c 128,-1,5
 350 262 350 262 306 306 c 128,-1,6
 262 350 262 350 200 350 c 128,-1,7
 138 350 138 350 94 306 c 128,-1,0
 50 262 50 262 50 200 c 128,-1,1
EndSplineSet
EndChar

StartChar: uni0156
Encoding: 342 342 343
Width: 400
Flags: W
LayerCount: 2
Fore
SplineSet
50 200 m 128,-1,1
 50 138 50 138 94 94 c 128,-1,2
 138 50 138 50 200 50 c 128,-1,3
 262 50 262 50 306 94 c 128,-1,4
 350 138 350 138 350 200 c 128,-1,5
 350 262 350 262 306 306 c 128,-1,6
 262 350 262 350 200 350 c 128,-1,7
 138 350 138 350 94 306 c 128,-1,0
 50 262 50 262 50 200 c 128,-1,1
EndSplineSet
EndChar

StartChar: uni0157
Encoding: 343 343 344
Width: 400
Flags: W
LayerCount: 2
Fore
SplineSet
50 200 m 128,-1,1
 50 138 50 138 94 94 c 128,-1,2
 138 50 138 50 200 50 c 128,-1,3
 262 50 262 50 306 94 c 128,-1,4
 350 138 350 138 350 200 c 128,-1,5
 350 262 350 262 306 306 c 128,-1,6
 262 350 262 350 200 350 c 128,-1,7
 138 350 138 350 94 306 c 128,-1,0
 50 262 50 262 50 200 c 128,-1,1
EndSplineSet
EndChar

StartChar: Rcaron
Encoding: 344 344 345
Width: 400
Flags: W
LayerCount: 2
Fore
SplineSet
50 200 m 128,-1,1
 50 138 50 138 94 94 c 128,-1,2
 138 50 138 50 200 50 c 128,-1,3
 262 50 262 50 306 94 c 128,-1,4
 350 138 350 138 350 200 c 128,-1,5
 350 262 350 262 306 306 c 128,-1,6
 262 350 262 350 200 350 c 128,-1,7
 138 350 138 350 94 306 c 128,-1,0
 50 262 50 262 50 200 c 128,-1,1
EndSplineSet
EndChar

StartChar: rcaron
Encoding: 345 345 346
Width: 400
Flags: W
LayerCount: 2
Fore
SplineSet
50 200 m 128,-1,1
 50 138 50 138 94 94 c 128,-1,2
 138 50 138 50 200 50 c 128,-1,3
 262 50 262 50 306 94 c 128,-1,4
 350 138 350 138 350 200 c 128,-1,5
 350 262 350 262 306 306 c 128,-1,6
 262 350 262 350 200 350 c 128,-1,7
 138 350 138 350 94 306 c 128,-1,0
 50 262 50 262 50 200 c 128,-1,1
EndSplineSet
EndChar

StartChar: Sacute
Encoding: 346 346 347
Width: 400
Flags: W
LayerCount: 2
Fore
SplineSet
50 200 m 128,-1,1
 50 138 50 138 94 94 c 128,-1,2
 138 50 138 50 200 50 c 128,-1,3
 262 50 262 50 306 94 c 128,-1,4
 350 138 350 138 350 200 c 128,-1,5
 350 262 350 262 306 306 c 128,-1,6
 262 350 262 350 200 350 c 128,-1,7
 138 350 138 350 94 306 c 128,-1,0
 50 262 50 262 50 200 c 128,-1,1
EndSplineSet
EndChar

StartChar: sacute
Encoding: 347 347 348
Width: 400
Flags: W
LayerCount: 2
Fore
SplineSet
50 200 m 128,-1,1
 50 138 50 138 94 94 c 128,-1,2
 138 50 138 50 200 50 c 128,-1,3
 262 50 262 50 306 94 c 128,-1,4
 350 138 350 138 350 200 c 128,-1,5
 350 262 350 262 306 306 c 128,-1,6
 262 350 262 350 200 350 c 128,-1,7
 138 350 138 350 94 306 c 128,-1,0
 50 262 50 262 50 200 c 128,-1,1
EndSplineSet
EndChar

StartChar: Scircumflex
Encoding: 348 348 349
Width: 400
Flags: W
LayerCount: 2
Fore
SplineSet
50 200 m 128,-1,1
 50 138 50 138 94 94 c 128,-1,2
 138 50 138 50 200 50 c 128,-1,3
 262 50 262 50 306 94 c 128,-1,4
 350 138 350 138 350 200 c 128,-1,5
 350 262 350 262 306 306 c 128,-1,6
 262 350 262 350 200 350 c 128,-1,7
 138 350 138 350 94 306 c 128,-1,0
 50 262 50 262 50 200 c 128,-1,1
EndSplineSet
EndChar

StartChar: scircumflex
Encoding: 349 349 350
Width: 400
Flags: W
LayerCount: 2
Fore
SplineSet
50 200 m 128,-1,1
 50 138 50 138 94 94 c 128,-1,2
 138 50 138 50 200 50 c 128,-1,3
 262 50 262 50 306 94 c 128,-1,4
 350 138 350 138 350 200 c 128,-1,5
 350 262 350 262 306 306 c 128,-1,6
 262 350 262 350 200 350 c 128,-1,7
 138 350 138 350 94 306 c 128,-1,0
 50 262 50 262 50 200 c 128,-1,1
EndSplineSet
EndChar

StartChar: Scedilla
Encoding: 350 350 351
Width: 400
Flags: W
LayerCount: 2
Fore
SplineSet
50 200 m 128,-1,1
 50 138 50 138 94 94 c 128,-1,2
 138 50 138 50 200 50 c 128,-1,3
 262 50 262 50 306 94 c 128,-1,4
 350 138 350 138 350 200 c 128,-1,5
 350 262 350 262 306 306 c 128,-1,6
 262 350 262 350 200 350 c 128,-1,7
 138 350 138 350 94 306 c 128,-1,0
 50 262 50 262 50 200 c 128,-1,1
EndSplineSet
EndChar

StartChar: scedilla
Encoding: 351 351 352
Width: 400
Flags: W
LayerCount: 2
Fore
SplineSet
50 200 m 128,-1,1
 50 138 50 138 94 94 c 128,-1,2
 138 50 138 50 200 50 c 128,-1,3
 262 50 262 50 306 94 c 128,-1,4
 350 138 350 138 350 200 c 128,-1,5
 350 262 350 262 306 306 c 128,-1,6
 262 350 262 350 200 350 c 128,-1,7
 138 350 138 350 94 306 c 128,-1,0
 50 262 50 262 50 200 c 128,-1,1
EndSplineSet
EndChar

StartChar: Scaron
Encoding: 352 352 353
Width: 400
Flags: W
LayerCount: 2
Fore
SplineSet
50 200 m 128,-1,1
 50 138 50 138 94 94 c 128,-1,2
 138 50 138 50 200 50 c 128,-1,3
 262 50 262 50 306 94 c 128,-1,4
 350 138 350 138 350 200 c 128,-1,5
 350 262 350 262 306 306 c 128,-1,6
 262 350 262 350 200 350 c 128,-1,7
 138 350 138 350 94 306 c 128,-1,0
 50 262 50 262 50 200 c 128,-1,1
EndSplineSet
EndChar

StartChar: scaron
Encoding: 353 353 354
Width: 400
Flags: W
LayerCount: 2
Fore
SplineSet
50 200 m 128,-1,1
 50 138 50 138 94 94 c 128,-1,2
 138 50 138 50 200 50 c 128,-1,3
 262 50 262 50 306 94 c 128,-1,4
 350 138 350 138 350 200 c 128,-1,5
 350 262 350 262 306 306 c 128,-1,6
 262 350 262 350 200 350 c 128,-1,7
 138 350 138 350 94 306 c 128,-1,0
 50 262 50 262 50 200 c 128,-1,1
EndSplineSet
EndChar

StartChar: uni0162
Encoding: 354 354 355
Width: 400
Flags: W
LayerCount: 2
Fore
SplineSet
50 200 m 128,-1,1
 50 138 50 138 94 94 c 128,-1,2
 138 50 138 50 200 50 c 128,-1,3
 262 50 262 50 306 94 c 128,-1,4
 350 138 350 138 350 200 c 128,-1,5
 350 262 350 262 306 306 c 128,-1,6
 262 350 262 350 200 350 c 128,-1,7
 138 350 138 350 94 306 c 128,-1,0
 50 262 50 262 50 200 c 128,-1,1
EndSplineSet
EndChar

StartChar: uni0163
Encoding: 355 355 356
Width: 400
Flags: W
LayerCount: 2
Fore
SplineSet
50 200 m 128,-1,1
 50 138 50 138 94 94 c 128,-1,2
 138 50 138 50 200 50 c 128,-1,3
 262 50 262 50 306 94 c 128,-1,4
 350 138 350 138 350 200 c 128,-1,5
 350 262 350 262 306 306 c 128,-1,6
 262 350 262 350 200 350 c 128,-1,7
 138 350 138 350 94 306 c 128,-1,0
 50 262 50 262 50 200 c 128,-1,1
EndSplineSet
EndChar

StartChar: Tcaron
Encoding: 356 356 357
Width: 400
Flags: W
LayerCount: 2
Fore
SplineSet
50 200 m 128,-1,1
 50 138 50 138 94 94 c 128,-1,2
 138 50 138 50 200 50 c 128,-1,3
 262 50 262 50 306 94 c 128,-1,4
 350 138 350 138 350 200 c 128,-1,5
 350 262 350 262 306 306 c 128,-1,6
 262 350 262 350 200 350 c 128,-1,7
 138 350 138 350 94 306 c 128,-1,0
 50 262 50 262 50 200 c 128,-1,1
EndSplineSet
EndChar

StartChar: tcaron
Encoding: 357 357 358
Width: 400
Flags: W
LayerCount: 2
Fore
SplineSet
50 200 m 128,-1,1
 50 138 50 138 94 94 c 128,-1,2
 138 50 138 50 200 50 c 128,-1,3
 262 50 262 50 306 94 c 128,-1,4
 350 138 350 138 350 200 c 128,-1,5
 350 262 350 262 306 306 c 128,-1,6
 262 350 262 350 200 350 c 128,-1,7
 138 350 138 350 94 306 c 128,-1,0
 50 262 50 262 50 200 c 128,-1,1
EndSplineSet
EndChar

StartChar: Tbar
Encoding: 358 358 359
Width: 400
Flags: W
LayerCount: 2
Fore
SplineSet
50 200 m 128,-1,1
 50 138 50 138 94 94 c 128,-1,2
 138 50 138 50 200 50 c 128,-1,3
 262 50 262 50 306 94 c 128,-1,4
 350 138 350 138 350 200 c 128,-1,5
 350 262 350 262 306 306 c 128,-1,6
 262 350 262 350 200 350 c 128,-1,7
 138 350 138 350 94 306 c 128,-1,0
 50 262 50 262 50 200 c 128,-1,1
EndSplineSet
EndChar

StartChar: tbar
Encoding: 359 359 360
Width: 400
Flags: W
LayerCount: 2
Fore
SplineSet
50 200 m 128,-1,1
 50 138 50 138 94 94 c 128,-1,2
 138 50 138 50 200 50 c 128,-1,3
 262 50 262 50 306 94 c 128,-1,4
 350 138 350 138 350 200 c 128,-1,5
 350 262 350 262 306 306 c 128,-1,6
 262 350 262 350 200 350 c 128,-1,7
 138 350 138 350 94 306 c 128,-1,0
 50 262 50 262 50 200 c 128,-1,1
EndSplineSet
EndChar

StartChar: Utilde
Encoding: 360 360 361
Width: 400
Flags: W
LayerCount: 2
Fore
SplineSet
50 200 m 128,-1,1
 50 138 50 138 94 94 c 128,-1,2
 138 50 138 50 200 50 c 128,-1,3
 262 50 262 50 306 94 c 128,-1,4
 350 138 350 138 350 200 c 128,-1,5
 350 262 350 262 306 306 c 128,-1,6
 262 350 262 350 200 350 c 128,-1,7
 138 350 138 350 94 306 c 128,-1,0
 50 262 50 262 50 200 c 128,-1,1
EndSplineSet
EndChar

StartChar: utilde
Encoding: 361 361 362
Width: 400
Flags: W
LayerCount: 2
Fore
SplineSet
50 200 m 128,-1,1
 50 138 50 138 94 94 c 128,-1,2
 138 50 138 50 200 50 c 128,-1,3
 262 50 262 50 306 94 c 128,-1,4
 350 138 350 138 350 200 c 128,-1,5
 350 262 350 262 306 306 c 128,-1,6
 262 350 262 350 200 350 c 128,-1,7
 138 350 138 350 94 306 c 128,-1,0
 50 262 50 262 50 200 c 128,-1,1
EndSplineSet
EndChar

StartChar: Umacron
Encoding: 362 362 363
Width: 400
Flags: W
LayerCount: 2
Fore
SplineSet
50 200 m 128,-1,1
 50 138 50 138 94 94 c 128,-1,2
 138 50 138 50 200 50 c 128,-1,3
 262 50 262 50 306 94 c 128,-1,4
 350 138 350 138 350 200 c 128,-1,5
 350 262 350 262 306 306 c 128,-1,6
 262 350 262 350 200 350 c 128,-1,7
 138 350 138 350 94 306 c 128,-1,0
 50 262 50 262 50 200 c 128,-1,1
EndSplineSet
EndChar

StartChar: umacron
Encoding: 363 363 364
Width: 400
Flags: W
LayerCount: 2
Fore
SplineSet
50 200 m 128,-1,1
 50 138 50 138 94 94 c 128,-1,2
 138 50 138 50 200 50 c 128,-1,3
 262 50 262 50 306 94 c 128,-1,4
 350 138 350 138 350 200 c 128,-1,5
 350 262 350 262 306 306 c 128,-1,6
 262 350 262 350 200 350 c 128,-1,7
 138 350 138 350 94 306 c 128,-1,0
 50 262 50 262 50 200 c 128,-1,1
EndSplineSet
EndChar

StartChar: Ubreve
Encoding: 364 364 365
Width: 400
Flags: W
LayerCount: 2
Fore
SplineSet
50 200 m 128,-1,1
 50 138 50 138 94 94 c 128,-1,2
 138 50 138 50 200 50 c 128,-1,3
 262 50 262 50 306 94 c 128,-1,4
 350 138 350 138 350 200 c 128,-1,5
 350 262 350 262 306 306 c 128,-1,6
 262 350 262 350 200 350 c 128,-1,7
 138 350 138 350 94 306 c 128,-1,0
 50 262 50 262 50 200 c 128,-1,1
EndSplineSet
EndChar

StartChar: ubreve
Encoding: 365 365 366
Width: 400
Flags: W
LayerCount: 2
Fore
SplineSet
50 200 m 128,-1,1
 50 138 50 138 94 94 c 128,-1,2
 138 50 138 50 200 50 c 128,-1,3
 262 50 262 50 306 94 c 128,-1,4
 350 138 350 138 350 200 c 128,-1,5
 350 262 350 262 306 306 c 128,-1,6
 262 350 262 350 200 350 c 128,-1,7
 138 350 138 350 94 306 c 128,-1,0
 50 262 50 262 50 200 c 128,-1,1
EndSplineSet
EndChar

StartChar: Uring
Encoding: 366 366 367
Width: 400
Flags: W
LayerCount: 2
Fore
SplineSet
50 200 m 128,-1,1
 50 138 50 138 94 94 c 128,-1,2
 138 50 138 50 200 50 c 128,-1,3
 262 50 262 50 306 94 c 128,-1,4
 350 138 350 138 350 200 c 128,-1,5
 350 262 350 262 306 306 c 128,-1,6
 262 350 262 350 200 350 c 128,-1,7
 138 350 138 350 94 306 c 128,-1,0
 50 262 50 262 50 200 c 128,-1,1
EndSplineSet
EndChar

StartChar: uring
Encoding: 367 367 368
Width: 400
Flags: W
LayerCount: 2
Fore
SplineSet
50 200 m 128,-1,1
 50 138 50 138 94 94 c 128,-1,2
 138 50 138 50 200 50 c 128,-1,3
 262 50 262 50 306 94 c 128,-1,4
 350 138 350 138 350 200 c 128,-1,5
 350 262 350 262 306 306 c 128,-1,6
 262 350 262 350 200 350 c 128,-1,7
 138 350 138 350 94 306 c 128,-1,0
 50 262 50 262 50 200 c 128,-1,1
EndSplineSet
EndChar

StartChar: Uhungarumlaut
Encoding: 368 368 369
Width: 400
Flags: W
LayerCount: 2
Fore
SplineSet
50 200 m 128,-1,1
 50 138 50 138 94 94 c 128,-1,2
 138 50 138 50 200 50 c 128,-1,3
 262 50 262 50 306 94 c 128,-1,4
 350 138 350 138 350 200 c 128,-1,5
 350 262 350 262 306 306 c 128,-1,6
 262 350 262 350 200 350 c 128,-1,7
 138 350 138 350 94 306 c 128,-1,0
 50 262 50 262 50 200 c 128,-1,1
EndSplineSet
EndChar

StartChar: uhungarumlaut
Encoding: 369 369 370
Width: 400
Flags: W
LayerCount: 2
Fore
SplineSet
50 200 m 128,-1,1
 50 138 50 138 94 94 c 128,-1,2
 138 50 138 50 200 50 c 128,-1,3
 262 50 262 50 306 94 c 128,-1,4
 350 138 350 138 350 200 c 128,-1,5
 350 262 350 262 306 306 c 128,-1,6
 262 350 262 350 200 350 c 128,-1,7
 138 350 138 350 94 306 c 128,-1,0
 50 262 50 262 50 200 c 128,-1,1
EndSplineSet
EndChar

StartChar: Uogonek
Encoding: 370 370 371
Width: 400
Flags: W
LayerCount: 2
Fore
SplineSet
50 200 m 128,-1,1
 50 138 50 138 94 94 c 128,-1,2
 138 50 138 50 200 50 c 128,-1,3
 262 50 262 50 306 94 c 128,-1,4
 350 138 350 138 350 200 c 128,-1,5
 350 262 350 262 306 306 c 128,-1,6
 262 350 262 350 200 350 c 128,-1,7
 138 350 138 350 94 306 c 128,-1,0
 50 262 50 262 50 200 c 128,-1,1
EndSplineSet
EndChar

StartChar: uogonek
Encoding: 371 371 372
Width: 400
Flags: W
LayerCount: 2
Fore
SplineSet
50 200 m 128,-1,1
 50 138 50 138 94 94 c 128,-1,2
 138 50 138 50 200 50 c 128,-1,3
 262 50 262 50 306 94 c 128,-1,4
 350 138 350 138 350 200 c 128,-1,5
 350 262 350 262 306 306 c 128,-1,6
 262 350 262 350 200 350 c 128,-1,7
 138 350 138 350 94 306 c 128,-1,0
 50 262 50 262 50 200 c 128,-1,1
EndSplineSet
EndChar

StartChar: Wcircumflex
Encoding: 372 372 373
Width: 400
Flags: W
LayerCount: 2
Fore
SplineSet
50 200 m 128,-1,1
 50 138 50 138 94 94 c 128,-1,2
 138 50 138 50 200 50 c 128,-1,3
 262 50 262 50 306 94 c 128,-1,4
 350 138 350 138 350 200 c 128,-1,5
 350 262 350 262 306 306 c 128,-1,6
 262 350 262 350 200 350 c 128,-1,7
 138 350 138 350 94 306 c 128,-1,0
 50 262 50 262 50 200 c 128,-1,1
EndSplineSet
EndChar

StartChar: wcircumflex
Encoding: 373 373 374
Width: 400
Flags: W
LayerCount: 2
Fore
SplineSet
50 200 m 128,-1,1
 50 138 50 138 94 94 c 128,-1,2
 138 50 138 50 200 50 c 128,-1,3
 262 50 262 50 306 94 c 128,-1,4
 350 138 350 138 350 200 c 128,-1,5
 350 262 350 262 306 306 c 128,-1,6
 262 350 262 350 200 350 c 128,-1,7
 138 350 138 350 94 306 c 128,-1,0
 50 262 50 262 50 200 c 128,-1,1
EndSplineSet
EndChar

StartChar: Ycircumflex
Encoding: 374 374 375
Width: 400
Flags: W
LayerCount: 2
Fore
SplineSet
50 200 m 128,-1,1
 50 138 50 138 94 94 c 128,-1,2
 138 50 138 50 200 50 c 128,-1,3
 262 50 262 50 306 94 c 128,-1,4
 350 138 350 138 350 200 c 128,-1,5
 350 262 350 262 306 306 c 128,-1,6
 262 350 262 350 200 350 c 128,-1,7
 138 350 138 350 94 306 c 128,-1,0
 50 262 50 262 50 200 c 128,-1,1
EndSplineSet
EndChar

StartChar: ycircumflex
Encoding: 375 375 376
Width: 400
Flags: W
LayerCount: 2
Fore
SplineSet
50 200 m 128,-1,1
 50 138 50 138 94 94 c 128,-1,2
 138 50 138 50 200 50 c 128,-1,3
 262 50 262 50 306 94 c 128,-1,4
 350 138 350 138 350 200 c 128,-1,5
 350 262 350 262 306 306 c 128,-1,6
 262 350 262 350 200 350 c 128,-1,7
 138 350 138 350 94 306 c 128,-1,0
 50 262 50 262 50 200 c 128,-1,1
EndSplineSet
EndChar

StartChar: Ydieresis
Encoding: 376 376 377
Width: 400
Flags: W
LayerCount: 2
Fore
SplineSet
50 200 m 128,-1,1
 50 138 50 138 94 94 c 128,-1,2
 138 50 138 50 200 50 c 128,-1,3
 262 50 262 50 306 94 c 128,-1,4
 350 138 350 138 350 200 c 128,-1,5
 350 262 350 262 306 306 c 128,-1,6
 262 350 262 350 200 350 c 128,-1,7
 138 350 138 350 94 306 c 128,-1,0
 50 262 50 262 50 200 c 128,-1,1
EndSplineSet
EndChar

StartChar: Zacute
Encoding: 377 377 378
Width: 400
Flags: W
LayerCount: 2
Fore
SplineSet
50 200 m 128,-1,1
 50 138 50 138 94 94 c 128,-1,2
 138 50 138 50 200 50 c 128,-1,3
 262 50 262 50 306 94 c 128,-1,4
 350 138 350 138 350 200 c 128,-1,5
 350 262 350 262 306 306 c 128,-1,6
 262 350 262 350 200 350 c 128,-1,7
 138 350 138 350 94 306 c 128,-1,0
 50 262 50 262 50 200 c 128,-1,1
EndSplineSet
EndChar

StartChar: zacute
Encoding: 378 378 379
Width: 400
Flags: W
LayerCount: 2
Fore
SplineSet
50 200 m 128,-1,1
 50 138 50 138 94 94 c 128,-1,2
 138 50 138 50 200 50 c 128,-1,3
 262 50 262 50 306 94 c 128,-1,4
 350 138 350 138 350 200 c 128,-1,5
 350 262 350 262 306 306 c 128,-1,6
 262 350 262 350 200 350 c 128,-1,7
 138 350 138 350 94 306 c 128,-1,0
 50 262 50 262 50 200 c 128,-1,1
EndSplineSet
EndChar

StartChar: Zdotaccent
Encoding: 379 379 380
Width: 400
Flags: W
LayerCount: 2
Fore
SplineSet
50 200 m 128,-1,1
 50 138 50 138 94 94 c 128,-1,2
 138 50 138 50 200 50 c 128,-1,3
 262 50 262 50 306 94 c 128,-1,4
 350 138 350 138 350 200 c 128,-1,5
 350 262 350 262 306 306 c 128,-1,6
 262 350 262 350 200 350 c 128,-1,7
 138 350 138 350 94 306 c 128,-1,0
 50 262 50 262 50 200 c 128,-1,1
EndSplineSet
EndChar

StartChar: zdotaccent
Encoding: 380 380 381
Width: 400
Flags: W
LayerCount: 2
Fore
SplineSet
50 200 m 128,-1,1
 50 138 50 138 94 94 c 128,-1,2
 138 50 138 50 200 50 c 128,-1,3
 262 50 262 50 306 94 c 128,-1,4
 350 138 350 138 350 200 c 128,-1,5
 350 262 350 262 306 306 c 128,-1,6
 262 350 262 350 200 350 c 128,-1,7
 138 350 138 350 94 306 c 128,-1,0
 50 262 50 262 50 200 c 128,-1,1
EndSplineSet
EndChar

StartChar: Zcaron
Encoding: 381 381 382
Width: 400
Flags: W
LayerCount: 2
Fore
SplineSet
50 200 m 128,-1,1
 50 138 50 138 94 94 c 128,-1,2
 138 50 138 50 200 50 c 128,-1,3
 262 50 262 50 306 94 c 128,-1,4
 350 138 350 138 350 200 c 128,-1,5
 350 262 350 262 306 306 c 128,-1,6
 262 350 262 350 200 350 c 128,-1,7
 138 350 138 350 94 306 c 128,-1,0
 50 262 50 262 50 200 c 128,-1,1
EndSplineSet
EndChar

StartChar: zcaron
Encoding: 382 382 383
Width: 400
Flags: W
LayerCount: 2
Fore
SplineSet
50 200 m 128,-1,1
 50 138 50 138 94 94 c 128,-1,2
 138 50 138 50 200 50 c 128,-1,3
 262 50 262 50 306 94 c 128,-1,4
 350 138 350 138 350 200 c 128,-1,5
 350 262 350 262 306 306 c 128,-1,6
 262 350 262 350 200 350 c 128,-1,7
 138 350 138 350 94 306 c 128,-1,0
 50 262 50 262 50 200 c 128,-1,1
EndSplineSet
EndChar

StartChar: longs
Encoding: 383 383 384
Width: 400
Flags: W
LayerCount: 2
Fore
SplineSet
50 200 m 128,-1,1
 50 138 50 138 94 94 c 128,-1,2
 138 50 138 50 200 50 c 128,-1,3
 262 50 262 50 306 94 c 128,-1,4
 350 138 350 138 350 200 c 128,-1,5
 350 262 350 262 306 306 c 128,-1,6
 262 350 262 350 200 350 c 128,-1,7
 138 350 138 350 94 306 c 128,-1,0
 50 262 50 262 50 200 c 128,-1,1
EndSplineSet
EndChar

StartChar: uni0180
Encoding: 384 384 385
Width: 400
Flags: W
LayerCount: 2
Fore
SplineSet
50 200 m 128,-1,1
 50 138 50 138 94 94 c 128,-1,2
 138 50 138 50 200 50 c 128,-1,3
 262 50 262 50 306 94 c 128,-1,4
 350 138 350 138 350 200 c 128,-1,5
 350 262 350 262 306 306 c 128,-1,6
 262 350 262 350 200 350 c 128,-1,7
 138 350 138 350 94 306 c 128,-1,0
 50 262 50 262 50 200 c 128,-1,1
EndSplineSet
EndChar

StartChar: uni0181
Encoding: 385 385 386
Width: 400
Flags: W
LayerCount: 2
Fore
SplineSet
50 200 m 128,-1,1
 50 138 50 138 94 94 c 128,-1,2
 138 50 138 50 200 50 c 128,-1,3
 262 50 262 50 306 94 c 128,-1,4
 350 138 350 138 350 200 c 128,-1,5
 350 262 350 262 306 306 c 128,-1,6
 262 350 262 350 200 350 c 128,-1,7
 138 350 138 350 94 306 c 128,-1,0
 50 262 50 262 50 200 c 128,-1,1
EndSplineSet
EndChar

StartChar: uni0182
Encoding: 386 386 387
Width: 400
Flags: W
LayerCount: 2
Fore
SplineSet
50 200 m 128,-1,1
 50 138 50 138 94 94 c 128,-1,2
 138 50 138 50 200 50 c 128,-1,3
 262 50 262 50 306 94 c 128,-1,4
 350 138 350 138 350 200 c 128,-1,5
 350 262 350 262 306 306 c 128,-1,6
 262 350 262 350 200 350 c 128,-1,7
 138 350 138 350 94 306 c 128,-1,0
 50 262 50 262 50 200 c 128,-1,1
EndSplineSet
EndChar

StartChar: uni0183
Encoding: 387 387 388
Width: 400
Flags: W
LayerCount: 2
Fore
SplineSet
50 200 m 128,-1,1
 50 138 50 138 94 94 c 128,-1,2
 138 50 138 50 200 50 c 128,-1,3
 262 50 262 50 306 94 c 128,-1,4
 350 138 350 138 350 200 c 128,-1,5
 350 262 350 262 306 306 c 128,-1,6
 262 350 262 350 200 350 c 128,-1,7
 138 350 138 350 94 306 c 128,-1,0
 50 262 50 262 50 200 c 128,-1,1
EndSplineSet
EndChar

StartChar: uni0184
Encoding: 388 388 389
Width: 400
Flags: W
LayerCount: 2
Fore
SplineSet
50 200 m 128,-1,1
 50 138 50 138 94 94 c 128,-1,2
 138 50 138 50 200 50 c 128,-1,3
 262 50 262 50 306 94 c 128,-1,4
 350 138 350 138 350 200 c 128,-1,5
 350 262 350 262 306 306 c 128,-1,6
 262 350 262 350 200 350 c 128,-1,7
 138 350 138 350 94 306 c 128,-1,0
 50 262 50 262 50 200 c 128,-1,1
EndSplineSet
EndChar

StartChar: uni0185
Encoding: 389 389 390
Width: 400
Flags: W
LayerCount: 2
Fore
SplineSet
50 200 m 128,-1,1
 50 138 50 138 94 94 c 128,-1,2
 138 50 138 50 200 50 c 128,-1,3
 262 50 262 50 306 94 c 128,-1,4
 350 138 350 138 350 200 c 128,-1,5
 350 262 350 262 306 306 c 128,-1,6
 262 350 262 350 200 350 c 128,-1,7
 138 350 138 350 94 306 c 128,-1,0
 50 262 50 262 50 200 c 128,-1,1
EndSplineSet
EndChar

StartChar: uni0186
Encoding: 390 390 391
Width: 400
Flags: W
LayerCount: 2
Fore
SplineSet
50 200 m 128,-1,1
 50 138 50 138 94 94 c 128,-1,2
 138 50 138 50 200 50 c 128,-1,3
 262 50 262 50 306 94 c 128,-1,4
 350 138 350 138 350 200 c 128,-1,5
 350 262 350 262 306 306 c 128,-1,6
 262 350 262 350 200 350 c 128,-1,7
 138 350 138 350 94 306 c 128,-1,0
 50 262 50 262 50 200 c 128,-1,1
EndSplineSet
EndChar

StartChar: uni0187
Encoding: 391 391 392
Width: 400
Flags: W
LayerCount: 2
Fore
SplineSet
50 200 m 128,-1,1
 50 138 50 138 94 94 c 128,-1,2
 138 50 138 50 200 50 c 128,-1,3
 262 50 262 50 306 94 c 128,-1,4
 350 138 350 138 350 200 c 128,-1,5
 350 262 350 262 306 306 c 128,-1,6
 262 350 262 350 200 350 c 128,-1,7
 138 350 138 350 94 306 c 128,-1,0
 50 262 50 262 50 200 c 128,-1,1
EndSplineSet
EndChar

StartChar: uni0188
Encoding: 392 392 393
Width: 400
Flags: W
LayerCount: 2
Fore
SplineSet
50 200 m 128,-1,1
 50 138 50 138 94 94 c 128,-1,2
 138 50 138 50 200 50 c 128,-1,3
 262 50 262 50 306 94 c 128,-1,4
 350 138 350 138 350 200 c 128,-1,5
 350 262 350 262 306 306 c 128,-1,6
 262 350 262 350 200 350 c 128,-1,7
 138 350 138 350 94 306 c 128,-1,0
 50 262 50 262 50 200 c 128,-1,1
EndSplineSet
EndChar

StartChar: uni0189
Encoding: 393 393 394
Width: 400
Flags: W
LayerCount: 2
Fore
SplineSet
50 200 m 128,-1,1
 50 138 50 138 94 94 c 128,-1,2
 138 50 138 50 200 50 c 128,-1,3
 262 50 262 50 306 94 c 128,-1,4
 350 138 350 138 350 200 c 128,-1,5
 350 262 350 262 306 306 c 128,-1,6
 262 350 262 350 200 350 c 128,-1,7
 138 350 138 350 94 306 c 128,-1,0
 50 262 50 262 50 200 c 128,-1,1
EndSplineSet
EndChar

StartChar: uni018A
Encoding: 394 394 395
Width: 400
Flags: W
LayerCount: 2
Fore
SplineSet
50 200 m 128,-1,1
 50 138 50 138 94 94 c 128,-1,2
 138 50 138 50 200 50 c 128,-1,3
 262 50 262 50 306 94 c 128,-1,4
 350 138 350 138 350 200 c 128,-1,5
 350 262 350 262 306 306 c 128,-1,6
 262 350 262 350 200 350 c 128,-1,7
 138 350 138 350 94 306 c 128,-1,0
 50 262 50 262 50 200 c 128,-1,1
EndSplineSet
EndChar

StartChar: uni018B
Encoding: 395 395 396
Width: 400
Flags: W
LayerCount: 2
Fore
SplineSet
50 200 m 128,-1,1
 50 138 50 138 94 94 c 128,-1,2
 138 50 138 50 200 50 c 128,-1,3
 262 50 262 50 306 94 c 128,-1,4
 350 138 350 138 350 200 c 128,-1,5
 350 262 350 262 306 306 c 128,-1,6
 262 350 262 350 200 350 c 128,-1,7
 138 350 138 350 94 306 c 128,-1,0
 50 262 50 262 50 200 c 128,-1,1
EndSplineSet
EndChar

StartChar: uni018C
Encoding: 396 396 397
Width: 400
Flags: W
LayerCount: 2
Fore
SplineSet
50 200 m 128,-1,1
 50 138 50 138 94 94 c 128,-1,2
 138 50 138 50 200 50 c 128,-1,3
 262 50 262 50 306 94 c 128,-1,4
 350 138 350 138 350 200 c 128,-1,5
 350 262 350 262 306 306 c 128,-1,6
 262 350 262 350 200 350 c 128,-1,7
 138 350 138 350 94 306 c 128,-1,0
 50 262 50 262 50 200 c 128,-1,1
EndSplineSet
EndChar

StartChar: uni018D
Encoding: 397 397 398
Width: 400
Flags: W
LayerCount: 2
Fore
SplineSet
50 200 m 128,-1,1
 50 138 50 138 94 94 c 128,-1,2
 138 50 138 50 200 50 c 128,-1,3
 262 50 262 50 306 94 c 128,-1,4
 350 138 350 138 350 200 c 128,-1,5
 350 262 350 262 306 306 c 128,-1,6
 262 350 262 350 200 350 c 128,-1,7
 138 350 138 350 94 306 c 128,-1,0
 50 262 50 262 50 200 c 128,-1,1
EndSplineSet
EndChar

StartChar: uni018E
Encoding: 398 398 399
Width: 400
Flags: W
LayerCount: 2
Fore
SplineSet
50 200 m 128,-1,1
 50 138 50 138 94 94 c 128,-1,2
 138 50 138 50 200 50 c 128,-1,3
 262 50 262 50 306 94 c 128,-1,4
 350 138 350 138 350 200 c 128,-1,5
 350 262 350 262 306 306 c 128,-1,6
 262 350 262 350 200 350 c 128,-1,7
 138 350 138 350 94 306 c 128,-1,0
 50 262 50 262 50 200 c 128,-1,1
EndSplineSet
EndChar

StartChar: uni018F
Encoding: 399 399 400
Width: 400
Flags: W
LayerCount: 2
Fore
SplineSet
50 200 m 128,-1,1
 50 138 50 138 94 94 c 128,-1,2
 138 50 138 50 200 50 c 128,-1,3
 262 50 262 50 306 94 c 128,-1,4
 350 138 350 138 350 200 c 128,-1,5
 350 262 350 262 306 306 c 128,-1,6
 262 350 262 350 200 350 c 128,-1,7
 138 350 138 350 94 306 c 128,-1,0
 50 262 50 262 50 200 c 128,-1,1
EndSplineSet
EndChar

StartChar: uni0190
Encoding: 400 400 401
Width: 400
Flags: W
LayerCount: 2
Fore
SplineSet
50 200 m 128,-1,1
 50 138 50 138 94 94 c 128,-1,2
 138 50 138 50 200 50 c 128,-1,3
 262 50 262 50 306 94 c 128,-1,4
 350 138 350 138 350 200 c 128,-1,5
 350 262 350 262 306 306 c 128,-1,6
 262 350 262 350 200 350 c 128,-1,7
 138 350 138 350 94 306 c 128,-1,0
 50 262 50 262 50 200 c 128,-1,1
EndSplineSet
EndChar

StartChar: uni0191
Encoding: 401 401 402
Width: 400
Flags: W
LayerCount: 2
Fore
SplineSet
50 200 m 128,-1,1
 50 138 50 138 94 94 c 128,-1,2
 138 50 138 50 200 50 c 128,-1,3
 262 50 262 50 306 94 c 128,-1,4
 350 138 350 138 350 200 c 128,-1,5
 350 262 350 262 306 306 c 128,-1,6
 262 350 262 350 200 350 c 128,-1,7
 138 350 138 350 94 306 c 128,-1,0
 50 262 50 262 50 200 c 128,-1,1
EndSplineSet
EndChar

StartChar: florin
Encoding: 402 402 403
Width: 400
Flags: W
LayerCount: 2
Fore
SplineSet
50 200 m 128,-1,1
 50 138 50 138 94 94 c 128,-1,2
 138 50 138 50 200 50 c 128,-1,3
 262 50 262 50 306 94 c 128,-1,4
 350 138 350 138 350 200 c 128,-1,5
 350 262 350 262 306 306 c 128,-1,6
 262 350 262 350 200 350 c 128,-1,7
 138 350 138 350 94 306 c 128,-1,0
 50 262 50 262 50 200 c 128,-1,1
EndSplineSet
EndChar

StartChar: uni0193
Encoding: 403 403 404
Width: 400
Flags: W
LayerCount: 2
Fore
SplineSet
50 200 m 128,-1,1
 50 138 50 138 94 94 c 128,-1,2
 138 50 138 50 200 50 c 128,-1,3
 262 50 262 50 306 94 c 128,-1,4
 350 138 350 138 350 200 c 128,-1,5
 350 262 350 262 306 306 c 128,-1,6
 262 350 262 350 200 350 c 128,-1,7
 138 350 138 350 94 306 c 128,-1,0
 50 262 50 262 50 200 c 128,-1,1
EndSplineSet
EndChar

StartChar: uni0194
Encoding: 404 404 405
Width: 400
Flags: W
LayerCount: 2
Fore
SplineSet
50 200 m 128,-1,1
 50 138 50 138 94 94 c 128,-1,2
 138 50 138 50 200 50 c 128,-1,3
 262 50 262 50 306 94 c 128,-1,4
 350 138 350 138 350 200 c 128,-1,5
 350 262 350 262 306 306 c 128,-1,6
 262 350 262 350 200 350 c 128,-1,7
 138 350 138 350 94 306 c 128,-1,0
 50 262 50 262 50 200 c 128,-1,1
EndSplineSet
EndChar

StartChar: uni0195
Encoding: 405 405 406
Width: 400
Flags: W
LayerCount: 2
Fore
SplineSet
50 200 m 128,-1,1
 50 138 50 138 94 94 c 128,-1,2
 138 50 138 50 200 50 c 128,-1,3
 262 50 262 50 306 94 c 128,-1,4
 350 138 350 138 350 200 c 128,-1,5
 350 262 350 262 306 306 c 128,-1,6
 262 350 262 350 200 350 c 128,-1,7
 138 350 138 350 94 306 c 128,-1,0
 50 262 50 262 50 200 c 128,-1,1
EndSplineSet
EndChar

StartChar: uni0196
Encoding: 406 406 407
Width: 400
Flags: W
LayerCount: 2
Fore
SplineSet
50 200 m 128,-1,1
 50 138 50 138 94 94 c 128,-1,2
 138 50 138 50 200 50 c 128,-1,3
 262 50 262 50 306 94 c 128,-1,4
 350 138 350 138 350 200 c 128,-1,5
 350 262 350 262 306 306 c 128,-1,6
 262 350 262 350 200 350 c 128,-1,7
 138 350 138 350 94 306 c 128,-1,0
 50 262 50 262 50 200 c 128,-1,1
EndSplineSet
EndChar

StartChar: uni0197
Encoding: 407 407 408
Width: 400
Flags: W
LayerCount: 2
Fore
SplineSet
50 200 m 128,-1,1
 50 138 50 138 94 94 c 128,-1,2
 138 50 138 50 200 50 c 128,-1,3
 262 50 262 50 306 94 c 128,-1,4
 350 138 350 138 350 200 c 128,-1,5
 350 262 350 262 306 306 c 128,-1,6
 262 350 262 350 200 350 c 128,-1,7
 138 350 138 350 94 306 c 128,-1,0
 50 262 50 262 50 200 c 128,-1,1
EndSplineSet
EndChar

StartChar: uni0198
Encoding: 408 408 409
Width: 400
Flags: W
LayerCount: 2
Fore
SplineSet
50 200 m 128,-1,1
 50 138 50 138 94 94 c 128,-1,2
 138 50 138 50 200 50 c 128,-1,3
 262 50 262 50 306 94 c 128,-1,4
 350 138 350 138 350 200 c 128,-1,5
 350 262 350 262 306 306 c 128,-1,6
 262 350 262 350 200 350 c 128,-1,7
 138 350 138 350 94 306 c 128,-1,0
 50 262 50 262 50 200 c 128,-1,1
EndSplineSet
EndChar

StartChar: uni0199
Encoding: 409 409 410
Width: 400
Flags: W
LayerCount: 2
Fore
SplineSet
50 200 m 128,-1,1
 50 138 50 138 94 94 c 128,-1,2
 138 50 138 50 200 50 c 128,-1,3
 262 50 262 50 306 94 c 128,-1,4
 350 138 350 138 350 200 c 128,-1,5
 350 262 350 262 306 306 c 128,-1,6
 262 350 262 350 200 350 c 128,-1,7
 138 350 138 350 94 306 c 128,-1,0
 50 262 50 262 50 200 c 128,-1,1
EndSplineSet
EndChar

StartChar: uni019A
Encoding: 410 410 411
Width: 400
Flags: W
LayerCount: 2
Fore
SplineSet
50 200 m 128,-1,1
 50 138 50 138 94 94 c 128,-1,2
 138 50 138 50 200 50 c 128,-1,3
 262 50 262 50 306 94 c 128,-1,4
 350 138 350 138 350 200 c 128,-1,5
 350 262 350 262 306 306 c 128,-1,6
 262 350 262 350 200 350 c 128,-1,7
 138 350 138 350 94 306 c 128,-1,0
 50 262 50 262 50 200 c 128,-1,1
EndSplineSet
EndChar

StartChar: uni019B
Encoding: 411 411 412
Width: 400
Flags: W
LayerCount: 2
Fore
SplineSet
50 200 m 128,-1,1
 50 138 50 138 94 94 c 128,-1,2
 138 50 138 50 200 50 c 128,-1,3
 262 50 262 50 306 94 c 128,-1,4
 350 138 350 138 350 200 c 128,-1,5
 350 262 350 262 306 306 c 128,-1,6
 262 350 262 350 200 350 c 128,-1,7
 138 350 138 350 94 306 c 128,-1,0
 50 262 50 262 50 200 c 128,-1,1
EndSplineSet
EndChar

StartChar: uni019C
Encoding: 412 412 413
Width: 400
Flags: W
LayerCount: 2
Fore
SplineSet
50 200 m 128,-1,1
 50 138 50 138 94 94 c 128,-1,2
 138 50 138 50 200 50 c 128,-1,3
 262 50 262 50 306 94 c 128,-1,4
 350 138 350 138 350 200 c 128,-1,5
 350 262 350 262 306 306 c 128,-1,6
 262 350 262 350 200 350 c 128,-1,7
 138 350 138 350 94 306 c 128,-1,0
 50 262 50 262 50 200 c 128,-1,1
EndSplineSet
EndChar

StartChar: uni019D
Encoding: 413 413 414
Width: 400
Flags: W
LayerCount: 2
Fore
SplineSet
50 200 m 128,-1,1
 50 138 50 138 94 94 c 128,-1,2
 138 50 138 50 200 50 c 128,-1,3
 262 50 262 50 306 94 c 128,-1,4
 350 138 350 138 350 200 c 128,-1,5
 350 262 350 262 306 306 c 128,-1,6
 262 350 262 350 200 350 c 128,-1,7
 138 350 138 350 94 306 c 128,-1,0
 50 262 50 262 50 200 c 128,-1,1
EndSplineSet
EndChar

StartChar: uni019E
Encoding: 414 414 415
Width: 400
Flags: W
LayerCount: 2
Fore
SplineSet
50 200 m 128,-1,1
 50 138 50 138 94 94 c 128,-1,2
 138 50 138 50 200 50 c 128,-1,3
 262 50 262 50 306 94 c 128,-1,4
 350 138 350 138 350 200 c 128,-1,5
 350 262 350 262 306 306 c 128,-1,6
 262 350 262 350 200 350 c 128,-1,7
 138 350 138 350 94 306 c 128,-1,0
 50 262 50 262 50 200 c 128,-1,1
EndSplineSet
EndChar

StartChar: uni019F
Encoding: 415 415 416
Width: 400
Flags: W
LayerCount: 2
Fore
SplineSet
50 200 m 128,-1,1
 50 138 50 138 94 94 c 128,-1,2
 138 50 138 50 200 50 c 128,-1,3
 262 50 262 50 306 94 c 128,-1,4
 350 138 350 138 350 200 c 128,-1,5
 350 262 350 262 306 306 c 128,-1,6
 262 350 262 350 200 350 c 128,-1,7
 138 350 138 350 94 306 c 128,-1,0
 50 262 50 262 50 200 c 128,-1,1
EndSplineSet
EndChar

StartChar: Ohorn
Encoding: 416 416 417
Width: 400
Flags: W
LayerCount: 2
Fore
SplineSet
50 200 m 128,-1,1
 50 138 50 138 94 94 c 128,-1,2
 138 50 138 50 200 50 c 128,-1,3
 262 50 262 50 306 94 c 128,-1,4
 350 138 350 138 350 200 c 128,-1,5
 350 262 350 262 306 306 c 128,-1,6
 262 350 262 350 200 350 c 128,-1,7
 138 350 138 350 94 306 c 128,-1,0
 50 262 50 262 50 200 c 128,-1,1
EndSplineSet
EndChar

StartChar: ohorn
Encoding: 417 417 418
Width: 400
Flags: W
LayerCount: 2
Fore
SplineSet
50 200 m 128,-1,1
 50 138 50 138 94 94 c 128,-1,2
 138 50 138 50 200 50 c 128,-1,3
 262 50 262 50 306 94 c 128,-1,4
 350 138 350 138 350 200 c 128,-1,5
 350 262 350 262 306 306 c 128,-1,6
 262 350 262 350 200 350 c 128,-1,7
 138 350 138 350 94 306 c 128,-1,0
 50 262 50 262 50 200 c 128,-1,1
EndSplineSet
EndChar

StartChar: uni01A2
Encoding: 418 418 419
Width: 400
Flags: W
LayerCount: 2
Fore
SplineSet
50 200 m 128,-1,1
 50 138 50 138 94 94 c 128,-1,2
 138 50 138 50 200 50 c 128,-1,3
 262 50 262 50 306 94 c 128,-1,4
 350 138 350 138 350 200 c 128,-1,5
 350 262 350 262 306 306 c 128,-1,6
 262 350 262 350 200 350 c 128,-1,7
 138 350 138 350 94 306 c 128,-1,0
 50 262 50 262 50 200 c 128,-1,1
EndSplineSet
EndChar

StartChar: uni01A3
Encoding: 419 419 420
Width: 400
Flags: W
LayerCount: 2
Fore
SplineSet
50 200 m 128,-1,1
 50 138 50 138 94 94 c 128,-1,2
 138 50 138 50 200 50 c 128,-1,3
 262 50 262 50 306 94 c 128,-1,4
 350 138 350 138 350 200 c 128,-1,5
 350 262 350 262 306 306 c 128,-1,6
 262 350 262 350 200 350 c 128,-1,7
 138 350 138 350 94 306 c 128,-1,0
 50 262 50 262 50 200 c 128,-1,1
EndSplineSet
EndChar

StartChar: uni01A4
Encoding: 420 420 421
Width: 400
Flags: W
LayerCount: 2
Fore
SplineSet
50 200 m 128,-1,1
 50 138 50 138 94 94 c 128,-1,2
 138 50 138 50 200 50 c 128,-1,3
 262 50 262 50 306 94 c 128,-1,4
 350 138 350 138 350 200 c 128,-1,5
 350 262 350 262 306 306 c 128,-1,6
 262 350 262 350 200 350 c 128,-1,7
 138 350 138 350 94 306 c 128,-1,0
 50 262 50 262 50 200 c 128,-1,1
EndSplineSet
EndChar

StartChar: uni01A5
Encoding: 421 421 422
Width: 400
Flags: W
LayerCount: 2
Fore
SplineSet
50 200 m 128,-1,1
 50 138 50 138 94 94 c 128,-1,2
 138 50 138 50 200 50 c 128,-1,3
 262 50 262 50 306 94 c 128,-1,4
 350 138 350 138 350 200 c 128,-1,5
 350 262 350 262 306 306 c 128,-1,6
 262 350 262 350 200 350 c 128,-1,7
 138 350 138 350 94 306 c 128,-1,0
 50 262 50 262 50 200 c 128,-1,1
EndSplineSet
EndChar

StartChar: uni01A6
Encoding: 422 422 423
Width: 400
Flags: W
LayerCount: 2
Fore
SplineSet
50 200 m 128,-1,1
 50 138 50 138 94 94 c 128,-1,2
 138 50 138 50 200 50 c 128,-1,3
 262 50 262 50 306 94 c 128,-1,4
 350 138 350 138 350 200 c 128,-1,5
 350 262 350 262 306 306 c 128,-1,6
 262 350 262 350 200 350 c 128,-1,7
 138 350 138 350 94 306 c 128,-1,0
 50 262 50 262 50 200 c 128,-1,1
EndSplineSet
EndChar

StartChar: uni01A7
Encoding: 423 423 424
Width: 400
Flags: W
LayerCount: 2
Fore
SplineSet
50 200 m 128,-1,1
 50 138 50 138 94 94 c 128,-1,2
 138 50 138 50 200 50 c 128,-1,3
 262 50 262 50 306 94 c 128,-1,4
 350 138 350 138 350 200 c 128,-1,5
 350 262 350 262 306 306 c 128,-1,6
 262 350 262 350 200 350 c 128,-1,7
 138 350 138 350 94 306 c 128,-1,0
 50 262 50 262 50 200 c 128,-1,1
EndSplineSet
EndChar

StartChar: uni01A8
Encoding: 424 424 425
Width: 400
Flags: W
LayerCount: 2
Fore
SplineSet
50 200 m 128,-1,1
 50 138 50 138 94 94 c 128,-1,2
 138 50 138 50 200 50 c 128,-1,3
 262 50 262 50 306 94 c 128,-1,4
 350 138 350 138 350 200 c 128,-1,5
 350 262 350 262 306 306 c 128,-1,6
 262 350 262 350 200 350 c 128,-1,7
 138 350 138 350 94 306 c 128,-1,0
 50 262 50 262 50 200 c 128,-1,1
EndSplineSet
EndChar

StartChar: uni01A9
Encoding: 425 425 426
Width: 400
Flags: W
LayerCount: 2
Fore
SplineSet
50 200 m 128,-1,1
 50 138 50 138 94 94 c 128,-1,2
 138 50 138 50 200 50 c 128,-1,3
 262 50 262 50 306 94 c 128,-1,4
 350 138 350 138 350 200 c 128,-1,5
 350 262 350 262 306 306 c 128,-1,6
 262 350 262 350 200 350 c 128,-1,7
 138 350 138 350 94 306 c 128,-1,0
 50 262 50 262 50 200 c 128,-1,1
EndSplineSet
EndChar

StartChar: uni01AA
Encoding: 426 426 427
Width: 400
Flags: W
LayerCount: 2
Fore
SplineSet
50 200 m 128,-1,1
 50 138 50 138 94 94 c 128,-1,2
 138 50 138 50 200 50 c 128,-1,3
 262 50 262 50 306 94 c 128,-1,4
 350 138 350 138 350 200 c 128,-1,5
 350 262 350 262 306 306 c 128,-1,6
 262 350 262 350 200 350 c 128,-1,7
 138 350 138 350 94 306 c 128,-1,0
 50 262 50 262 50 200 c 128,-1,1
EndSplineSet
EndChar

StartChar: uni01AB
Encoding: 427 427 428
Width: 400
Flags: W
LayerCount: 2
Fore
SplineSet
50 200 m 128,-1,1
 50 138 50 138 94 94 c 128,-1,2
 138 50 138 50 200 50 c 128,-1,3
 262 50 262 50 306 94 c 128,-1,4
 350 138 350 138 350 200 c 128,-1,5
 350 262 350 262 306 306 c 128,-1,6
 262 350 262 350 200 350 c 128,-1,7
 138 350 138 350 94 306 c 128,-1,0
 50 262 50 262 50 200 c 128,-1,1
EndSplineSet
EndChar

StartChar: uni01AC
Encoding: 428 428 429
Width: 400
Flags: W
LayerCount: 2
Fore
SplineSet
50 200 m 128,-1,1
 50 138 50 138 94 94 c 128,-1,2
 138 50 138 50 200 50 c 128,-1,3
 262 50 262 50 306 94 c 128,-1,4
 350 138 350 138 350 200 c 128,-1,5
 350 262 350 262 306 306 c 128,-1,6
 262 350 262 350 200 350 c 128,-1,7
 138 350 138 350 94 306 c 128,-1,0
 50 262 50 262 50 200 c 128,-1,1
EndSplineSet
EndChar

StartChar: uni01AD
Encoding: 429 429 430
Width: 400
Flags: W
LayerCount: 2
Fore
SplineSet
50 200 m 128,-1,1
 50 138 50 138 94 94 c 128,-1,2
 138 50 138 50 200 50 c 128,-1,3
 262 50 262 50 306 94 c 128,-1,4
 350 138 350 138 350 200 c 128,-1,5
 350 262 350 262 306 306 c 128,-1,6
 262 350 262 350 200 350 c 128,-1,7
 138 350 138 350 94 306 c 128,-1,0
 50 262 50 262 50 200 c 128,-1,1
EndSplineSet
EndChar

StartChar: uni01AE
Encoding: 430 430 431
Width: 400
Flags: W
LayerCount: 2
Fore
SplineSet
50 200 m 128,-1,1
 50 138 50 138 94 94 c 128,-1,2
 138 50 138 50 200 50 c 128,-1,3
 262 50 262 50 306 94 c 128,-1,4
 350 138 350 138 350 200 c 128,-1,5
 350 262 350 262 306 306 c 128,-1,6
 262 350 262 350 200 350 c 128,-1,7
 138 350 138 350 94 306 c 128,-1,0
 50 262 50 262 50 200 c 128,-1,1
EndSplineSet
EndChar

StartChar: Uhorn
Encoding: 431 431 432
Width: 400
Flags: W
LayerCount: 2
Fore
SplineSet
50 200 m 128,-1,1
 50 138 50 138 94 94 c 128,-1,2
 138 50 138 50 200 50 c 128,-1,3
 262 50 262 50 306 94 c 128,-1,4
 350 138 350 138 350 200 c 128,-1,5
 350 262 350 262 306 306 c 128,-1,6
 262 350 262 350 200 350 c 128,-1,7
 138 350 138 350 94 306 c 128,-1,0
 50 262 50 262 50 200 c 128,-1,1
EndSplineSet
EndChar

StartChar: uhorn
Encoding: 432 432 433
Width: 400
Flags: W
LayerCount: 2
Fore
SplineSet
50 200 m 128,-1,1
 50 138 50 138 94 94 c 128,-1,2
 138 50 138 50 200 50 c 128,-1,3
 262 50 262 50 306 94 c 128,-1,4
 350 138 350 138 350 200 c 128,-1,5
 350 262 350 262 306 306 c 128,-1,6
 262 350 262 350 200 350 c 128,-1,7
 138 350 138 350 94 306 c 128,-1,0
 50 262 50 262 50 200 c 128,-1,1
EndSplineSet
EndChar

StartChar: uni01B1
Encoding: 433 433 434
Width: 400
Flags: W
LayerCount: 2
Fore
SplineSet
50 200 m 128,-1,1
 50 138 50 138 94 94 c 128,-1,2
 138 50 138 50 200 50 c 128,-1,3
 262 50 262 50 306 94 c 128,-1,4
 350 138 350 138 350 200 c 128,-1,5
 350 262 350 262 306 306 c 128,-1,6
 262 350 262 350 200 350 c 128,-1,7
 138 350 138 350 94 306 c 128,-1,0
 50 262 50 262 50 200 c 128,-1,1
EndSplineSet
EndChar

StartChar: uni01B2
Encoding: 434 434 435
Width: 400
Flags: W
LayerCount: 2
Fore
SplineSet
50 200 m 128,-1,1
 50 138 50 138 94 94 c 128,-1,2
 138 50 138 50 200 50 c 128,-1,3
 262 50 262 50 306 94 c 128,-1,4
 350 138 350 138 350 200 c 128,-1,5
 350 262 350 262 306 306 c 128,-1,6
 262 350 262 350 200 350 c 128,-1,7
 138 350 138 350 94 306 c 128,-1,0
 50 262 50 262 50 200 c 128,-1,1
EndSplineSet
EndChar

StartChar: uni01B3
Encoding: 435 435 436
Width: 400
Flags: W
LayerCount: 2
Fore
SplineSet
50 200 m 128,-1,1
 50 138 50 138 94 94 c 128,-1,2
 138 50 138 50 200 50 c 128,-1,3
 262 50 262 50 306 94 c 128,-1,4
 350 138 350 138 350 200 c 128,-1,5
 350 262 350 262 306 306 c 128,-1,6
 262 350 262 350 200 350 c 128,-1,7
 138 350 138 350 94 306 c 128,-1,0
 50 262 50 262 50 200 c 128,-1,1
EndSplineSet
EndChar

StartChar: uni01B4
Encoding: 436 436 437
Width: 400
Flags: W
LayerCount: 2
Fore
SplineSet
50 200 m 128,-1,1
 50 138 50 138 94 94 c 128,-1,2
 138 50 138 50 200 50 c 128,-1,3
 262 50 262 50 306 94 c 128,-1,4
 350 138 350 138 350 200 c 128,-1,5
 350 262 350 262 306 306 c 128,-1,6
 262 350 262 350 200 350 c 128,-1,7
 138 350 138 350 94 306 c 128,-1,0
 50 262 50 262 50 200 c 128,-1,1
EndSplineSet
EndChar

StartChar: uni01B5
Encoding: 437 437 438
Width: 400
Flags: W
LayerCount: 2
Fore
SplineSet
50 200 m 128,-1,1
 50 138 50 138 94 94 c 128,-1,2
 138 50 138 50 200 50 c 128,-1,3
 262 50 262 50 306 94 c 128,-1,4
 350 138 350 138 350 200 c 128,-1,5
 350 262 350 262 306 306 c 128,-1,6
 262 350 262 350 200 350 c 128,-1,7
 138 350 138 350 94 306 c 128,-1,0
 50 262 50 262 50 200 c 128,-1,1
EndSplineSet
EndChar

StartChar: uni01B6
Encoding: 438 438 439
Width: 400
Flags: W
LayerCount: 2
Fore
SplineSet
50 200 m 128,-1,1
 50 138 50 138 94 94 c 128,-1,2
 138 50 138 50 200 50 c 128,-1,3
 262 50 262 50 306 94 c 128,-1,4
 350 138 350 138 350 200 c 128,-1,5
 350 262 350 262 306 306 c 128,-1,6
 262 350 262 350 200 350 c 128,-1,7
 138 350 138 350 94 306 c 128,-1,0
 50 262 50 262 50 200 c 128,-1,1
EndSplineSet
EndChar

StartChar: uni01B7
Encoding: 439 439 440
Width: 400
Flags: W
LayerCount: 2
Fore
SplineSet
50 200 m 128,-1,1
 50 138 50 138 94 94 c 128,-1,2
 138 50 138 50 200 50 c 128,-1,3
 262 50 262 50 306 94 c 128,-1,4
 350 138 350 138 350 200 c 128,-1,5
 350 262 350 262 306 306 c 128,-1,6
 262 350 262 350 200 350 c 128,-1,7
 138 350 138 350 94 306 c 128,-1,0
 50 262 50 262 50 200 c 128,-1,1
EndSplineSet
EndChar

StartChar: uni01B8
Encoding: 440 440 441
Width: 400
Flags: W
LayerCount: 2
Fore
SplineSet
50 200 m 128,-1,1
 50 138 50 138 94 94 c 128,-1,2
 138 50 138 50 200 50 c 128,-1,3
 262 50 262 50 306 94 c 128,-1,4
 350 138 350 138 350 200 c 128,-1,5
 350 262 350 262 306 306 c 128,-1,6
 262 350 262 350 200 350 c 128,-1,7
 138 350 138 350 94 306 c 128,-1,0
 50 262 50 262 50 200 c 128,-1,1
EndSplineSet
EndChar

StartChar: uni01B9
Encoding: 441 441 442
Width: 400
Flags: W
LayerCount: 2
Fore
SplineSet
50 200 m 128,-1,1
 50 138 50 138 94 94 c 128,-1,2
 138 50 138 50 200 50 c 128,-1,3
 262 50 262 50 306 94 c 128,-1,4
 350 138 350 138 350 200 c 128,-1,5
 350 262 350 262 306 306 c 128,-1,6
 262 350 262 350 200 350 c 128,-1,7
 138 350 138 350 94 306 c 128,-1,0
 50 262 50 262 50 200 c 128,-1,1
EndSplineSet
EndChar

StartChar: uni01BA
Encoding: 442 442 443
Width: 400
Flags: W
LayerCount: 2
Fore
SplineSet
50 200 m 128,-1,1
 50 138 50 138 94 94 c 128,-1,2
 138 50 138 50 200 50 c 128,-1,3
 262 50 262 50 306 94 c 128,-1,4
 350 138 350 138 350 200 c 128,-1,5
 350 262 350 262 306 306 c 128,-1,6
 262 350 262 350 200 350 c 128,-1,7
 138 350 138 350 94 306 c 128,-1,0
 50 262 50 262 50 200 c 128,-1,1
EndSplineSet
EndChar

StartChar: uni01BB
Encoding: 443 443 444
Width: 400
Flags: W
LayerCount: 2
Fore
SplineSet
50 200 m 128,-1,1
 50 138 50 138 94 94 c 128,-1,2
 138 50 138 50 200 50 c 128,-1,3
 262 50 262 50 306 94 c 128,-1,4
 350 138 350 138 350 200 c 128,-1,5
 350 262 350 262 306 306 c 128,-1,6
 262 350 262 350 200 350 c 128,-1,7
 138 350 138 350 94 306 c 128,-1,0
 50 262 50 262 50 200 c 128,-1,1
EndSplineSet
EndChar

StartChar: uni01BC
Encoding: 444 444 445
Width: 400
Flags: W
LayerCount: 2
Fore
SplineSet
50 200 m 128,-1,1
 50 138 50 138 94 94 c 128,-1,2
 138 50 138 50 200 50 c 128,-1,3
 262 50 262 50 306 94 c 128,-1,4
 350 138 350 138 350 200 c 128,-1,5
 350 262 350 262 306 306 c 128,-1,6
 262 350 262 350 200 350 c 128,-1,7
 138 350 138 350 94 306 c 128,-1,0
 50 262 50 262 50 200 c 128,-1,1
EndSplineSet
EndChar

StartChar: uni01BD
Encoding: 445 445 446
Width: 400
Flags: W
LayerCount: 2
Fore
SplineSet
50 200 m 128,-1,1
 50 138 50 138 94 94 c 128,-1,2
 138 50 138 50 200 50 c 128,-1,3
 262 50 262 50 306 94 c 128,-1,4
 350 138 350 138 350 200 c 128,-1,5
 350 262 350 262 306 306 c 128,-1,6
 262 350 262 350 200 350 c 128,-1,7
 138 350 138 350 94 306 c 128,-1,0
 50 262 50 262 50 200 c 128,-1,1
EndSplineSet
EndChar

StartChar: uni01BE
Encoding: 446 446 447
Width: 400
Flags: W
LayerCount: 2
Fore
SplineSet
50 200 m 128,-1,1
 50 138 50 138 94 94 c 128,-1,2
 138 50 138 50 200 50 c 128,-1,3
 262 50 262 50 306 94 c 128,-1,4
 350 138 350 138 350 200 c 128,-1,5
 350 262 350 262 306 306 c 128,-1,6
 262 350 262 350 200 350 c 128,-1,7
 138 350 138 350 94 306 c 128,-1,0
 50 262 50 262 50 200 c 128,-1,1
EndSplineSet
EndChar

StartChar: uni01BF
Encoding: 447 447 448
Width: 400
Flags: W
LayerCount: 2
Fore
SplineSet
50 200 m 128,-1,1
 50 138 50 138 94 94 c 128,-1,2
 138 50 138 50 200 50 c 128,-1,3
 262 50 262 50 306 94 c 128,-1,4
 350 138 350 138 350 200 c 128,-1,5
 350 262 350 262 306 306 c 128,-1,6
 262 350 262 350 200 350 c 128,-1,7
 138 350 138 350 94 306 c 128,-1,0
 50 262 50 262 50 200 c 128,-1,1
EndSplineSet
EndChar

StartChar: uni01C0
Encoding: 448 448 449
Width: 400
Flags: W
LayerCount: 2
Fore
SplineSet
50 200 m 128,-1,1
 50 138 50 138 94 94 c 128,-1,2
 138 50 138 50 200 50 c 128,-1,3
 262 50 262 50 306 94 c 128,-1,4
 350 138 350 138 350 200 c 128,-1,5
 350 262 350 262 306 306 c 128,-1,6
 262 350 262 350 200 350 c 128,-1,7
 138 350 138 350 94 306 c 128,-1,0
 50 262 50 262 50 200 c 128,-1,1
EndSplineSet
EndChar

StartChar: uni01C1
Encoding: 449 449 450
Width: 400
Flags: W
LayerCount: 2
Fore
SplineSet
50 200 m 128,-1,1
 50 138 50 138 94 94 c 128,-1,2
 138 50 138 50 200 50 c 128,-1,3
 262 50 262 50 306 94 c 128,-1,4
 350 138 350 138 350 200 c 128,-1,5
 350 262 350 262 306 306 c 128,-1,6
 262 350 262 350 200 350 c 128,-1,7
 138 350 138 350 94 306 c 128,-1,0
 50 262 50 262 50 200 c 128,-1,1
EndSplineSet
EndChar

StartChar: uni01C2
Encoding: 450 450 451
Width: 400
Flags: W
LayerCount: 2
Fore
SplineSet
50 200 m 128,-1,1
 50 138 50 138 94 94 c 128,-1,2
 138 50 138 50 200 50 c 128,-1,3
 262 50 262 50 306 94 c 128,-1,4
 350 138 350 138 350 200 c 128,-1,5
 350 262 350 262 306 306 c 128,-1,6
 262 350 262 350 200 350 c 128,-1,7
 138 350 138 350 94 306 c 128,-1,0
 50 262 50 262 50 200 c 128,-1,1
EndSplineSet
EndChar

StartChar: uni01C3
Encoding: 451 451 452
Width: 400
Flags: W
LayerCount: 2
Fore
SplineSet
50 200 m 128,-1,1
 50 138 50 138 94 94 c 128,-1,2
 138 50 138 50 200 50 c 128,-1,3
 262 50 262 50 306 94 c 128,-1,4
 350 138 350 138 350 200 c 128,-1,5
 350 262 350 262 306 306 c 128,-1,6
 262 350 262 350 200 350 c 128,-1,7
 138 350 138 350 94 306 c 128,-1,0
 50 262 50 262 50 200 c 128,-1,1
EndSplineSet
EndChar

StartChar: uni01C4
Encoding: 452 452 453
Width: 400
Flags: W
LayerCount: 2
Fore
SplineSet
50 200 m 128,-1,1
 50 138 50 138 94 94 c 128,-1,2
 138 50 138 50 200 50 c 128,-1,3
 262 50 262 50 306 94 c 128,-1,4
 350 138 350 138 350 200 c 128,-1,5
 350 262 350 262 306 306 c 128,-1,6
 262 350 262 350 200 350 c 128,-1,7
 138 350 138 350 94 306 c 128,-1,0
 50 262 50 262 50 200 c 128,-1,1
EndSplineSet
EndChar

StartChar: uni01C5
Encoding: 453 453 454
Width: 400
Flags: W
LayerCount: 2
Fore
SplineSet
50 200 m 128,-1,1
 50 138 50 138 94 94 c 128,-1,2
 138 50 138 50 200 50 c 128,-1,3
 262 50 262 50 306 94 c 128,-1,4
 350 138 350 138 350 200 c 128,-1,5
 350 262 350 262 306 306 c 128,-1,6
 262 350 262 350 200 350 c 128,-1,7
 138 350 138 350 94 306 c 128,-1,0
 50 262 50 262 50 200 c 128,-1,1
EndSplineSet
EndChar

StartChar: uni01C6
Encoding: 454 454 455
Width: 400
Flags: W
LayerCount: 2
Fore
SplineSet
50 200 m 128,-1,1
 50 138 50 138 94 94 c 128,-1,2
 138 50 138 50 200 50 c 128,-1,3
 262 50 262 50 306 94 c 128,-1,4
 350 138 350 138 350 200 c 128,-1,5
 350 262 350 262 306 306 c 128,-1,6
 262 350 262 350 200 350 c 128,-1,7
 138 350 138 350 94 306 c 128,-1,0
 50 262 50 262 50 200 c 128,-1,1
EndSplineSet
EndChar

StartChar: uni01C7
Encoding: 455 455 456
Width: 400
Flags: W
LayerCount: 2
Fore
SplineSet
50 200 m 128,-1,1
 50 138 50 138 94 94 c 128,-1,2
 138 50 138 50 200 50 c 128,-1,3
 262 50 262 50 306 94 c 128,-1,4
 350 138 350 138 350 200 c 128,-1,5
 350 262 350 262 306 306 c 128,-1,6
 262 350 262 350 200 350 c 128,-1,7
 138 350 138 350 94 306 c 128,-1,0
 50 262 50 262 50 200 c 128,-1,1
EndSplineSet
EndChar

StartChar: uni01C8
Encoding: 456 456 457
Width: 400
Flags: W
LayerCount: 2
Fore
SplineSet
50 200 m 128,-1,1
 50 138 50 138 94 94 c 128,-1,2
 138 50 138 50 200 50 c 128,-1,3
 262 50 262 50 306 94 c 128,-1,4
 350 138 350 138 350 200 c 128,-1,5
 350 262 350 262 306 306 c 128,-1,6
 262 350 262 350 200 350 c 128,-1,7
 138 350 138 350 94 306 c 128,-1,0
 50 262 50 262 50 200 c 128,-1,1
EndSplineSet
EndChar

StartChar: uni01C9
Encoding: 457 457 458
Width: 400
Flags: W
LayerCount: 2
Fore
SplineSet
50 200 m 128,-1,1
 50 138 50 138 94 94 c 128,-1,2
 138 50 138 50 200 50 c 128,-1,3
 262 50 262 50 306 94 c 128,-1,4
 350 138 350 138 350 200 c 128,-1,5
 350 262 350 262 306 306 c 128,-1,6
 262 350 262 350 200 350 c 128,-1,7
 138 350 138 350 94 306 c 128,-1,0
 50 262 50 262 50 200 c 128,-1,1
EndSplineSet
EndChar

StartChar: uni01CA
Encoding: 458 458 459
Width: 400
Flags: W
LayerCount: 2
Fore
SplineSet
50 200 m 128,-1,1
 50 138 50 138 94 94 c 128,-1,2
 138 50 138 50 200 50 c 128,-1,3
 262 50 262 50 306 94 c 128,-1,4
 350 138 350 138 350 200 c 128,-1,5
 350 262 350 262 306 306 c 128,-1,6
 262 350 262 350 200 350 c 128,-1,7
 138 350 138 350 94 306 c 128,-1,0
 50 262 50 262 50 200 c 128,-1,1
EndSplineSet
EndChar

StartChar: uni01CB
Encoding: 459 459 460
Width: 400
Flags: W
LayerCount: 2
Fore
SplineSet
50 200 m 128,-1,1
 50 138 50 138 94 94 c 128,-1,2
 138 50 138 50 200 50 c 128,-1,3
 262 50 262 50 306 94 c 128,-1,4
 350 138 350 138 350 200 c 128,-1,5
 350 262 350 262 306 306 c 128,-1,6
 262 350 262 350 200 350 c 128,-1,7
 138 350 138 350 94 306 c 128,-1,0
 50 262 50 262 50 200 c 128,-1,1
EndSplineSet
EndChar

StartChar: uni01CC
Encoding: 460 460 461
Width: 400
Flags: W
LayerCount: 2
Fore
SplineSet
50 200 m 128,-1,1
 50 138 50 138 94 94 c 128,-1,2
 138 50 138 50 200 50 c 128,-1,3
 262 50 262 50 306 94 c 128,-1,4
 350 138 350 138 350 200 c 128,-1,5
 350 262 350 262 306 306 c 128,-1,6
 262 350 262 350 200 350 c 128,-1,7
 138 350 138 350 94 306 c 128,-1,0
 50 262 50 262 50 200 c 128,-1,1
EndSplineSet
EndChar

StartChar: uni01CD
Encoding: 461 461 462
Width: 400
Flags: W
LayerCount: 2
Fore
SplineSet
50 200 m 128,-1,1
 50 138 50 138 94 94 c 128,-1,2
 138 50 138 50 200 50 c 128,-1,3
 262 50 262 50 306 94 c 128,-1,4
 350 138 350 138 350 200 c 128,-1,5
 350 262 350 262 306 306 c 128,-1,6
 262 350 262 350 200 350 c 128,-1,7
 138 350 138 350 94 306 c 128,-1,0
 50 262 50 262 50 200 c 128,-1,1
EndSplineSet
EndChar

StartChar: uni01CE
Encoding: 462 462 463
Width: 400
Flags: W
LayerCount: 2
Fore
SplineSet
50 200 m 128,-1,1
 50 138 50 138 94 94 c 128,-1,2
 138 50 138 50 200 50 c 128,-1,3
 262 50 262 50 306 94 c 128,-1,4
 350 138 350 138 350 200 c 128,-1,5
 350 262 350 262 306 306 c 128,-1,6
 262 350 262 350 200 350 c 128,-1,7
 138 350 138 350 94 306 c 128,-1,0
 50 262 50 262 50 200 c 128,-1,1
EndSplineSet
EndChar

StartChar: uni01CF
Encoding: 463 463 464
Width: 400
Flags: W
LayerCount: 2
Fore
SplineSet
50 200 m 128,-1,1
 50 138 50 138 94 94 c 128,-1,2
 138 50 138 50 200 50 c 128,-1,3
 262 50 262 50 306 94 c 128,-1,4
 350 138 350 138 350 200 c 128,-1,5
 350 262 350 262 306 306 c 128,-1,6
 262 350 262 350 200 350 c 128,-1,7
 138 350 138 350 94 306 c 128,-1,0
 50 262 50 262 50 200 c 128,-1,1
EndSplineSet
EndChar

StartChar: uni01D0
Encoding: 464 464 465
Width: 400
Flags: W
LayerCount: 2
Fore
SplineSet
50 200 m 128,-1,1
 50 138 50 138 94 94 c 128,-1,2
 138 50 138 50 200 50 c 128,-1,3
 262 50 262 50 306 94 c 128,-1,4
 350 138 350 138 350 200 c 128,-1,5
 350 262 350 262 306 306 c 128,-1,6
 262 350 262 350 200 350 c 128,-1,7
 138 350 138 350 94 306 c 128,-1,0
 50 262 50 262 50 200 c 128,-1,1
EndSplineSet
EndChar

StartChar: uni01D1
Encoding: 465 465 466
Width: 400
Flags: W
LayerCount: 2
Fore
SplineSet
50 200 m 128,-1,1
 50 138 50 138 94 94 c 128,-1,2
 138 50 138 50 200 50 c 128,-1,3
 262 50 262 50 306 94 c 128,-1,4
 350 138 350 138 350 200 c 128,-1,5
 350 262 350 262 306 306 c 128,-1,6
 262 350 262 350 200 350 c 128,-1,7
 138 350 138 350 94 306 c 128,-1,0
 50 262 50 262 50 200 c 128,-1,1
EndSplineSet
EndChar

StartChar: uni01D2
Encoding: 466 466 467
Width: 400
Flags: W
LayerCount: 2
Fore
SplineSet
50 200 m 128,-1,1
 50 138 50 138 94 94 c 128,-1,2
 138 50 138 50 200 50 c 128,-1,3
 262 50 262 50 306 94 c 128,-1,4
 350 138 350 138 350 200 c 128,-1,5
 350 262 350 262 306 306 c 128,-1,6
 262 350 262 350 200 350 c 128,-1,7
 138 350 138 350 94 306 c 128,-1,0
 50 262 50 262 50 200 c 128,-1,1
EndSplineSet
EndChar

StartChar: uni01D3
Encoding: 467 467 468
Width: 400
Flags: W
LayerCount: 2
Fore
SplineSet
50 200 m 128,-1,1
 50 138 50 138 94 94 c 128,-1,2
 138 50 138 50 200 50 c 128,-1,3
 262 50 262 50 306 94 c 128,-1,4
 350 138 350 138 350 200 c 128,-1,5
 350 262 350 262 306 306 c 128,-1,6
 262 350 262 350 200 350 c 128,-1,7
 138 350 138 350 94 306 c 128,-1,0
 50 262 50 262 50 200 c 128,-1,1
EndSplineSet
EndChar

StartChar: uni01D4
Encoding: 468 468 469
Width: 400
Flags: W
LayerCount: 2
Fore
SplineSet
50 200 m 128,-1,1
 50 138 50 138 94 94 c 128,-1,2
 138 50 138 50 200 50 c 128,-1,3
 262 50 262 50 306 94 c 128,-1,4
 350 138 350 138 350 200 c 128,-1,5
 350 262 350 262 306 306 c 128,-1,6
 262 350 262 350 200 350 c 128,-1,7
 138 350 138 350 94 306 c 128,-1,0
 50 262 50 262 50 200 c 128,-1,1
EndSplineSet
EndChar

StartChar: uni01D5
Encoding: 469 469 470
Width: 400
Flags: W
LayerCount: 2
Fore
SplineSet
50 200 m 128,-1,1
 50 138 50 138 94 94 c 128,-1,2
 138 50 138 50 200 50 c 128,-1,3
 262 50 262 50 306 94 c 128,-1,4
 350 138 350 138 350 200 c 128,-1,5
 350 262 350 262 306 306 c 128,-1,6
 262 350 262 350 200 350 c 128,-1,7
 138 350 138 350 94 306 c 128,-1,0
 50 262 50 262 50 200 c 128,-1,1
EndSplineSet
EndChar

StartChar: uni01D6
Encoding: 470 470 471
Width: 400
Flags: W
LayerCount: 2
Fore
SplineSet
50 200 m 128,-1,1
 50 138 50 138 94 94 c 128,-1,2
 138 50 138 50 200 50 c 128,-1,3
 262 50 262 50 306 94 c 128,-1,4
 350 138 350 138 350 200 c 128,-1,5
 350 262 350 262 306 306 c 128,-1,6
 262 350 262 350 200 350 c 128,-1,7
 138 350 138 350 94 306 c 128,-1,0
 50 262 50 262 50 200 c 128,-1,1
EndSplineSet
EndChar

StartChar: uni01D7
Encoding: 471 471 472
Width: 400
Flags: W
LayerCount: 2
Fore
SplineSet
50 200 m 128,-1,1
 50 138 50 138 94 94 c 128,-1,2
 138 50 138 50 200 50 c 128,-1,3
 262 50 262 50 306 94 c 128,-1,4
 350 138 350 138 350 200 c 128,-1,5
 350 262 350 262 306 306 c 128,-1,6
 262 350 262 350 200 350 c 128,-1,7
 138 350 138 350 94 306 c 128,-1,0
 50 262 50 262 50 200 c 128,-1,1
EndSplineSet
EndChar

StartChar: uni01D8
Encoding: 472 472 473
Width: 400
Flags: W
LayerCount: 2
Fore
SplineSet
50 200 m 128,-1,1
 50 138 50 138 94 94 c 128,-1,2
 138 50 138 50 200 50 c 128,-1,3
 262 50 262 50 306 94 c 128,-1,4
 350 138 350 138 350 200 c 128,-1,5
 350 262 350 262 306 306 c 128,-1,6
 262 350 262 350 200 350 c 128,-1,7
 138 350 138 350 94 306 c 128,-1,0
 50 262 50 262 50 200 c 128,-1,1
EndSplineSet
EndChar

StartChar: uni01D9
Encoding: 473 473 474
Width: 400
Flags: W
LayerCount: 2
Fore
SplineSet
50 200 m 128,-1,1
 50 138 50 138 94 94 c 128,-1,2
 138 50 138 50 200 50 c 128,-1,3
 262 50 262 50 306 94 c 128,-1,4
 350 138 350 138 350 200 c 128,-1,5
 350 262 350 262 306 306 c 128,-1,6
 262 350 262 350 200 350 c 128,-1,7
 138 350 138 350 94 306 c 128,-1,0
 50 262 50 262 50 200 c 128,-1,1
EndSplineSet
EndChar

StartChar: uni01DA
Encoding: 474 474 475
Width: 400
Flags: W
LayerCount: 2
Fore
SplineSet
50 200 m 128,-1,1
 50 138 50 138 94 94 c 128,-1,2
 138 50 138 50 200 50 c 128,-1,3
 262 50 262 50 306 94 c 128,-1,4
 350 138 350 138 350 200 c 128,-1,5
 350 262 350 262 306 306 c 128,-1,6
 262 350 262 350 200 350 c 128,-1,7
 138 350 138 350 94 306 c 128,-1,0
 50 262 50 262 50 200 c 128,-1,1
EndSplineSet
EndChar

StartChar: uni01DB
Encoding: 475 475 476
Width: 400
Flags: W
LayerCount: 2
Fore
SplineSet
50 200 m 128,-1,1
 50 138 50 138 94 94 c 128,-1,2
 138 50 138 50 200 50 c 128,-1,3
 262 50 262 50 306 94 c 128,-1,4
 350 138 350 138 350 200 c 128,-1,5
 350 262 350 262 306 306 c 128,-1,6
 262 350 262 350 200 350 c 128,-1,7
 138 350 138 350 94 306 c 128,-1,0
 50 262 50 262 50 200 c 128,-1,1
EndSplineSet
EndChar

StartChar: uni01DC
Encoding: 476 476 477
Width: 400
Flags: W
LayerCount: 2
Fore
SplineSet
50 200 m 128,-1,1
 50 138 50 138 94 94 c 128,-1,2
 138 50 138 50 200 50 c 128,-1,3
 262 50 262 50 306 94 c 128,-1,4
 350 138 350 138 350 200 c 128,-1,5
 350 262 350 262 306 306 c 128,-1,6
 262 350 262 350 200 350 c 128,-1,7
 138 350 138 350 94 306 c 128,-1,0
 50 262 50 262 50 200 c 128,-1,1
EndSplineSet
EndChar

StartChar: uni01DD
Encoding: 477 477 478
Width: 400
Flags: W
LayerCount: 2
Fore
SplineSet
50 200 m 128,-1,1
 50 138 50 138 94 94 c 128,-1,2
 138 50 138 50 200 50 c 128,-1,3
 262 50 262 50 306 94 c 128,-1,4
 350 138 350 138 350 200 c 128,-1,5
 350 262 350 262 306 306 c 128,-1,6
 262 350 262 350 200 350 c 128,-1,7
 138 350 138 350 94 306 c 128,-1,0
 50 262 50 262 50 200 c 128,-1,1
EndSplineSet
EndChar

StartChar: uni01DE
Encoding: 478 478 479
Width: 400
Flags: W
LayerCount: 2
Fore
SplineSet
50 200 m 128,-1,1
 50 138 50 138 94 94 c 128,-1,2
 138 50 138 50 200 50 c 128,-1,3
 262 50 262 50 306 94 c 128,-1,4
 350 138 350 138 350 200 c 128,-1,5
 350 262 350 262 306 306 c 128,-1,6
 262 350 262 350 200 350 c 128,-1,7
 138 350 138 350 94 306 c 128,-1,0
 50 262 50 262 50 200 c 128,-1,1
EndSplineSet
EndChar

StartChar: uni01DF
Encoding: 479 479 480
Width: 400
Flags: W
LayerCount: 2
Fore
SplineSet
50 200 m 128,-1,1
 50 138 50 138 94 94 c 128,-1,2
 138 50 138 50 200 50 c 128,-1,3
 262 50 262 50 306 94 c 128,-1,4
 350 138 350 138 350 200 c 128,-1,5
 350 262 350 262 306 306 c 128,-1,6
 262 350 262 350 200 350 c 128,-1,7
 138 350 138 350 94 306 c 128,-1,0
 50 262 50 262 50 200 c 128,-1,1
EndSplineSet
EndChar

StartChar: uni01E0
Encoding: 480 480 481
Width: 400
Flags: W
LayerCount: 2
Fore
SplineSet
50 200 m 128,-1,1
 50 138 50 138 94 94 c 128,-1,2
 138 50 138 50 200 50 c 128,-1,3
 262 50 262 50 306 94 c 128,-1,4
 350 138 350 138 350 200 c 128,-1,5
 350 262 350 262 306 306 c 128,-1,6
 262 350 262 350 200 350 c 128,-1,7
 138 350 138 350 94 306 c 128,-1,0
 50 262 50 262 50 200 c 128,-1,1
EndSplineSet
EndChar

StartChar: uni01E1
Encoding: 481 481 482
Width: 400
Flags: W
LayerCount: 2
Fore
SplineSet
50 200 m 128,-1,1
 50 138 50 138 94 94 c 128,-1,2
 138 50 138 50 200 50 c 128,-1,3
 262 50 262 50 306 94 c 128,-1,4
 350 138 350 138 350 200 c 128,-1,5
 350 262 350 262 306 306 c 128,-1,6
 262 350 262 350 200 350 c 128,-1,7
 138 350 138 350 94 306 c 128,-1,0
 50 262 50 262 50 200 c 128,-1,1
EndSplineSet
EndChar

StartChar: uni01E2
Encoding: 482 482 483
Width: 400
Flags: W
LayerCount: 2
Fore
SplineSet
50 200 m 128,-1,1
 50 138 50 138 94 94 c 128,-1,2
 138 50 138 50 200 50 c 128,-1,3
 262 50 262 50 306 94 c 128,-1,4
 350 138 350 138 350 200 c 128,-1,5
 350 262 350 262 306 306 c 128,-1,6
 262 350 262 350 200 350 c 128,-1,7
 138 350 138 350 94 306 c 128,-1,0
 50 262 50 262 50 200 c 128,-1,1
EndSplineSet
EndChar

StartChar: uni01E3
Encoding: 483 483 484
Width: 400
Flags: W
LayerCount: 2
Fore
SplineSet
50 200 m 128,-1,1
 50 138 50 138 94 94 c 128,-1,2
 138 50 138 50 200 50 c 128,-1,3
 262 50 262 50 306 94 c 128,-1,4
 350 138 350 138 350 200 c 128,-1,5
 350 262 350 262 306 306 c 128,-1,6
 262 350 262 350 200 350 c 128,-1,7
 138 350 138 350 94 306 c 128,-1,0
 50 262 50 262 50 200 c 128,-1,1
EndSplineSet
EndChar

StartChar: uni01E4
Encoding: 484 484 485
Width: 400
Flags: W
LayerCount: 2
Fore
SplineSet
50 200 m 128,-1,1
 50 138 50 138 94 94 c 128,-1,2
 138 50 138 50 200 50 c 128,-1,3
 262 50 262 50 306 94 c 128,-1,4
 350 138 350 138 350 200 c 128,-1,5
 350 262 350 262 306 306 c 128,-1,6
 262 350 262 350 200 350 c 128,-1,7
 138 350 138 350 94 306 c 128,-1,0
 50 262 50 262 50 200 c 128,-1,1
EndSplineSet
EndChar

StartChar: uni01E5
Encoding: 485 485 486
Width: 400
Flags: W
LayerCount: 2
Fore
SplineSet
50 200 m 128,-1,1
 50 138 50 138 94 94 c 128,-1,2
 138 50 138 50 200 50 c 128,-1,3
 262 50 262 50 306 94 c 128,-1,4
 350 138 350 138 350 200 c 128,-1,5
 350 262 350 262 306 306 c 128,-1,6
 262 350 262 350 200 350 c 128,-1,7
 138 350 138 350 94 306 c 128,-1,0
 50 262 50 262 50 200 c 128,-1,1
EndSplineSet
EndChar

StartChar: Gcaron
Encoding: 486 486 487
Width: 400
Flags: W
LayerCount: 2
Fore
SplineSet
50 200 m 128,-1,1
 50 138 50 138 94 94 c 128,-1,2
 138 50 138 50 200 50 c 128,-1,3
 262 50 262 50 306 94 c 128,-1,4
 350 138 350 138 350 200 c 128,-1,5
 350 262 350 262 306 306 c 128,-1,6
 262 350 262 350 200 350 c 128,-1,7
 138 350 138 350 94 306 c 128,-1,0
 50 262 50 262 50 200 c 128,-1,1
EndSplineSet
EndChar

StartChar: gcaron
Encoding: 487 487 488
Width: 400
Flags: W
LayerCount: 2
Fore
SplineSet
50 200 m 128,-1,1
 50 138 50 138 94 94 c 128,-1,2
 138 50 138 50 200 50 c 128,-1,3
 262 50 262 50 306 94 c 128,-1,4
 350 138 350 138 350 200 c 128,-1,5
 350 262 350 262 306 306 c 128,-1,6
 262 350 262 350 200 350 c 128,-1,7
 138 350 138 350 94 306 c 128,-1,0
 50 262 50 262 50 200 c 128,-1,1
EndSplineSet
EndChar

StartChar: uni01E8
Encoding: 488 488 489
Width: 400
Flags: W
LayerCount: 2
Fore
SplineSet
50 200 m 128,-1,1
 50 138 50 138 94 94 c 128,-1,2
 138 50 138 50 200 50 c 128,-1,3
 262 50 262 50 306 94 c 128,-1,4
 350 138 350 138 350 200 c 128,-1,5
 350 262 350 262 306 306 c 128,-1,6
 262 350 262 350 200 350 c 128,-1,7
 138 350 138 350 94 306 c 128,-1,0
 50 262 50 262 50 200 c 128,-1,1
EndSplineSet
EndChar

StartChar: uni01E9
Encoding: 489 489 490
Width: 400
Flags: W
LayerCount: 2
Fore
SplineSet
50 200 m 128,-1,1
 50 138 50 138 94 94 c 128,-1,2
 138 50 138 50 200 50 c 128,-1,3
 262 50 262 50 306 94 c 128,-1,4
 350 138 350 138 350 200 c 128,-1,5
 350 262 350 262 306 306 c 128,-1,6
 262 350 262 350 200 350 c 128,-1,7
 138 350 138 350 94 306 c 128,-1,0
 50 262 50 262 50 200 c 128,-1,1
EndSplineSet
EndChar

StartChar: uni01EA
Encoding: 490 490 491
Width: 400
Flags: W
LayerCount: 2
Fore
SplineSet
50 200 m 128,-1,1
 50 138 50 138 94 94 c 128,-1,2
 138 50 138 50 200 50 c 128,-1,3
 262 50 262 50 306 94 c 128,-1,4
 350 138 350 138 350 200 c 128,-1,5
 350 262 350 262 306 306 c 128,-1,6
 262 350 262 350 200 350 c 128,-1,7
 138 350 138 350 94 306 c 128,-1,0
 50 262 50 262 50 200 c 128,-1,1
EndSplineSet
EndChar

StartChar: uni01EB
Encoding: 491 491 492
Width: 400
Flags: W
LayerCount: 2
Fore
SplineSet
50 200 m 128,-1,1
 50 138 50 138 94 94 c 128,-1,2
 138 50 138 50 200 50 c 128,-1,3
 262 50 262 50 306 94 c 128,-1,4
 350 138 350 138 350 200 c 128,-1,5
 350 262 350 262 306 306 c 128,-1,6
 262 350 262 350 200 350 c 128,-1,7
 138 350 138 350 94 306 c 128,-1,0
 50 262 50 262 50 200 c 128,-1,1
EndSplineSet
EndChar

